/* XPM */
static char *_9003e9cd95f434b89c769c0e35852e5azuEI0xInUi65Fnm[] = {
/* columns rows colors chars-per-pixel */
"64 64 249 2 ",
"   c None",
".  c #0C0C0B",
"X  c #040505",
"o  c #141413",
"O  c #1A1C18",
"+  c #0D140F",
"@  c #2B0B0B",
"#  c #3C1818",
"$  c #2F1311",
"%  c #1A201C",
"&  c #27221D",
"*  c #382318",
"=  c #2A2A27",
"-  c #2D2D2B",
";  c #252723",
":  c #34312D",
">  c #393734",
",  c #22392E",
"<  c #1F342A",
"1  c #4C2D1B",
"2  c #712B12",
"3  c #423B33",
"4  c #204534",
"5  c #46413D",
"6  c #5D4E34",
"7  c #6F5232",
"8  c #796C2D",
"9  c #365243",
"0  c #39765D",
"q  c #4B4846",
"w  c #514B46",
"e  c #5B5957",
"r  c #57544A",
"t  c #685E57",
"y  c #675A4B",
"u  c #63615E",
"i  c #766A5A",
"p  c #756548",
"a  c #467E62",
"s  c #686666",
"d  c #716E6C",
"f  c #7E7C7D",
"g  c #787574",
"h  c #7B7366",
"j  c #5A7A49",
"k  c #983819",
"l  c #8C3317",
"z  c #A33D1B",
"x  c #913E28",
"c  c #A53F20",
"v  c #974F1A",
"b  c #AA421C",
"n  c #B2441D",
"m  c #B4551D",
"M  c #914F33",
"N  c #AA4725",
"B  c #BA4925",
"V  c #B1562B",
"C  c #8E703B",
"Z  c #A86827",
"A  c #A87039",
"S  c #AB671C",
"D  c #C44E23",
"F  c #C84E28",
"G  c #C65223",
"H  c #CC5424",
"J  c #C85627",
"K  c #D45B25",
"L  c #DA5D26",
"P  c #D55C29",
"I  c #DA5D2A",
"U  c #D15726",
"Y  c #D25D35",
"T  c #DC632A",
"R  c #D86227",
"E  c #CE692F",
"W  c #E1652B",
"Q  c #E36A2D",
"!  c #E46F30",
"~  c #895146",
"^  c #8F6E54",
"/  c #B36E53",
"(  c #817D79",
")  c #917666",
"_  c #398666",
"`  c #539873",
"'  c #689678",
"]  c #4D8359",
"[  c #B88A3A",
"{  c #AD8836",
"}  c #998837",
"|  c #CC9937",
" . c #D9A63B",
".. c #C2A33F",
"X. c #EAAF36",
"o. c #A98648",
"O. c #B79945",
"+. c #B4915A",
"@. c #B6A959",
"#. c #898379",
"$. c #948871",
"%. c #AC9668",
"&. c #B4B273",
"*. c #9DA15F",
"=. c #C59B47",
"-. c #C5A145",
";. c #D7A645",
":. c #D4B155",
">. c #E4B34B",
",. c #E7B748",
"<. c #ECBC52",
"1. c #E9BB59",
"2. c #E3AE50",
"3. c #D6BA66",
"4. c #C3B372",
"5. c #E4B863",
"6. c #BFC97B",
"7. c #F2C44B",
"8. c #EEC259",
"9. c #F1C455",
"0. c #F3CB56",
"q. c #F2C65B",
"w. c #F4CC5C",
"e. c #F8CF59",
"r. c #F5D35E",
"t. c #EEC04F",
"y. c #D5CC75",
"u. c #D7C76D",
"i. c #EAC766",
"p. c #F4CE64",
"a. c #F3CC6D",
"s. c #F1C663",
"d. c #ECD469",
"f. c #F5D364",
"g. c #F6D966",
"h. c #F5D46C",
"j. c #F6DB6B",
"k. c #F8DD6C",
"l. c #FAD864",
"z. c #F3CE7C",
"x. c #F5CF77",
"c. c #E7D771",
"v. c #F4D472",
"b. c #F6DC73",
"n. c #F4D57B",
"m. c #F6DB79",
"M. c #EACF77",
"N. c #F8E06E",
"B. c #F7E174",
"V. c #F6E179",
"C. c #F9E376",
"Z. c #54AE89",
"A. c #58B28F",
"S. c #66B68E",
"D. c #61B693",
"F. c #65B996",
"G. c #6DBD9B",
"H. c #69BB98",
"J. c #71BE9C",
"K. c #79B793",
"L. c #72AB89",
"P. c #74BDA2",
"I. c #73C19E",
"U. c #7AC39F",
"Y. c #6FC19E",
"T. c #76C2A1",
"R. c #7CC5A3",
"E. c #858384",
"W. c #8B8989",
"Q. c #928D8C",
"!. c #959494",
"~. c #9D9B9C",
"^. c #999796",
"/. c #93928E",
"(. c #8CB58C",
"). c #ACA495",
"_. c #90BDA2",
"`. c #A8A6A5",
"'. c #B4ABA8",
"]. c #B6B6AC",
"[. c #B4B5B4",
"{. c #BCBCBC",
"}. c #BAB5B3",
"|. c #B6AEB0",
" X c #B29995",
".X c #C7B88F",
"XX c #E7BE86",
"oX c #C4B8B4",
"OX c #87C59C",
"+X c #92C091",
"@X c #B1C890",
"#X c #82C7A6",
"$X c #85C8A7",
"%X c #86C9A8",
"&X c #8BCAAA",
"*X c #8AC7A6",
"=X c #92CDAE",
"-X c #98C6A6",
";X c #94CEB1",
":X c #98CFB2",
">X c #9CD1B6",
",X c #9ED0AF",
"<X c #A4D5BA",
"1X c #A8D6BB",
"2X c #ABCBA8",
"3X c #D6CE8C",
"4X c #E5C887",
"5X c #F4D88A",
"6X c #F5DA91",
"7X c #F5D79A",
"8X c #EDD38C",
"9X c #F9E396",
"0X c #C9C8B9",
"qX c #D6CABA",
"wX c #D6D3AF",
"eX c #F5DAA4",
"rX c #E8DAB5",
"tX c #C1BFC0",
"yX c #B7DCC5",
"uX c #BEC0C1",
"iX c #BDE0CA",
"pX c #C7C6C6",
"aX c #D8D6C6",
"sX c #DCDCDC",
"dX c #D5D5D5",
"fX c #CBD2C6",
"gX c #E3DCC6",
"hX c #E0DFDF",
"jX c #C8E3CE",
"kX c #CDE6D2",
"lX c #C4E3D1",
"zX c #D6E9D7",
"xX c #D7E2CB",
"cX c #E3E5DB",
"vX c #E8E7D6",
"bX c #E8EEDD",
"nX c #E4E4E3",
"mX c #EDECEC",
"MX c #E9E9E4",
"NX c #F1EFEB",
"BX c #E3F2E3",
"VX c #EAF4ED",
"CX c #F1F3E8",
"ZX c #F4F3F3",
"AX c #F4F9F5",
"SX c #FDFDFD",
"DX c #F9FBF6",
"FX c #EFF7F2",
"GX c #DEEFE0",
/* pixels */
"                                                                                                                                ",
"                                                                                                                                ",
"                                                    Q Q W W W       Q Q W W                                                     ",
"                                              ! T T T I T T L H I T T P I P P T W                                               ",
"                                            R H W T K T K k 2 l k 2 b T K H K L G G Q                                           ",
"                                        Q K T T H R L v M ^ $.$.+.O.{ v m W G H L K G W                                         ",
"                            Q Q       Q H I L U W J $.`.{.pXfXfXuX`.^.%.| S K T D U U H T                                       ",
"                      Q I D     H L Q G U K T T A `.pXmXZXmXnXnXmXZXsX[./.:.{ m W H H H n I   T K H F K T                       ",
"                  E 8 N             K G K Q G %.[.nXNX}.( e r e s ( pXmX{./.&.,.Z K K F F n J N           D Z                   ",
"                ! Q H             I H P W V 3.}.mXhXh w d W.^.^.W.g r #.nX{./.i.0.| B L F B B V             S Q !               ",
"              T T L L F           B P K Z d.oXdXnXy e ~.pXsXnXnXnXdX{.f g nX`.).f.r.;.V I G N B             W W T !             ",
"            T U T k H B         F Y J [ h.8X{.nXi u [.nXZXSXSXSXSXSXZXdX^.~.tXE.M.f.f.1.Z F F k N         H T G P K W           ",
"              N B b b B         Y v [ v.m.qX{.'.w [.MXSXSXSXSXSXSXSXSXSXnX!.tXW..Xf.f.a.s.A v V N         H K l P b B           ",
"              F n k l n           C a.n.m.pX[.i W.hXSXSXSXSXNXnXmXSXSXSXSXdX|.E.`.:.f.p.a.s.=.2 V         H z z D z             ",
"                c k k c           4Xx.3.%.}.`.y {.ZXSXSXSX'.~ ~ ~  XSXSXSXZX[.f ^.E.+.8.a.a.i.+.          b l l k N             ",
"                                  &.i w s `.!.s dXDXSXSXpXM M 6 7 x oXSXSXZX{.d !.d : w p +.3.XX                                ",
"                                f r q 3 s `.W.( nXZXSXSX) M & O & M ^ SXZXmX[.s !.e - > 5 q w i                                 ",
"                                u > 5 q s |.g E.sXZXSXSX) M $ o * M ^ SXZXMX!.u Q.e : 3 > : > r `.                              ",
"                                ( e r 6 i {.d W.dXZXSXSXoXM M M / V qXSXZXdXd s s e 3 5 q w w r `.                              ",
"                                #.=.5.1.1..XW.g [.mXSXSXSX'.^ / / oXSXZXmX^.s Q.C o.;.;.=.o.^ t '.                              ",
"                                  6Xn.h.h.i.`.f ( pXZXSXSXSXNXMXZXSXSXmX|.d f Q. .2.1.s.a.a.z.4X                                ",
"                                  6Xn.n.h.f.4.!.f ( pXmXSXSXSXSXSXZXnX`.g E.E.o.2.1.q.p.a.a.z.eX                                ",
"                                  6Xn.v.h.h.w.%.^.E.f ^.pXgXgXrXwX|.E.E.!.W.^ ;.1.1.q.p.p.a.z.eX                                ",
"                                  6Xn.v.j.j.f.i.#.!.!.Q.E.( E.E.E.W.!.^.( i ;.>.1.q.w.p.p.a.z.eX                                ",
"                                  6Xn.h.j.j.j.f.q.+.#.!.^.~.~.~.~.!.#.i ^  .>.<.9.q.w.p.p.a.z.eX                                ",
"                                  6Xn.h.j.j.j.j.f.q.-.^ ^ ) #.( h t p [  .>.<.9.9.w.p.f.p.a.z.eX                                ",
"                                  6Xn.v.j.j.j.j.j.f.q.<.;.O.{ { [ |  .>.>.<.<.9.0.w.f.f.h.a.z.eX                                ",
"                                  6Xn.h.j.j.j.j.j.f.w.q.9.<.>.>.>.>.>.,.<.<.9.9.O.=.f.f.f.a.z.eX                                ",
"                                  6Xn.v.j.j.j.j.j.j.f.f.w.0.9.<.<.<.<.<.t.1.4.#.s i.f.f.f.a.z.eX                                ",
"                                  6Xn.m.b.j.j.j.j.j.f.r.r.r.w.9.9.8.i.4XqX{.{.`.3.g.f.f.f.a.n.7X                                ",
"                                  6Xn.b.b.j.j.j.B.N.u.)..X^ ).qXaX}.|.dXdX`.pX3Xj.f.f.f.f.h.n.7X                                ",
"                                wX5Xn.b.b.b.b.b.B.B.B.C @ @ $ # # @ $ # # $ o.N.j.f.f.f.f.h.v.7X                                ",
"                                2X5Xm.m.b.b.b.B.B.B.V.B.@.1 @ @ @ @ @ @ 1 :.C.j.f.r.r.f.f.f.8XwX                                ",
"                                *XM.m.m.b.b.B.B.B.B.B.B.V.V.3.} 7 7 C 3.B.B.j.g.f.f.r.r.p.@X;X3X.X                              ",
"                                &Xy.m.b.b.b.B.B.B.B.B.B.V.V.V.V.V.C.C.B.N.j.g.f.f.f.r.0.6.T.&.w.h.                              ",
"                              9X2X@Xh.b.b.b.N.B.B.B.B.B.B.V.B.V.B.B.B.B.j.j.g.f.f.r.0.n.1X(.<.w.f.6X                            ",
"                              5X3X*Xs.b.b.b.b.B.B.B.B.B.B.B.B.V.B.B.B.B.j.j.g.f.r.0.q.bX-X:. .9.r.h.                            ",
"                            6Xs.8X&Xu.j.b.b.B.B.B.B.B.B.B.B.B.B.B.B.B.b.j.g.f.f.e.7.@X&X3.1. .,.r.r.                            ",
"                            v.7.5X-X4.e.k.j.j.b.B.B.B.B.B.B.B.B.B.B.b.k.g.g.f.0.7.&.T.&.9.q.,. .w.r.6X                          ",
"                            h.0.@XMXcX&.6.u.d.d.g.g.j.j.j.b.b.b.c.c.c.y.y.y.y.y.vX;X(.@.@.@.*.} 7.f.n.                          ",
"                            h.q.G.4XrXA.G.T.U.U.OXOXOXOXOX,XyXR.R.T.T.T.J.F.>XvXf.vXP.F.F.J.K.j 7.f.h.                          ",
"                            h.i.%XXX].F.I.T.;XR.R.kX=XR.R.#XR.#X#X&X=XR.T.G.yX7XX.gX;XI.G.,X-X] ,.f.g.                          ",
"                            j.y.&XyX_.G.T.R.BX$XR.kX&X#X#X$X#X$X#XzXCX%XT.U.H.VXfXcXxXI.G.J.S.]  .j.j.                          ",
"                            j.3XR.F.H.I.T.R.&XR.#XR.#X#XiXBX$X$X$X&X:XR.R.R.I.G.A.F.T.G.G.H.S.` ..b.j.                          ",
"                            k.@XG.G.I.#XR.R.R.#X&X#X$X$X1XyX$X&X%X$X#XR.R.#XR.I.I.U.I.J.#XH.S.' -.k.j.                          ",
"                          9Xk.@XI.I.R.zXR.R.R.yXBX#X$X$X$X$X%X$X$X#X#XR.&XCX1XU.T.T.J.U.vX#XS.L.-.N.j.                          ",
"                          5Xl.+XfXI.T.%XR.R.#X&X;X$X$X#X%X%X$XyXzX%X#XR.%XkX&XT.T.T.J.G.*XF.S.` O.N.j.                          ",
"                          p 8 L.&XI.T.T.R.#X#X$X$X$X<XkX%X%X%XBXGX%X$X#X#X#XR.R.T.T.J.G.H.F.S.` O.k.j.                          ",
"                          = % S.I.R.R.T.kX1X#X$X%X%XGXzX&X&X&X&X%X%X$XR.#X#XR.R.yXjXJ.J.G.D.2X' } d.d.                          ",
"                          ; % _.Y.xX&XR.yX&X$X&X&X&X&X&X&X$X&X&X%X$X$XkXkX#XR.R.jXjXJ.J.G.D.-Xa O > : r                         ",
"                        g = ; =XI.&XR.R.#X$X&X&X&X&X&X&X&XlX1X&X&X%X&XBXkX#XR.#XR.T.J.Y.G.D.Z.a + - & >                         ",
"                        5 - , T.T.T.R.#X$X&XVX1X&X&X&X&X>XDXlX&X&X&X$X%X&X$X#X#XR.T.J.R.G.D.Z._ + - = s                         ",
"                      g > = 9 R.R.R.yX#X%X&XiX&X&X&X&X&X&X:X&X&X&X&X%X%X&X#X%X$XR.T.R.bX<XD.Z.0 O ; ; 5                         ",
"                      s q - 0 yX&X&XzX#X&X&X&X&X&X&X&X&X&X&X&X&X&X<X=X%X&X%XBXBX#XT.T.>XJ.D.Z.4 = : : - (                       ",
"                      e : & ` &XR.R.#X$X&X&X&X&X1XVX:X&X&X&X&X&X<XDXzX%X&X#XiXyX#XT.T.I.G.D.` O O o = - q                       ",
"                      s - ; G.R.R.R.#X%XBXyX&X&XiXBX=X&X&X&X&X&X&XyX=X&X&X$X$X#X$XT.>X$XG.D.' ; ; X ; : > u                     ",
"                        - r 1X&X#X#X#X&XzX>X&X&X&X&X&X&X&X&X&X&X&X&X&X&X&X%X&X#X$X%XCXjXG.F.Z.< % . - : = w                     ",
"                          ].vXvXcXzXkXlX1X1X>X<X>X>X=X=X=X=X=X=X=X=X&X=X:X&X:X:X:X&X<X=XR.&X;X_.9 o - = -                       ",
"                            ].0XcXbXCXCXZXDXDXSXSXSXFXAXDXVXAXFXVXAXBXDXDXAXZXZXCXCXbXvXcXgXaX0Xh O ; =                         ",
"                                        0X].[.0XfXdXsXnXnXnXnXMXNXMXMXMXnXnXcXMXcXxXaXaXaXaX0X    > :                           ",
"                                            . X . . . o o o O ;   O O O O O :                                                   ",
"                                            . X X X X X         o . . . + O %                                                   ",
"                                                                  o o o o o                                                     ",
"                                                                                                                                "
};
