/* XPM */
static char * flower_2_xpm[] = {
"64 64 646 2",
"  	c #7CAF3A",
". 	c #7BAF3A",
"+ 	c #7BAE39",
"@ 	c #7AAE39",
"# 	c #7AAF39",
"$ 	c #79AF3A",
"% 	c #79AF39",
"& 	c #79AF38",
"* 	c #7AB038",
"= 	c #7AB039",
"- 	c #7AB03A",
"; 	c #7BAE3A",
"> 	c #7AAE3A",
", 	c #7AAD3A",
"' 	c #7BAF39",
") 	c #7BB03A",
"! 	c #7AAD39",
"~ 	c #7BAF38",
"{ 	c #7BAE38",
"] 	c #7AAF3A",
"^ 	c #7BAF3B",
"/ 	c #7BAE3B",
"( 	c #79A937",
"_ 	c #749E34",
": 	c #719832",
"< 	c #729831",
"[ 	c #779731",
"} 	c #809731",
"| 	c #859731",
"1 	c #869731",
"2 	c #869831",
"3 	c #869830",
"4 	c #819930",
"5 	c #799930",
"6 	c #749830",
"7 	c #759930",
"8 	c #779F32",
"9 	c #7AAA36",
"0 	c #759D33",
"a 	c #6A7926",
"b 	c #615D1B",
"c 	c #615B1A",
"d 	c #725C1A",
"e 	c #8D5C1A",
"f 	c #9A5C1A",
"g 	c #9B5C1A",
"h 	c #9B5D1A",
"i 	c #905E1A",
"j 	c #775E1A",
"k 	c #675C19",
"l 	c #685E1A",
"m 	c #6F7A24",
"n 	c #78AA38",
"o 	c #729D33",
"p 	c #81842E",
"q 	c #9A582E",
"r 	c #992527",
"s 	c #7E0609",
"t 	c #8C0000",
"u 	c #B50000",
"v 	c #BE0000",
"w 	c #AE0000",
"x 	c #C10000",
"y 	c #B90000",
"z 	c #900000",
"A 	c #740000",
"B 	c #760000",
"C 	c #765015",
"D 	c #738429",
"E 	c #749E33",
"F 	c #79AA37",
"G 	c #739E34",
"H 	c #687925",
"I 	c #99572D",
"J 	c #D6524A",
"K 	c #DB4748",
"L 	c #B12326",
"M 	c #E40000",
"N 	c #E70000",
"O 	c #E80000",
"P 	c #B80000",
"Q 	c #940000",
"R 	c #930000",
"S 	c #8B2807",
"T 	c #755015",
"U 	c #6D7925",
"V 	c #769E33",
"W 	c #79A939",
"X 	c #769E35",
"Y 	c #81852E",
"Z 	c #97572D",
"` 	c #BA393B",
" .	c #DD4A4C",
"..	c #E44547",
"+.	c #D32325",
"@.	c #DF0409",
"#.	c #FF2526",
"$.	c #F82728",
"%.	c #BC0E10",
"&.	c #B20000",
"*.	c #E30000",
"=.	c #EF0000",
"-.	c #D90000",
";.	c #BD0000",
">.	c #A10000",
",.	c #980000",
"'.	c #9D5015",
").	c #858429",
"!.	c #749E35",
"~.	c #6A7927",
"{.	c #9A572E",
"].	c #D75149",
"^.	c #DD4A4D",
"/.	c #BB383B",
"(.	c #BE2024",
"_.	c #E70001",
":.	c #FF2426",
"<.	c #FF4849",
"[.	c #F1484A",
"}.	c #A9282A",
"|.	c #850000",
"1.	c #B10000",
"2.	c #D70000",
"3.	c #F00000",
"4.	c #E00000",
"5.	c #A30000",
"6.	c #DA0000",
"7.	c #DB2807",
"8.	c #9F5015",
"9.	c #6C7925",
"0.	c #7AAC3B",
"a.	c #635D1C",
"b.	c #A61E25",
"c.	c #F24548",
"d.	c #FA4A4D",
"e.	c #C7393D",
"f.	c #B71F24",
"g.	c #DC0003",
"h.	c #F22326",
"i.	c #F54749",
"j.	c #E3484A",
"k.	c #BC2729",
"l.	c #A90000",
"m.	c #BB0000",
"n.	c #D50000",
"o.	c #EE0000",
"p.	c #E60E13",
"q.	c #BD282B",
"r.	c #CA282B",
"s.	c #FD0D14",
"t.	c #F60000",
"u.	c #665D1A",
"v.	c #719831",
"w.	c #7CAE38",
"x.	c #7AAE38",
"y.	c #645C1B",
"z.	c #A60005",
"A.	c #F31B25",
"B.	c #FF363C",
"C.	c #F94A4D",
"D.	c #DB4347",
"E.	c #B81F25",
"F.	c #A90008",
"G.	c #B82225",
"H.	c #CE2427",
"I.	c #E5050D",
"J.	c #F30000",
"K.	c #EB0000",
"L.	c #D40000",
"M.	c #D02729",
"N.	c #E5484B",
"O.	c #FB484B",
"P.	c #FF262A",
"Q.	c #F50000",
"R.	c #A80000",
"S.	c #665C1A",
"T.	c #7AAC3C",
"U.	c #719731",
"V.	c #655B1A",
"W.	c #9B0000",
"X.	c #FF1926",
"Y.	c #FF4349",
"Z.	c #FA4349",
"`.	c #C71E27",
" +	c #9C0000",
".+	c #F80000",
"++	c #E20000",
"@+	c #B70000",
"#+	c #C32429",
"$+	c #F8474B",
"%+	c #FF474B",
"&+	c #FF242A",
"*+	c #675C1A",
"=+	c #7AAD3B",
"-+	c #739732",
";+	c #685C1B",
">+	c #E10008",
",+	c #FF0F27",
"'+	c #FF1527",
")+	c #FA000A",
"!+	c #DE0000",
"~+	c #B40000",
"{+	c #A50000",
"]+	c #C30000",
"^+	c #C40000",
"/+	c #A60000",
"(+	c #C50010",
"_+	c #FB2029",
":+	c #FF1F29",
"<+	c #E10013",
"[+	c #B60000",
"}+	c #840000",
"|+	c #6A5D1A",
"1+	c #749831",
"2+	c #769D34",
"3+	c #707926",
"4+	c #765016",
"5+	c #8D2B08",
"6+	c #BA0000",
"7+	c #FB0000",
"8+	c #E70008",
"9+	c #D01526",
"0+	c #C1242F",
"a+	c #BF272F",
"b+	c #C12830",
"c+	c #C12730",
"d+	c #C21D27",
"e+	c #C4000C",
"f+	c #8F2C08",
"g+	c #775116",
"h+	c #717925",
"i+	c #789E33",
"j+	c #79A838",
"k+	c #779D34",
"l+	c #76832A",
"m+	c #784F15",
"n+	c #BF0027",
"o+	c #E43D49",
"p+	c #F74C55",
"q+	c #F64F57",
"r+	c #F54F57",
"s+	c #F54E56",
"t+	c #F7404A",
"u+	c #FA0F26",
"v+	c #795015",
"w+	c #778429",
"x+	c #7AA937",
"y+	c #739A32",
"z+	c #64691C",
"A+	c #6E2400",
"B+	c #8E0000",
"C+	c #7E0000",
"D+	c #AE0028",
"E+	c #F4364A",
"F+	c #FF4856",
"G+	c #FF4B57",
"H+	c #FF4C57",
"I+	c #FF4B56",
"J+	c #FF3C4A",
"K+	c #FF0027",
"L+	c #E90000",
"M+	c #8A0000",
"N+	c #640001",
"O+	c #5E5E1D",
"P+	c #729931",
"Q+	c #7BAD38",
"R+	c #7CAF38",
"S+	c #6FA533",
"T+	c #549120",
"U+	c #526E09",
"V+	c #6E1C00",
"W+	c #800000",
"X+	c #8F0000",
"Y+	c #C1000E",
"Z+	c #FB0028",
"`+	c #FF0031",
" @	c #FF0030",
".@	c #FF0028",
"+@	c #E3000E",
"@@	c #BC0000",
"#@	c #960000",
"$@	c #680001",
"%@	c #293811",
"&@	c #407024",
"*@	c #6B9D33",
"=@	c #77AB39",
"-@	c #71A935",
";@	c #6AAD2D",
">@	c #64B31D",
",@	c #67A80B",
"'@	c #758900",
")@	c #835900",
"!@	c #950000",
"~@	c #FF0000",
"{@	c #FA0000",
"]@	c #805400",
"^@	c #657402",
"/@	c #3E8412",
"(@	c #3A8F21",
"_@	c #5C992E",
":@	c #6FA135",
"<@	c #78AA37",
"[@	c #71A735",
"}@	c #609F2B",
"|@	c #68AF1E",
"1@	c #84CD0F",
"2@	c #92D900",
"3@	c #95D200",
"4@	c #8FAF00",
"5@	c #885300",
"6@	c #CF0000",
"7@	c #C70000",
"8@	c #A40000",
"9@	c #814E00",
"0@	c #819E00",
"a@	c #7FBC00",
"b@	c #79BF05",
"c@	c #66AF14",
"d@	c #458B22",
"e@	c #55852C",
"f@	c #71A134",
"g@	c #71A635",
"h@	c #619C2B",
"i@	c #6AAA1F",
"j@	c #86C910",
"k@	c #96DD00",
"l@	c #9CE300",
"m@	c #96D000",
"n@	c #899900",
"o@	c #8C6600",
"p@	c #9B5B00",
"q@	c #9F4500",
"r@	c #830002",
"s@	c #670004",
"t@	c #610000",
"u@	c #734F00",
"v@	c #798100",
"w@	c #76AB04",
"x@	c #74BD08",
"y@	c #77BC08",
"z@	c #6BAB15",
"A@	c #4D8922",
"B@	c #55842D",
"C@	c #71A034",
"D@	c #72A635",
"E@	c #6EA52D",
"F@	c #6BA81E",
"G@	c #76B70D",
"H@	c #88CB03",
"I@	c #94D300",
"J@	c #97CD00",
"K@	c #97C400",
"L@	c #92B800",
"M@	c #819C02",
"N@	c #586311",
"O@	c #242317",
"P@	c #002618",
"Q@	c #3C6911",
"R@	c #739F04",
"S@	c #77A904",
"T@	c #549213",
"U@	c #368018",
"V@	c #3B7D18",
"W@	c #4E8621",
"X@	c #60932E",
"Y@	c #6F9F35",
"Z@	c #77A937",
"`@	c #7EB234",
" #	c #72A82C",
".#	c #569120",
"+#	c #4F8D14",
"@#	c #66A10F",
"##	c #77B40A",
"$#	c #84C408",
"%#	c #8DCF03",
"&#	c #90D600",
"*#	c #7FC603",
"=#	c #539C12",
"-#	c #007419",
";#	c #00671C",
">#	c #2B7F18",
",#	c #65A80F",
"'#	c #6BAB0E",
")#	c #508E16",
"!#	c #3D7818",
"~#	c #3E781A",
"{#	c #4D8121",
"]#	c #5F902E",
"^#	c #709E35",
"/#	c #78A937",
"(#	c #84BA26",
"_#	c #7AB01A",
":#	c #5A9217",
"<#	c #3A7718",
"[#	c #2A6819",
"}#	c #24671B",
"|#	c #377519",
"1#	c #66A114",
"2#	c #8FCF03",
"3#	c #97DA00",
"4#	c #82C504",
"5#	c #69AB0E",
"6#	c #4C9215",
"7#	c #397B18",
"8#	c #528C16",
"9#	c #70A80F",
"0#	c #7DB509",
"a#	c #7EB508",
"b#	c #72A415",
"c#	c #528122",
"d#	c #547E2D",
"e#	c #709E34",
"f#	c #7EB134",
"g#	c #85B92A",
"h#	c #8EC416",
"i#	c #8FC403",
"j#	c #86BB0E",
"k#	c #7AAC15",
"l#	c #6B9B18",
"m#	c #59871A",
"n#	c #497A19",
"o#	c #5C8F17",
"p#	c #7FB70E",
"q#	c #89C308",
"r#	c #7EB809",
"s#	c #74AF0A",
"t#	c #6CA70E",
"u#	c #589414",
"v#	c #2F6D1A",
"w#	c #4F8517",
"x#	c #87BE07",
"y#	c #9CD600",
"z#	c #9ED800",
"A#	c #8DC304",
"B#	c #6A9813",
"C#	c #558121",
"D#	c #628F2D",
"E#	c #6F9E34",
"F#	c #77A837",
"G#	c #7DB034",
"H#	c #83B726",
"I#	c #8DC116",
"J#	c #9AD007",
"K#	c #A8E000",
"L#	c #B7EF03",
"M#	c #BCF606",
"N#	c #B9F308",
"O#	c #ADE609",
"P#	c #99D009",
"Q#	c #7FB20F",
"R#	c #5E8E17",
"S#	c #417319",
"T#	c #3C7019",
"U#	c #568A14",
"V#	c #78AF0A",
"W#	c #78B00C",
"X#	c #5B9114",
"Y#	c #6A9E13",
"Z#	c #97CF03",
"`#	c #AAE400",
" $	c #AAE500",
".$	c #A0D900",
"+$	c #8DC104",
"@$	c #74A413",
"#$	c #557F21",
"$$	c #557E2C",
"%$	c #79AC39",
"&$	c #83B626",
"*$	c #8DC016",
"=$	c #9ACF07",
"-$	c #ABE300",
";$	c #C1FB00",
">$	c #CEFF00",
",$	c #D5FF00",
"'$	c #D0FF00",
")$	c #BFFB00",
"!$	c #A2D905",
"~$	c #6F9E14",
"{$	c #3F6D19",
"]$	c #38661A",
"^$	c #517F16",
"/$	c #70A20F",
"($	c #7BB00A",
"_$	c #78AE0F",
":$	c #86BC0A",
"<$	c #9ED600",
"[$	c #A5DE00",
"}$	c #9DD403",
"|$	c #93C707",
"1$	c #88BB08",
"2$	c #75A414",
"3$	c #83B72A",
"4$	c #8CC116",
"5$	c #9BD000",
"6$	c #ACE400",
"7$	c #BEF800",
"8$	c #CFFF00",
"9$	c #BEFA00",
"0$	c #A1D805",
"a$	c #8ABD08",
"b$	c #7EB109",
"c$	c #6D9D0F",
"d$	c #558216",
"e$	c #659314",
"f$	c #8EC109",
"g$	c #9ED700",
"h$	c #8FC304",
"i$	c #709D13",
"j$	c #577F18",
"k$	c #507918",
"l$	c #578121",
"m$	c #64912D",
"n$	c #82B526",
"o$	c #89BC16",
"p$	c #8FC30A",
"q$	c #9ED405",
"r$	c #B2EB04",
"s$	c #C0F903",
"t$	c #C4FF00",
"u$	c #BDF700",
"v$	c #B2EB00",
"w$	c #A2DA00",
"x$	c #82B409",
"y$	c #446E19",
"z$	c #527B18",
"A$	c #91C607",
"B$	c #A0D800",
"C$	c #8EC104",
"D$	c #719F13",
"E$	c #4A731F",
"F$	c #375324",
"G$	c #3B5A25",
"H$	c #537B2C",
"I$	c #79AC3A",
"J$	c #78AA2C",
"K$	c #6C9E1D",
"L$	c #6B9D12",
"M$	c #78AA12",
"N$	c #88BC0E",
"O$	c #9CD104",
"P$	c #B1E800",
"Q$	c #C5FF00",
"R$	c #C6FF00",
"S$	c #B3ED00",
"T$	c #8EC207",
"U$	c #4E7618",
"V$	c #4B7318",
"W$	c #87B908",
"X$	c #8EC204",
"Y$	c #6A9613",
"Z$	c #4B741F",
"`$	c #4F7728",
" %	c #5E872D",
".%	c #648F31",
"+%	c #6C9A34",
"@%	c #77A736",
"#%	c #79AB3A",
"$%	c #79AB3B",
"%%	c #72A435",
"&%	c #60922B",
"*%	c #528524",
"=%	c #518523",
"-%	c #5E901D",
";%	c #73A611",
">%	c #94C805",
",%	c #B2EA03",
"'%	c #B8F102",
")%	c #A7DF02",
"!%	c #85B80D",
"~%	c #48721A",
"{%	c #3B631B",
"]%	c #6D9B11",
"^%	c #72A112",
"/%	c #517A1F",
"(%	c #4B6C28",
"_%	c #638D2F",
":%	c #709F34",
"<%	c #75A636",
"[%	c #7AAC38",
"}%	c #77AA39",
"|%	c #71A435",
"1%	c #6C9E33",
"2%	c #699A32",
"3%	c #64952B",
"4%	c #61921E",
"5%	c #6B9D11",
"6%	c #7EB111",
"7%	c #83B611",
"8%	c #7BAE10",
"9%	c #639314",
"0%	c #325D1C",
"a%	c #10431D",
"b%	c #3D651A",
"c%	c #50791F",
"d%	c #57812A",
"e%	c #659130",
"f%	c #7AAC39",
"g%	c #7AAC3A",
"h%	c #78AA39",
"i%	c #6E9F34",
"j%	c #619129",
"k%	c #588A23",
"l%	c #588A21",
"m%	c #5A8C21",
"n%	c #5B8D20",
"o%	c #548322",
"p%	c #406A24",
"q%	c #3A5A25",
"r%	c #3C5F26",
"s%	c #4F752A",
"t%	c #679331",
"u%	c #73A335",
"v%	c #79AB38",
"w%	c #75A738",
"x%	c #6EA034",
"y%	c #699A31",
"z%	c #669530",
"A%	c #65942F",
"B%	c #66962F",
"C%	c #65932F",
"D%	c #628D2F",
"E%	c #638D30",
"F%	c #659031",
"G%	c #6B9933",
"H%	c #74A436",
"I%	c #79AC3B",
"J%	c #76A738",
"K%	c #74A537",
"L%	c #73A436",
"M%	c #74A536",
"N%	c #76A737",
"O%	c #78AB39",
"P%	c #78AB38",
"Q%	c #79AC38",
"R%	c #7AAB3B",
"S%	c #7BAD39",
"T%	c #7AAD38",
"U%	c #7AAB3A",
"V%	c #79AA3A",
"W%	c #79AB39",
"X%	c #7AAC37",
"Y%	c #79AA39",
"Z%	c #79AA38",
"`%	c #78A938",
" &	c #79AB37",
".&	c #77AA38",
"    . + + + + + + + + @ # $ $ $ $ $ $ $ $ $ % & & & & & & & & & & & & & * = = = = = = - - - - - - - - - - - - - - - - - - - = = ",
"    ; ; + + + + + + + @ > $ $ $ $ $ $ $ $ $ % % & & & & & & & & & & & & # = = = = = - - - - - - - - - - - - - - - - - - - - = = ",
"; ; ; ; ; ; ; ; , , , > > > > > > > > > > > # # # # # # # # # # @ @ @ # # # ' ' . . . . . . . . . . . . . . . . . . . . ) ) - - ",
"; ; ; ; ; ; ; ; , , , , > > > > > > > > > @ # # # # # # # # # # @ @ @ @ # # ' ' . . . . . . . . . . . . . . . . . . . . ) ) - - ",
"+ ! + + + + + + ! ! ! ! ! ! ! ! ! ! + + + + ' ~ ~ ~ ~ ~ ~ ~ ~ ~ + + + + + + + + + +                                     . . - - ",
"+ ! + + + + + + ! ! ! ! ! ! ! ! ! ! + + + + ~ ~ ~ ~ ~ ~ ~ ~ ~ ~ + + + + + + + + + +                                     . . - - ",
"+ ! + + + + + + ! ! ! ! ! ! ! ! ! ! + + + + ~ ~ ~ ~ ~ ~ ~ ~ ~ ~ + + + + + + + + + +                                     . . - - ",
"+ ! + + + + + + ! ! ! ! ! ! ! ! ! ! + + + + ~ ~ ~ ~ ~ ~ ~ ~ ~ ~ + + + + + + + + + +                                     . . - - ",
"+ + + + + + + + ! ! ! ! ! ! ; ; ! ! ! ! ! @ ~ ~ ~ ~ ~ ~ ~ ~ ~ ~ + + + + + + + + + + + + + +     + +     + + + + + + + + ' ' - - ",
"+ + + + + + + + ! ! ! ! ! + ; ; + ! ! ! ! @ { ~ ~ ~ ~ ~ ~ ~ ~ ~ + + + + + + + + + + + + + +     + +     + + + + + + + + ' ' - - ",
"+ + + + + + + + ! ! ! ! ! + ; ; + ! ! ! ! @ { ~ ~ ~ ~ ~ ~ ~ ~ ~ + + + + + + + + + + + + + +     + +     + + + + + + + + ' ' - - ",
"+ + + + + + + + ! ! ! ! ! ! ; ; ! ! ! ! ! ! { ~ ~ ~ ~ ~ ~ ~ ~ ~ + + + + + + + + + + + + + +     + +     + + + + + + + + ' . ] - ",
"; ; ; ; ; ; ; ; ; ; ; ; ! ! + + + + + ! ! ! ! ! ! ! ! ! ! + + + + ~ ~ ~ ~ ~ ~ ~ ~ ~ ~ + + + + +         + + + + + + + + ; . . ^ ",
"; ; ; ; ; ; ; ; ; ; ; ; ! ! + + + + + ! ! ! ! ! ! ! ! ! ! + + + + ~ ~ ~ ~ ~ ~ ~ ~ ~ ~ + + + + +         + + + + + + + + ; ; ^ ^ ",
"/ / / / / / / / / / / ; ! ! ! ! + + + ! ! ! ! ! ! ; ; ! ! ! ! ! @ ~ ~ ~ ~ ~ ~ ~ ~ ~ ~ + + + + +         + + + + + + + + ; ; / / ",
"/ / / / / / / / / / / ; , ! ! ! + + + ! ! ! ! ! + ; ; + ! ! ! ! @ { ~ ~ ~ ~ ~ ~ ~ ~ ~ + + + + +         + + + + + + + + ; ; / / ",
"/ / / / / / / / / / / ; , ! ! ! + + + ! ! ! ! ! ( _ : < [ } | 1 2 3 4 5 6 7 8 9 ~ ~ ~ + + + + +         + + + + + + + + ; ; / / ",
"/ / / / / / / / / / / ; ! ! ! ! + + + ! ! ! ! ! 0 a b c d e f f g h i j k l m 8 ~ ~ ~ + + + + +         + + + + + + + + ; ; ; / ",
", , , , , , , , , , , , ! ! ! ! ; ; ; ; ; ; n o p q r s t u v w w x y z A B C D E F + + + + + + + + + + + + + + + + + + + ; , ; ",
", , , , , , , , , , , , ! ! ! ! ; ; ; ; ; ; G H I J K L u M N v v O N P Q R S T U V + + + + + + + + + + + + + + + + + + + + , ; ",
", , , , , , , , , , , , ! ! ! ! / / / / W X Y Z `  ...+.@.#.$.%.&.*.=.-.;.>.,.>.'.).V ( + + + + + + + + + + + + + + + + + + , ; ",
", , , , , , , , , , , , ! ! ! ! / / / / !.~.{.].^./.(._.:.<.[.}.|.1.2.3.4.5.>.6.7.8.9.E + + + + + + + + + + + + + + + + + + , ; ",
"0.0., , , , , , , , , , , , , , / / / / : a.b.c.d.e.f.g.h.i.j.k.l.m.n.o.p.q.r.s.t.l.u.v.+ + + + w.w.w.w.~ ~ ~ ~ x.x.x.x.@ @ + ; ",
"0.0., , , , , , , , , , , , , , / / / / : y.z.A.B.C.D.E.F.G.H.I.J.t.K.L.M.N.O.P.Q.R.S.v.+ + + + w.w.w.w.~ ~ ~ ~ x.x.x.x.@ @ + + ",
"T.0., , , , , , , , , , , , , , , , , , U.V.W.4.X.Y.Z.`. +,.P *..+.+++@+#+$+%+&+4. +*+< + + + + w.w.w.w.~ ~ ~ ~ x.x.x.x.x.x.+ + ",
"T.0.=+, , , , , , , , , , , , , , , , , -+;+|.u >+,+'+)+!+~+{+y ]+^+P /+(+_+:+<+[+}+|+1++ + + + w.w.w.w.~ ~ ~ ~ x.x.x.x.x.x.+ + ",
"T.0.=+, , , , , , , , , , , , , , , , , 2+3+4+5+6+O 7+t.8+9+0+a+b+c+d+e+2.3.O 6+f+g+h+i++ + + + w.w.w.w.~ ~ ~ ~ x.x.x.x.x.x.+ + ",
"T.0.=+, , , , , , , , , , , , , , , , , j+k+l+m+Q y x 1.n+o+p+q+r+s+t+u+3.-.y R v+w+i+x++ + + + w.w.w.w.~ ~ ~ ~ x.x.x.x.x.x.+ + ",
"T.0.=+, , , , , , , , , , , , , , , , , , , y+z+A+t B+C+D+E+F+G+H+I+J+K+L+6+M+N+O+P++ w.w.w.w.w.Q+{ w.R+~ ~ ~ ~ x.x.x.x.x.x.+ + ",
"T.T.=+, , , , , , , , , , , , , , , , , , , S+T+U+V+W+X+Y+Z+`+ @ @`+.@+@@@#@$@%@&@*@+ w.w.w.w.w.Q+{ w.R+~ ~ ~ ~ x.x.x.x.x.x.+ + ",
"T.0.=+, , , , , , , , , , , , , , , , , =@-@;@>@,@'@)@!@@@K.~@~@~@{@M 6+Q ]@^@/@(@_@:@<@w.w.w.w.Q+{ w.R+~ ~ ~ ~ x.x.x.x.x.x.+ + ",
"0.0., , , , , , , , , , , , , , , , , , [@}@|@1@2@3@4@5@W.v 6@6@7@P 8@B+9@0@a@b@c@d@e@f@w.w.w.w.Q+{ w.R+~ ~ ~ { { x.x.x.x.x.+ + ",
"=+, , , , , , , , , , , , , , , , , , , g@h@i@j@k@l@m@n@o@p@q@#@r@s@t@u@v@w@x@y@z@A@B@C@w.w.w.w.w.w.w.w.w.w.w.{ { Q+Q+Q+Q+Q+! ! ",
", , , , , , , , , , , , , , , , , , , , =@D@E@F@G@H@I@J@K@L@M@N@O@P@Q@R@S@T@U@V@W@X@Y@Z@w.w.w.w.w.w.w.w.w.w.w.w.Q+Q+Q+Q+Q+Q+! ! ",
", , , , , , , , , , , , , , , , , , , , R+`@ #.#+#@###$#%#&#*#=#-#;#>#,#'#)#!#~#{#]#^#/#Q+Q+Q+Q+w.w.w.w.w.w.w.w.Q+Q+Q+Q+Q+Q+! ! ",
", , , , , , , , , , , , , , , , , , , , `@(#_#:#<#[#}#|#1#2#3#4#5#6#U@7#8#9#0#a#b#c#d#e#Q+Q+Q+Q+w.w.w.w.w.w.w.w.Q+Q+Q+Q+Q+Q+! ! ",
", , , , , , , , , , , , , , , , , , { f#g#h#i#j#k#l#m#n#o#p#q#r#s#t#u#v#w#x#y#z#A#B#C#D#E#F#Q+Q+w.w.Q+Q+w.w.w.w.Q+Q+Q+Q+Q+Q+! ! ",
", , , , , , , , , , , , , , , , , , G#H#I#J#K#L#M#N#O#P#Q#R#S#T#U#V#W#X#Y#Z#`# $.$+$@$#$$$e#Q+Q+w.w.Q+Q+w.w.w.w.Q+Q+Q+Q+Q+Q+! ! ",
", , %$%$%$%$%$%$%$%$%$%$, , , , , , G#&$*$=$-$;$>$,$'$)$!$~${$]$^$/$($_$:$<$[$}$|$1$2$C#$$e#Q+Q+Q+Q+Q+Q+Q+Q+Q+Q+Q+Q+Q+Q+Q+Q+! ! ",
", , %$%$%$%$%$%$%$%$%$%$, , , , , , { G#3$4$5$6$7$8$,$'$9$0$a$b$c$d$e$f$g$<$h$i$j$k$l$m$E#F#Q+Q+Q+Q+Q+Q+Q+Q+Q+Q+Q+Q+Q+Q+Q+Q+! ! ",
", , %$%$%$%$%$%$%$%$%$%$, , , , , , , , G#n$o$p$q$r$s$t$t$u$v$w$x$y$z$A$B$C$D$E$F$G$H$E#Q+Q+Q+Q+Q+Q+Q+Q+Q+Q+Q+Q+Q+Q+Q+Q+Q+Q+! ! ",
", , %$%$%$I$I$I$I$I$I$I$, , , , , , , , { G#J$K$L$M$N$O$P$Q$R$S$T$U$V$W$X$Y$Z$`$ %.%+%@%Q+Q+Q+Q+Q+Q+Q+Q+Q+Q+Q+Q+Q+Q+Q+Q+Q+Q+! ! ",
"%$%$I$I$#%#%#%$%0.0.0.0.I$%$%$%$, , , , , , %%&%*%=%-%;%>%,%'%)%!%~%{%]%^%/%(%_%:%<%n [%Q+Q+Q+Q+Q+Q+Q+Q+Q+Q+Q+Q+Q+Q+Q+Q+Q+Q+! ! ",
"%$%$I$I$$%$%$%$%T.T.T.0.I$%$%$%$, , , , , , }%|%1%2%3%4%5%6%7%8%9%0%a%b%c%d%e%E#<%n f%Q+Q+Q+Q+Q+Q+Q+Q+Q+Q+Q+Q+Q+Q+Q+Q+Q+Q+Q+! ! ",
"%$%$#%#%$%$%$%$%T.T.T.0.I$I$%$%$%$%$%$%$%$%$%$, g%h%i%j%k%l%m%n%o%p%q%r%s%t%u%F#v%%$! Q+Q+Q+Q+Q+Q+Q+Q+Q+Q+Q+Q+Q+Q+Q+Q+Q+Q+Q+! ! ",
"%$%$#%#%$%$%$%$%T.T.T.0.I$I$%$%$%$%$%$%$%$%$%$, , , w%x%y%z%A%B%C%D%E%F%G%H%n [%! ! ! Q+Q+Q+Q+Q+Q+Q+Q+Q+Q+Q+Q+Q+Q+Q+Q+Q+Q+Q+! ! ",
"%$%$#%#%$%$%$%$%$%$%I%I%I$I$%$%$%$%$%$%$%$%$%$, , , I$h%J%K%L%L%L%L%M%N%n %$! + + ! ! Q+Q+Q+Q+Q+Q+Q+Q+Q+w.w.w.w.Q+Q+Q+Q+Q+Q+! ! ",
"%$%$#%#%$%$%$%$%$%$%I%I%I$I$%$%$I$I$I$I$I$I$I$, , , , g%I$O%O%O%O%P%P%%$f%! ! + + ! ! Q+Q+Q+Q+Q+Q+Q+Q+Q+w.w.w.w.Q+Q+Q+Q+Q+Q+! ! ",
"%$%$#%#%$%$%$%$%$%$%$%$%I$I$%$%$%$%$%$%$%$%$Q%Q%Q%Q%Q%Q%! ! ! ! Q+Q+Q+Q+Q+Q+Q+Q+Q+Q+Q+Q+Q+Q+Q+Q+Q+Q+Q+Q+w.w.w.w.Q+Q+Q+Q+Q+Q+! ! ",
"%$%$#%#%$%$%$%$%$%$%$%$%I$I$%$%$%$%$%$%$%$%$Q%Q%Q%Q%Q%Q%! ! ! ! Q+Q+Q+Q+Q+Q+Q+Q+Q+Q+Q+Q+Q+Q+Q+Q+Q+Q+Q+Q+w.w.w.w.Q+Q+Q+Q+Q+Q+! ! ",
"%$%$#%#%$%$%$%$%$%$%$%$%I$I$%$%$%$%$%$%$%$%$Q%Q%Q%Q%Q%Q%! ! ! ! Q+Q+Q+Q+Q+Q+Q+Q+Q+Q+Q+Q+Q+Q+Q+Q+Q+Q+Q+Q+w.w.w.w.Q+Q+Q+Q+Q+Q+! ! ",
"I$I$#%#%$%$%$%$%$%$%$%$%I$I$%$%$%$%$%$%$%$%$Q%Q%Q%Q%Q%Q%! ! ! ! Q+Q+Q+Q+Q+Q+Q+Q+Q+Q+Q+Q+Q+Q+Q+Q+Q+Q+Q+Q+w.w.w.w.Q+Q+Q+Q+Q+Q+! ! ",
"#%$%R%R%R%R%R%R%R%R%R%R%I$I$%$%$%$%$P%P%P%P%Q%Q%Q%Q%Q%Q%Q%Q%Q%[%Q+Q+Q+Q+Q+Q+Q+Q+Q+Q+Q+Q+Q+Q+Q+Q+Q+Q+Q+Q+Q+Q+Q+Q+w.w.Q+Q+[%[%S%S%",
"$%$%R%R%R%R%R%R%R%R%R%R%I$I$%$%$%$%$P%P%P%P%Q%Q%Q%Q%Q%Q%Q%Q%Q%[%T%Q+Q+Q+Q+Q+Q+Q+Q+Q+Q+Q+Q+Q+Q+Q+Q+Q+Q+Q+Q+Q+Q+Q+w.w.Q+Q+[%[%S%S%",
"$%$%R%R%R%R%R%R%R%R%R%R%I$I$%$%$%$%$P%P%P%P%Q%Q%Q%Q%Q%Q%Q%Q%Q%[%T%Q+Q+Q+Q+Q+Q+Q+Q+Q+Q+Q+Q+Q+Q+Q+Q+Q+Q+Q+Q+Q+Q+Q+w.w.Q+Q+[%[%S%S%",
"$%$%R%R%R%R%R%R%R%R%R%U%#%%$%$%$%$%$P%P%P%P%Q%Q%Q%Q%Q%Q%Q%Q%Q%Q%T%Q+Q+Q+Q+Q+Q+Q+Q+Q+Q+Q+Q+Q+Q+Q+Q+Q+Q+Q+Q+Q+Q+Q+w.w.Q+Q+[%[%S%S%",
"$%$%$%$%V%V%V%V%V%V%V%#%#%W%O%P%P%P%P%P%P%P%Q%Q%Q%Q%Q%Q%Q%Q%Q%Q%X%X%X%X%Q+Q+Q+Q+Q+Q+X%X%X%X%Q+Q+Q+Q+Q+Q+Q+Q+Q+Q+Q+Q+Q+Q+Q+Q+S%S%",
"$%$%$%$%V%V%V%V%V%V%V%V%W%W%P%P%P%P%P%P%P%P%Q%Q%Q%Q%Q%Q%Q%Q%Q%Q%X%X%X%X%Q+Q+Q+Q+Q+Q+X%X%X%X%Q+Q+Q+Q+Q+Q+Q+Q+Q+Q+Q+Q+Q+Q+Q+Q+S%S%",
"$%$%V%V%V%V%V%V%V%V%V%V%O%O%P%P%P%P%P%P%P%P%Q%Q%Q%Q%Q%Q%Q%Q%Q%Q%X%X%X%X%Q+Q+Q+Q+Q+Q+X%X%X%X%Q+Q+Q+Q+Q+Q+Q+Q+Q+Q+Q+Q+Q+Q+Q+Q+S%S%",
"$%$%V%V%V%V%V%V%V%V%V%V%O%O%P%P%P%P%P%P%P%P%Q%Q%Q%Q%Q%Q%Q%Q%Q%Q%X%X%X%X%Q+Q+Q+Q+Q+Q+X%X%X%X%Q+Q+Q+Q+Q+Q+Q+Q+Q+Q+Q+Q+Q+Q+Q+Q+S%S%",
"#%#%V%V%Y%Y%Y%Y%V%V%V%V%O%P%P%P%P%P%P%P%P%P%Q%Q%Q%Q%Q%Q%Q%Q%Q%Q%X%X%X%X%X%X%Q+Q+Q+Q+X%X%X%X%Q+Q+Q+Q+Q+Q+Q+Q+Q+Q+Q+Q+Q+Q+Q+Q+S%S%",
"O%Y%Y%Y%Y%Z%Z%Y%Y%V%Y%Y%P%P%P%P%P%P%P%P%P%P%Q%Q%Q%Q%Q%Q%Q%Q%Q%Q%X%X%X%X%X%X%Q+Q+Q+Q+X%X%X%X%Q+Q+Q+Q+Q+Q+Q+Q+Q+Q+Q+Q+Q+Q+Q+Q+Q+Q+",
"h%n n `%`%`%`%`%Z%Y%Y%Z%v% & & & & & & & & &Q%Q%Q%Q%Q%Q%Q%Q%Q%Q%X%X%X%X%X%X%X%X%X%X%X%X%X%X%X%X%X%X%X%X%X%X%X%X%X%X%X%X%X%X%X%[%",
".&.&/#/#/#/#/#/#Z%Z%Z%Z% & & & & & & & & & &Q%Q%Q%Q%Q%Q%Q%Q%Q%Q%X%X%X%X%X%X%X%X%X%X%X%X%X%X%X%X%X%X%X%X%X%X%X%X%X%X%X%X%X%X%X%X%"};
