/* XPM */
static char * empty_xpm[] = {
"64 64 54 1",
" 	c #7CAF3A",
".	c #7BAF3A",
"+	c #7BAE39",
"@	c #7AAE39",
"#	c #7AAF39",
"$	c #79AF3A",
"%	c #79AF39",
"&	c #79AF38",
"*	c #7AB038",
"=	c #7AB039",
"-	c #7AB03A",
";	c #7BAE3A",
">	c #7AAE3A",
",	c #7AAD3A",
"'	c #7BAF39",
")	c #7BB03A",
"!	c #7AAD39",
"~	c #7BAF38",
"{	c #7BAE38",
"]	c #7AAF3A",
"^	c #7BAF3B",
"/	c #7BAE3B",
"(	c #7AAC3B",
"_	c #7CAE38",
":	c #7AAE38",
"<	c #7AAC3C",
"[	c #7AAD3B",
"}	c #7BAD39",
"|	c #7BAD38",
"1	c #7CAF38",
"2	c #79AC39",
"3	c #79AC3A",
"4	c #79AB3A",
"5	c #79AB3B",
"6	c #79AC3B",
"7	c #79AC38",
"8	c #7AAB3B",
"9	c #78AB38",
"0	c #7AAC38",
"a	c #7AAD38",
"b	c #7AAB3A",
"c	c #79AA3A",
"d	c #79AB39",
"e	c #78AB39",
"f	c #7AAC37",
"g	c #79AA39",
"h	c #79AA38",
"i	c #78AA39",
"j	c #78AA38",
"k	c #78A938",
"l	c #79AB38",
"m	c #79AB37",
"n	c #77AA38",
"o	c #78A937",
"  .++++++++@#$$$$$$$$$%&&&&&&&&&&&&&*======-------------------==",
"  ;;+++++++@>$$$$$$$$$%%&&&&&&&&&&&&#=====--------------------==",
";;;;;;;;,,,>>>>>>>>>>>##########@@@###''....................))--",
";;;;;;;;,,,,>>>>>>>>>@##########@@@@##''....................))--",
"+!++++++!!!!!!!!!!++++'~~~~~~~~~++++++++++                  ..--",
"+!++++++!!!!!!!!!!++++~~~~~~~~~~++++++++++                  ..--",
"+!++++++!!!!!!!!!!++++~~~~~~~~~~++++++++++                  ..--",
"+!++++++!!!!!!!!!!++++~~~~~~~~~~++++++++++                  ..--",
"++++++++!!!!!!;;!!!!!@~~~~~~~~~~++++++++++++++  ++  ++++++++''--",
"++++++++!!!!!+;;+!!!!@{~~~~~~~~~++++++++++++++  ++  ++++++++''--",
"++++++++!!!!!+;;+!!!!@{~~~~~~~~~++++++++++++++  ++  ++++++++''--",
"++++++++!!!!!!;;!!!!!!{~~~~~~~~~++++++++++++++  ++  ++++++++'.]-",
";;;;;;;;;;;;!!++!!!!!!++++++++++++++++++++++++      ++++++++;..^",
";;;;;;;;;;;;!!++!!!!!!++++++++++++++++++++++++      ++++++++;;^^",
"///////////;!!!!!!!!!!++++++++++++++++++++++++      ++++++++;;//",
"///////////;,!!!!!!!!!++++++++++++++++++++++++      ++++++++;;//",
"///////////;,!!!!!!!!!++++++++++++++++++++++++      ++++++++;;//",
"///////////;!!!!!!!!!!++++++++++++++++++++++++      ++++++++;;;/",
",,,,,,,,,,,,!!!!!!!!!!+++++++++++++++++++++++++++++++++++++++;,;",
",,,,,,,,,,,,!!!!!!!!!!++++++++++++++++++++++++++++++++++++++++,;",
",,,,,,,,,,,,!!!!!!!!!!++++++++++++++++++++++++++++++++++++++++,;",
",,,,,,,,,,,,!!!!!!!!!!++++++++++++++++++++++++++++++++++++++++,;",
"((,,,,,,,,,,,,,,,,,,,,++++++++++____________________~~~~::::@@+;",
"((,,,,,,,,,,,,,,,,,,,,++++++++++____________________~~~~::::@@++",
"<(,,,,,,,,,,,,,,,,,,,,++++++++++____________________~~~~::::::++",
"<([,,,,,,,,,,,,,,,,,,,++++++++++____________________~~~~::::::++",
"<([,,,,,,,,,,,,,,,,,,,++++++++++____________________~~~~::::::++",
"<([,,,,,,,,,,,,,,,,,,,++++++++++{___________________~~~~::::::++",
"<([,,,,,,,,,,,,,,,,,,,++++++!!!}||||||||||______|{_1~~~~::::::++",
"<<[,,,,,,,,,,,,,,,,,,,++++++!!!!||||||||||______|{_1~~~~::::::++",
"<([,,,,,,,,,,,,,,,,,,,++++++!!!!||||||||||______|{_1~~~~::::::++",
"((,,,,,,,,,,,,,,,,,,,,++++++!!!!||||||||||______|{_1~~~{{:::::++",
"[,,,,,,,,,,,,,,,,,,,,,!!!!!!!!!!||||||||||||||_________{{|||||!!",
",,,,,,,,,,,,,,,,,,,,,,!!!!!!!!!!||||||||||||||__________||||||!!",
",,,,,,,,,,,,,,,,,,,,,,!!!!!!!!!!||||||||||||||__________||||||!!",
",,,,,,,,,,,,,,,,,,,,,,!!!!!!!!!!||||||||||||||__________||||||!!",
",,,,,,,,,,,,,,,,,,,,,,!!!!!!!!!!||||||||||||||||__||____||||||!!",
",,,,,,,,,,,,,,,,,,,,,,!!!!!!!!!!||||||||||||||||__||____||||||!!",
",,2222222222,,,,,,,,,,!!!!!!++!!||||||||||||||||||||||||||||||!!",
",,2222222222,,,,,,,,,,!!!!!!++!!||||||||||||||||||||||||||||||!!",
",,2222222222,,,,,,,,,,!!!!!!++!!||||||||||||||||||||||||||||||!!",
",,2223333333,,,,,,,,,,!!!!!!++!!||||||||||||||||||||||||||||||!!",
"22334445((((322222,,,,!!!!!!!!!!||||||||||||||||||||||||||||||!!",
"22335555<<<(322222,,,,!!!!!!!!!!||||||||||||||||||||||||||||||!!",
"22445555<<<(332222,,,,!!!!!!!!!!||||||||||||||||||||||||||||||!!",
"22445555<<<(332222,,,,!!!!!!!!!!||||||||||||||||||||||||||||||!!",
"22445555556633222222222277!!!!!!||||||||||||||||||||____||||||!!",
"22445555556633222222222277!!!!!!||||||||||||||||||||____||||||!!",
"2244555555553322222222777777!!!!||||||||||||||||||||____||||||!!",
"2244555555553322222222777777!!!!||||||||||||||||||||____||||||!!",
"2244555555553322222222777777!!!!||||||||||||||||||||____||||||!!",
"3344555555553322222222777777!!!!||||||||||||||||||||____||||||!!",
"45888888888833222299997777777770||||||||||||||||||||||||__||00}}",
"55888888888833222299997777777770a|||||||||||||||||||||||__||00}}",
"55888888888833222299997777777770a|||||||||||||||||||||||__||00}}",
"55888888888b42222299997777777777a|||||||||||||||||||||||__||00}}",
"5555ccccccc44de99999997777777777ffff||||||ffff||||||||||||||||}}",
"5555ccccccccdd999999997777777777ffff||||||ffff||||||||||||||||}}",
"55ccccccccccee999999997777777777ffff||||||ffff||||||||||||||||}}",
"55ccccccccccee999999997777777777ffff||||||ffff||||||||||||||||}}",
"44ccggggcccce9999999997777777777ffffff||||ffff||||||||||||||||}}",
"egggghhggcgg99999999997777777777ffffff||||ffff||||||||||||||||||",
"ijjkkkkkhgghlmmmmmmmmm7777777777fffffffffffffffffffffffffffffff0",
"nnoooooohhhhmmmmmmmmmm7777777777ffffffffffffffffffffffffffffffff"};
