/* XPM */
static char * heart_xpm[] = {
"64 64 207 2",
"  	c #7CAF3A",
". 	c #7BAF3A",
"+ 	c #7BAE39",
"@ 	c #7AAE39",
"# 	c #7AAF39",
"$ 	c #79AF3A",
"% 	c #79AF39",
"& 	c #79AF38",
"* 	c #7AB038",
"= 	c #7AB039",
"- 	c #7AB03A",
"; 	c #7BAE3A",
"> 	c #7AAE3A",
", 	c #7AAD3A",
"' 	c #7BAF39",
") 	c #7BB03A",
"! 	c #7AAD39",
"~ 	c #7BAF38",
"{ 	c #7BAE38",
"] 	c #7AAF3A",
"^ 	c #7BAF3B",
"/ 	c #7BAE3B",
"( 	c #000000",
"_ 	c #262626",
": 	c #828282",
"< 	c #B20000",
"[ 	c #AE1A1A",
"} 	c #B17A7A",
"| 	c #AD0000",
"1 	c #A50000",
"2 	c #A95F5F",
"3 	c #9A0000",
"4 	c #FF0000",
"5 	c #F70000",
"6 	c #2F0000",
"7 	c #111111",
"8 	c #C50000",
"9 	c #E90000",
"0 	c #CD0000",
"a 	c #666666",
"b 	c #980000",
"c 	c #C11919",
"d 	c #FF2C2C",
"e 	c #FF4B4B",
"f 	c #FF8080",
"g 	c #FF7A7A",
"h 	c #FF2B2B",
"i 	c #FA2C2C",
"j 	c #9D0303",
"k 	c #980C0C",
"l 	c #D90000",
"m 	c #F90000",
"n 	c #F00000",
"o 	c #DD0000",
"p 	c #920000",
"q 	c #9F5555",
"r 	c #B10000",
"s 	c #FF2E2E",
"t 	c #FF5050",
"u 	c #FF7F7F",
"v 	c #FFD1D1",
"w 	c #FFC6C6",
"x 	c #FF4E4E",
"y 	c #FF0A0A",
"z 	c #FE0000",
"A 	c #540000",
"B 	c #D70000",
"C 	c #E00000",
"D 	c #2E2E2E",
"E 	c #730000",
"F 	c #C21515",
"G 	c #FF2222",
"H 	c #FF7676",
"I 	c #FF8E8E",
"J 	c #FFC1C1",
"K 	c #FFB8B8",
"L 	c #FF4848",
"M 	c #FF0808",
"N 	c #880000",
"O 	c #DE0000",
"P 	c #FA0000",
"Q 	c #E10000",
"R 	c #5B0000",
"S 	c #632828",
"T 	c #7AAC3B",
"U 	c #C40000",
"V 	c #FF3535",
"W 	c #FF9090",
"X 	c #FFBFBF",
"Y 	c #E50000",
"Z 	c #C60000",
"` 	c #0B0000",
" .	c #7CAE38",
"..	c #7AAE38",
"+.	c #FF3C3C",
"@.	c #FF5A5A",
"#.	c #FFCFCF",
"$.	c #FFBBBB",
"%.	c #0E0000",
"&.	c #7AAC3C",
"*.	c #FF9595",
"=.	c #FFD2D2",
"-.	c #FFB2B2",
";.	c #FF1212",
">.	c #FF0E0E",
",.	c #7AAD3B",
"'.	c #FF9393",
").	c #FFAFAF",
"!.	c #FF4545",
"~.	c #FF6464",
"{.	c #FF5454",
"].	c #FF4242",
"^.	c #FF1818",
"/.	c #FF2424",
"(.	c #FF1D1D",
"_.	c #7BAD38",
":.	c #7CAF38",
"<.	c #990000",
"[.	c #CE0000",
"}.	c #F20000",
"|.	c #EB0000",
"1.	c #D30000",
"2.	c #CC0000",
"3.	c #780000",
"4.	c #7E2323",
"5.	c #BC0000",
"6.	c #BD0000",
"7.	c #2D2D2D",
"8.	c #C70000",
"9.	c #DB0000",
"0.	c #FB0000",
"a.	c #F60000",
"b.	c #EC0000",
"c.	c #DC0000",
"d.	c #D00000",
"e.	c #9F0000",
"f.	c #A13F3F",
"g.	c #F50000",
"h.	c #B00000",
"i.	c #FC0000",
"j.	c #EF0000",
"k.	c #D10000",
"l.	c #AE0000",
"m.	c #A43E3E",
"n.	c #7D0000",
"o.	c #A40000",
"p.	c #79AC39",
"q.	c #616161",
"r.	c #8F5757",
"s.	c #F10000",
"t.	c #FD0000",
"u.	c #E60000",
"v.	c #D50000",
"w.	c #BE0000",
"x.	c #A83E3E",
"y.	c #520000",
"z.	c #940000",
"A.	c #1E1E1E",
"B.	c #581C1C",
"C.	c #D60000",
"D.	c #961212",
"E.	c #79AC3A",
"F.	c #250000",
"G.	c #460000",
"H.	c #EA0000",
"I.	c #D20000",
"J.	c #1F0000",
"K.	c #79AB3A",
"L.	c #79AB3B",
"M.	c #3B0202",
"N.	c #860101",
"O.	c #020202",
"P.	c #702727",
"Q.	c #6D0000",
"R.	c #E30000",
"S.	c #ED0000",
"T.	c #8A0000",
"U.	c #550000",
"V.	c #282828",
"W.	c #130000",
"X.	c #770000",
"Y.	c #8B4141",
"Z.	c #840000",
"`.	c #740000",
" +	c #700000",
".+	c #79AC3B",
"++	c #79AC38",
"@+	c #4E4E4E",
"#+	c #7AAB3B",
"$+	c #78AB38",
"%+	c #7AAC38",
"&+	c #7BAD39",
"*+	c #7AAD38",
"=+	c #7AAB3A",
"-+	c #79AA3A",
";+	c #79AB39",
">+	c #78AB39",
",+	c #7AAC37",
"'+	c #79AA39",
")+	c #79AA38",
"!+	c #78AA39",
"~+	c #78AA38",
"{+	c #78A938",
"]+	c #79AB38",
"^+	c #79AB37",
"/+	c #77AA38",
"(+	c #78A937",
"    . + + + + + + + + @ # $ $ $ $ $ $ $ $ $ % & & & & & & & & & & & & & * = = = = = = - - - - - - - - - - - - - - - - - - - = = ",
"    ; ; + + + + + + + @ > $ $ $ $ $ $ $ $ $ % % & & & & & & & & & & & & # = = = = = - - - - - - - - - - - - - - - - - - - - = = ",
"; ; ; ; ; ; ; ; , , , > > > > > > > > > > > # # # # # # # # # # @ @ @ # # # ' ' . . . . . . . . . . . . . . . . . . . . ) ) - - ",
"; ; ; ; ; ; ; ; , , , , > > > > > > > > > @ # # # # # # # # # # @ @ @ @ # # ' ' . . . . . . . . . . . . . . . . . . . . ) ) - - ",
"+ ! + + + + + + ! ! ! ! ! ! ! ! ! ! + + + + ' ~ ~ ~ ~ ~ ~ ~ ~ ~ + + + + + + + + + +                                     . . - - ",
"+ ! + + + + + + ! ! ! ! ! ! ! ! ! ! + + + + ~ ~ ~ ~ ~ ~ ~ ~ ~ ~ + + + + + + + + + +                                     . . - - ",
"+ ! + + + + + + ! ! ! ! ! ! ! ! ! ! + + + + ~ ~ ~ ~ ~ ~ ~ ~ ~ ~ + + + + + + + + + +                                     . . - - ",
"+ ! + + + + + + ! ! ! ! ! ! ! ! ! ! + + + + ~ ~ ~ ~ ~ ~ ~ ~ ~ ~ + + + + + + + + + +                                     . . - - ",
"+ + + + + + + + ! ! ! ! ! ! ; ; ! ! ! ! ! @ ~ ~ ~ ~ ~ ~ ~ ~ ~ ~ + + + + + + + + + + + + + +     + +     + + + + + + + + ' ' - - ",
"+ + + + + + + + ! ! ! ! ! + ; ; + ! ! ! ! @ { ~ ~ ~ ~ ~ ~ ~ ~ ~ + + + + + + + + + + + + + +     + +     + + + + + + + + ' ' - - ",
"+ + + + + + + + ! ! ! ! ! + ; ; + ! ! ! ! @ { ~ ~ ~ ~ ~ ~ ~ ~ ~ + + + + + + + + + + + + + +     + +     + + + + + + + + ' ' - - ",
"+ + + + + + + + ! ! ! ! ! ! ; ; ! ! ! ! ! ! { ~ ~ ~ ~ ~ ~ ~ ~ ~ + + + + + + + + + + + + + +     + +     + + + + + + + + ' . ] - ",
"; ; ; ; ; ; ; ; ; ; ; ; ! ! + + ! ! ! ! ! ! + + + + + + + + + + + + + + + + + + + + + + + +             + + + + + + + + ; . . ^ ",
"; ; ; ; ; ; ; ; ; ; ; ; ! ! + + ! ! ! ! ! ! + + + + + + + + + + + + + + + + + + + + + + + +             + + + + + + + + ; ; ^ ^ ",
"/ / / / / / / / / / / ; ! ! ! ! ! ! ! ! ! ! + + + + + + + + + + + + + + + + + + + + + + + +             + + + + + + + + ; ; / / ",
"/ / / / / / / / / / / ; , ! ! ! ! ! ! ! ! ! + + + + + + + + + + + + + + + + + + + + + + + +             + + + + + + + + ; ; / / ",
"/ / / / / / / / / / / ; , ! ! ! ! ! ! ! ! ( ( ( ( ( _ + + + + + + + + + ( ( ( ( ( : + + + +             + + + + + + + + ; ; / / ",
"/ / / / / / / / / / / ; ! ! ! ! ! ! ! ! ! < < < < < [ + + + + + + + + } < < < | 1 2 + + + +             + + + + + + + + ; ; ; / ",
", , , , , , , , , , , , ! ! ! ! ! ! ! ( 3 4 4 4 4 4 5 6 7 + + + + + ( 8 4 4 4 5 9 0 ( a + + + + + + + + + + + + + + + + + ; , ; ",
", , , , , , , , , , , , ! ! ! ! ! ! ! b c d e f g h i j k + + + + + b l 4 4 4 m n o p q + + + + + + + + + + + + + + + + + + , ; ",
", , , , , , , , , , , , ! ! ! ! ! ( r 4 s t u v w x x y z A ( ( ( B 4 4 4 4 4 4 4 m 9 C ( D + + + + + + + + + + + + + + + + , ; ",
", , , , , , , , , , , , ! ! ! ! ! E F G x H I J K L L M z N E E E O 4 4 4 4 4 4 4 P 9 Q R S + + + + + + + + + + + + + + + + , ; ",
"T T , , , , , , , , , , , , , ( U 4 V t W v X 4 4 4 4 4 4 4 4 4 4 4 4 4 4 4 4 4 4 P 9 Y Z Z ` (  . . . .~ ~ ~ ~ ........@ @ + ; ",
"T T , , , , , , , , , , , , , ( U 4 +.@.W #.$.4 4 4 4 4 4 4 4 4 4 4 4 4 4 4 4 4 4 P 9 Y 8 Z %.(  . . . .~ ~ ~ ~ ........@ @ + + ",
"&.T , , , , , , , , , , , , , ( U 4 *.=.-.;.>.4 4 4 4 4 4 4 4 4 4 4 4 4 4 4 4 4 4 P 9 Y 8 Z %.(  . . . .~ ~ ~ ~ ............+ + ",
"&.T ,., , , , , , , , , , , , ( U 4 '.#.).4 4 4 4 4 4 4 4 4 4 4 4 4 4 4 4 4 4 4 4 P 9 Y 8 Z %.(  . . . .~ ~ ~ ~ ............+ + ",
"&.T ,., , , , , , , , , , , , ( U 4 !.~.{.4 4 4 4 4 4 4 4 4 4 4 4 4 4 4 4 4 4 4 4 P 9 Y 8 Z %.(  . . . .~ ~ ~ ~ ............+ + ",
"&.T ,., , , , , , , , , , , , ( U 4 V t ].4 4 4 4 4 4 4 4 4 4 4 4 4 4 4 4 4 4 4 4 P 9 Y 8 Z %.(  . . . .~ ~ ~ ~ ............+ + ",
"&.T ,., , , , , , , , , , , , ( U 4 ^./.(.4 4 4 4 4 4 4 4 4 4 4 4 4 4 4 4 4 4 4 4 P 9 Y 8 Z %.( _.{  .:.~ ~ ~ ~ ............+ + ",
"&.&.,., , , , , , , , , , , , ( U 4 4 4 4 4 4 4 4 4 4 4 4 4 4 4 4 4 4 4 4 4 4 4 4 P 9 Y 8 Z %.( _.{  .:.~ ~ ~ ~ ............+ + ",
"&.T ,., , , , , , , , , , , , , , <.[.4 4 4 4 4 4 4 4 4 4 4 4 4 4 4 4 4 4 4 4 P }.|.1.2.3.4. . ._.{  .:.~ ~ ~ ~ ............+ + ",
"T T , , , , , , , , , , , , , , , ( r 4 4 4 4 4 4 4 4 4 4 4 4 4 4 4 4 4 4 4 4 5 9 Q 8 5.( D  . ._.{  .:.~ ~ ~ { { ..........+ + ",
",., , , , , , , , , , , , , , , , ( r 4 4 4 4 4 4 4 4 4 4 4 4 4 4 4 4 4 4 4 4 5 9 Q 8 6.( 7. . . . . . . . . .{ { _._._._._.! ! ",
", , , , , , , , , , , , , , , , , ( r 4 4 4 4 4 4 4 4 4 4 4 4 4 4 4 4 4 4 4 4 5 9 Q 8 5.( D  . . . . . . . . . ._._._._._._.! ! ",
", , , , , , , , , , , , , , , , , , , 8.9.4 4 4 4 4 4 4 4 4 4 4 4 4 4 4 4 0.a.b.c.d.e.f._._. . . . . . . . . . ._._._._._._.! ! ",
", , , , , , , , , , , , , , , , , , , ( 3 4 4 4 4 4 4 4 4 4 4 4 4 4 4 4 4 g.9 o 8 h.( a _._. . . . . . . . . . ._._._._._._.! ! ",
", , , , , , , , , , , , , , , , , , , , , O Y 4 4 4 4 4 4 4 4 4 4 4 4 i.P j.Q k.l.m._._._._._._. . ._._. . . . ._._._._._._.! ! ",
", , , , , , , , , , , , , , , , , , , , , ( n.4 4 4 4 4 4 4 4 4 4 4 4 }.9 l 8 o.( _._._._._._._. . ._._. . . . ._._._._._._.! ! ",
", , p.p.p.p.p.p.p.p.p.p., , , , , , , , , q.r.n s.4 4 4 4 4 4 4 4 t.i.j.u.v.w.x._._._._._._._._._._._._._._._._._._._._._._.! ! ",
", , p.p.p.p.p.p.p.p.p.p., , , , , , , , , , ! ( y.4 4 4 4 4 4 4 4 j.9 v.8 z.( _._._._._._._._._._._._._._._._._._._._._._._.! ! ",
", , p.p.p.p.p.p.p.p.p.p., , , , , , , , , , ! A.B.0.0.4 4 4 4 4 4 j.9 C.8 D.A._._._._._._._._._._._._._._._._._._._._._._._.! ! ",
", , p.p.p.E.E.E.E.E.E.E., , , , , , , , , , ! ! ! F.G.P 4 4 4 j.H.I.Z N J._._._._._._._._._._._._._._._._._._._._._._._._._.! ! ",
"p.p.E.E.K.K.K.L.T T T T E.p.p.p.p.p., , , , ! ! ! ( M.P z 4 4 j.9 k.8 N.O._._._._._._._._._._._._._._._._._._._._._._._._._.! ! ",
"p.p.E.E.L.L.L.L.&.&.&.T E.p.p.p.p.p., , , , ! ! ! ! ! P.Q.R.S.1.2.T.U._._._._._._._._._._._._._._._._._._._._._._._._._._._.! ! ",
"p.p.K.K.L.L.L.L.&.&.&.T E.E.p.p.p.p., , , , ! ! ! ! ! V.W.O 9 [.8 X.( _._._._._._._._._._._._._._._._._._._._._._._._._._._.! ! ",
"p.p.K.K.L.L.L.L.&.&.&.T E.E.p.p.p.p., , , , ! ! ! ! ! ! ! Y.Z.`. +_._._._._._._._._._._._._._._._._._._._._._._._._._._._._.! ! ",
"p.p.K.K.L.L.L.L.L.L..+.+E.E.p.p.p.p.p.p.p.p.p.p.++++! ! ! @+( ( ( _._._._._._._._._._._._._._._._._._._. . . . ._._._._._._.! ! ",
"p.p.K.K.L.L.L.L.L.L..+.+E.E.p.p.p.p.p.p.p.p.p.p.++++! ! ! ! ! ! _._._._._._._._._._._._._._._._._._._._. . . . ._._._._._._.! ! ",
"p.p.K.K.L.L.L.L.L.L.L.L.E.E.p.p.p.p.p.p.p.p.++++++++++++! ! ! ! _._._._._._._._._._._._._._._._._._._._. . . . ._._._._._._.! ! ",
"p.p.K.K.L.L.L.L.L.L.L.L.E.E.p.p.p.p.p.p.p.p.++++++++++++! ! ! ! _._._._._._._._._._._._._._._._._._._._. . . . ._._._._._._.! ! ",
"p.p.K.K.L.L.L.L.L.L.L.L.E.E.p.p.p.p.p.p.p.p.++++++++++++! ! ! ! _._._._._._._._._._._._._._._._._._._._. . . . ._._._._._._.! ! ",
"E.E.K.K.L.L.L.L.L.L.L.L.E.E.p.p.p.p.p.p.p.p.++++++++++++! ! ! ! _._._._._._._._._._._._._._._._._._._._. . . . ._._._._._._.! ! ",
"K.L.#+#+#+#+#+#+#+#+#+#+E.E.p.p.p.p.$+$+$+$+++++++++++++++++++%+_._._._._._._._._._._._._._._._._._._._._._._._. . ._._.%+%+&+&+",
"L.L.#+#+#+#+#+#+#+#+#+#+E.E.p.p.p.p.$+$+$+$+++++++++++++++++++%+*+_._._._._._._._._._._._._._._._._._._._._._._. . ._._.%+%+&+&+",
"L.L.#+#+#+#+#+#+#+#+#+#+E.E.p.p.p.p.$+$+$+$+++++++++++++++++++%+*+_._._._._._._._._._._._._._._._._._._._._._._. . ._._.%+%+&+&+",
"L.L.#+#+#+#+#+#+#+#+#+=+K.p.p.p.p.p.$+$+$+$+++++++++++++++++++++*+_._._._._._._._._._._._._._._._._._._._._._._. . ._._.%+%+&+&+",
"L.L.L.L.-+-+-+-+-+-+-+K.K.;+>+$+$+$+$+$+$+$+++++++++++++++++++++,+,+,+,+_._._._._._.,+,+,+,+_._._._._._._._._._._._._._._._.&+&+",
"L.L.L.L.-+-+-+-+-+-+-+-+;+;+$+$+$+$+$+$+$+$+++++++++++++++++++++,+,+,+,+_._._._._._.,+,+,+,+_._._._._._._._._._._._._._._._.&+&+",
"L.L.-+-+-+-+-+-+-+-+-+-+>+>+$+$+$+$+$+$+$+$+++++++++++++++++++++,+,+,+,+_._._._._._.,+,+,+,+_._._._._._._._._._._._._._._._.&+&+",
"L.L.-+-+-+-+-+-+-+-+-+-+>+>+$+$+$+$+$+$+$+$+++++++++++++++++++++,+,+,+,+_._._._._._.,+,+,+,+_._._._._._._._._._._._._._._._.&+&+",
"K.K.-+-+'+'+'+'+-+-+-+-+>+$+$+$+$+$+$+$+$+$+++++++++++++++++++++,+,+,+,+,+,+_._._._.,+,+,+,+_._._._._._._._._._._._._._._._.&+&+",
">+'+'+'+'+)+)+'+'+-+'+'+$+$+$+$+$+$+$+$+$+$+++++++++++++++++++++,+,+,+,+,+,+_._._._.,+,+,+,+_._._._._._._._._._._._._._._._._._.",
"!+~+~+{+{+{+{+{+)+'+'+)+]+^+^+^+^+^+^+^+^+^+++++++++++++++++++++,+,+,+,+,+,+,+,+,+,+,+,+,+,+,+,+,+,+,+,+,+,+,+,+,+,+,+,+,+,+,+%+",
"/+/+(+(+(+(+(+(+)+)+)+)+^+^+^+^+^+^+^+^+^+^+++++++++++++++++++++,+,+,+,+,+,+,+,+,+,+,+,+,+,+,+,+,+,+,+,+,+,+,+,+,+,+,+,+,+,+,+,+"};
