/* XPM */
static char * floor_xpm[] = {
"64 64 372 2",
"  	c #7CAF3A",
". 	c #7BAF3A",
"+ 	c #7BAE39",
"@ 	c #7AAE39",
"# 	c #7AAF39",
"$ 	c #79AF3A",
"% 	c #79AF39",
"& 	c #79AF38",
"* 	c #7AB038",
"= 	c #7AB039",
"- 	c #7AB03A",
"; 	c #7BAE3A",
"> 	c #7AAE3B",
", 	c #7AAE3A",
"' 	c #7AAE3C",
") 	c #70A851",
"! 	c #71A850",
"~ 	c #7AAD3A",
"{ 	c #7BAF39",
"] 	c #7BB03A",
"^ 	c #7AAD3D",
"/ 	c #6DA656",
"( 	c #79AD3F",
"_ 	c #7AAD39",
": 	c #74AA49",
"< 	c #7BAF38",
"[ 	c #7BAF3C",
"} 	c #7AAC39",
"| 	c #8AB53F",
"1 	c #9EC546",
"2 	c #A6D146",
"3 	c #A0D040",
"4 	c #97C73A",
"5 	c #8EC037",
"6 	c #7FAE33",
"7 	c #6F9B31",
"8 	c #75A436",
"9 	c #79AD42",
"0 	c #71A950",
"a 	c #7DAA3A",
"b 	c #A2C546",
"c 	c #AEDB46",
"d 	c #A9D840",
"e 	c #A1D73D",
"f 	c #9AD03A",
"g 	c #93C937",
"h 	c #89C234",
"i 	c #80B931",
"j 	c #76AB2E",
"k 	c #69982B",
"l 	c #689130",
"m 	c #7AAE38",
"n 	c #79AE3D",
"o 	c #6DA756",
"p 	c #77A938",
"q 	c #9ABC40",
"r 	c #ABD843",
"s 	c #B4E84B",
"t 	c #A0D43E",
"u 	c #97CE39",
"v 	c #92C837",
"w 	c #8BC134",
"x 	c #82BB33",
"y 	c #78B330",
"z 	c #6FA92D",
"A 	c #629A28",
"B 	c #5A8827",
"C 	c #659030",
"D 	c #7BAE38",
"E 	c #71A94F",
"F 	c #72AA4C",
"G 	c #7AAF3A",
"H 	c #7BA338",
"I 	c #9ECC3E",
"J 	c #9ACC3A",
"K 	c #94CB39",
"L 	c #90C737",
"M 	c #8EC236",
"N 	c #8ABC34",
"O 	c #82B933",
"P 	c #7DB531",
"Q 	c #72AC2E",
"R 	c #67A02B",
"S 	c #5B9528",
"T 	c #568925",
"U 	c #517B26",
"V 	c #77A936",
"W 	c #74AB49",
"X 	c #74AB4A",
"Y 	c #78AC41",
"Z 	c #75A537",
"` 	c #80B03A",
" .	c #90C538",
"..	c #8CC435",
"+.	c #88C033",
"@.	c #85BD33",
"#.	c #83BA34",
"$.	c #7FB432",
"%.	c #77B031",
"&.	c #7AB133",
"*.	c #6AA32C",
"=.	c #5F9828",
"-.	c #569126",
";.	c #508523",
">.	c #4A7721",
",.	c #608A2D",
"'.	c #7AAD38",
").	c #70A950",
"!.	c #7BAD39",
"~.	c #72A336",
"{.	c #8CC642",
"].	c #76B733",
"^.	c #75B431",
"/.	c #76B331",
"(.	c #79B431",
"_.	c #7AB431",
":.	c #80B937",
"<.	c #7BB335",
"[.	c #6DA42E",
"}.	c #679E2C",
"|.	c #5F9529",
"1.	c #64A22D",
"2.	c #579527",
"3.	c #4A8121",
"4.	c #44741E",
"5.	c #3C5B1E",
"6.	c #638D2F",
"7.	c #6EA755",
"8.	c #709C35",
"9.	c #649E32",
"0.	c #6BA931",
"a.	c #67A82C",
"b.	c #66A82C",
"c.	c #67A62C",
"d.	c #69A52D",
"e.	c #6CA82E",
"f.	c #72AD32",
"g.	c #69A32E",
"h.	c #629D2A",
"i.	c #5E9528",
"j.	c #578D26",
"k.	c #569026",
"l.	c #4C8421",
"m.	c #46781F",
"n.	c #3E6A1D",
"o.	c #35571A",
"p.	c #4F7125",
"q.	c #6E9A34",
"r.	c #518728",
"s.	c #569528",
"t.	c #5B9B28",
"u.	c #5C9B28",
"v.	c #5A9B28",
"w.	c #5B9628",
"x.	c #5C9528",
"y.	c #5C9628",
"z.	c #5A9327",
"A.	c #5D9828",
"B.	c #599426",
"C.	c #4B7F23",
"D.	c #487E21",
"E.	c #42731E",
"F.	c #3E6B1C",
"G.	c #39611B",
"H.	c #335219",
"I.	c #517427",
"J.	c #7BAF3B",
"K.	c #75A538",
"L.	c #497523",
"M.	c #4B8523",
"N.	c #4E8A24",
"O.	c #4F8B24",
"P.	c #4F8A24",
"Q.	c #4F8724",
"R.	c #4E8523",
"S.	c #4C8223",
"T.	c #4B8222",
"U.	c #41751E",
"V.	c #3F6F1D",
"W.	c #3D681C",
"X.	c #38621A",
"Y.	c #345A19",
"Z.	c #324E19",
"`.	c #61892E",
" +	c #7BAE3B",
".+	c #547A2A",
"++	c #43751F",
"@+	c #467A20",
"#+	c #467C21",
"$+	c #467B21",
"%+	c #467A21",
"&+	c #457920",
"*+	c #447820",
"=+	c #43761E",
"-+	c #41741D",
";+	c #40701D",
">+	c #3D6B1C",
",+	c #3A641C",
"'+	c #385D1A",
")+	c #345719",
"!+	c #315118",
"~+	c #33501A",
"{+	c #709F34",
"]+	c #75A638",
"^+	c #496F24",
"/+	c #3C691D",
"(+	c #3F6A1E",
"_+	c #3E691D",
":+	c #3D691D",
"<+	c #3D6B1D",
"[+	c #3C6B1B",
"}+	c #3C691B",
"|+	c #3C641B",
"1+	c #385B19",
"2+	c #345619",
"3+	c #335117",
"4+	c #324C16",
"5+	c #314918",
"6+	c #5F872C",
"7+	c #77A839",
"8+	c #5C842D",
"9+	c #3C5A1F",
"0+	c #3C5C1E",
"a+	c #537728",
"b+	c #415B1E",
"c+	c #37521A",
"d+	c #385619",
"e+	c #375517",
"f+	c #375117",
"g+	c #364A17",
"h+	c #384D17",
"i+	c #3F5B1C",
"j+	c #415E1F",
"k+	c #679230",
"l+	c #79AD41",
"m+	c #7BAE3D",
"n+	c #6FA754",
"o+	c #74AA4A",
"p+	c #77AC42",
"q+	c #73A94C",
"r+	c #78AD40",
"s+	c #7AAC3B",
"t+	c #7CAE38",
"u+	c #7AAC3C",
"v+	c #7AAD3B",
"w+	c #79AD3C",
"x+	c #79AC3E",
"y+	c #6FA752",
"z+	c #6FA852",
"A+	c #79AD3D",
"B+	c #70A850",
"C+	c #77AB43",
"D+	c #73AA4A",
"E+	c #79AC3D",
"F+	c #7BAD38",
"G+	c #7CAD38",
"H+	c #8BB53F",
"I+	c #75A535",
"J+	c #7EAB39",
"K+	c #689230",
"L+	c #73A94A",
"M+	c #79AA37",
"N+	c #9BBC40",
"O+	c #6EA754",
"P+	c #72A94D",
"Q+	c #79AD3B",
"R+	c #6FA753",
"S+	c #77AC44",
"T+	c #7CA438",
"U+	c #77A836",
"V+	c #77AB42",
"W+	c #75AA47",
"X+	c #78AC3E",
"Y+	c #7AAC38",
"Z+	c #76A536",
"`+	c #60892D",
" @	c #7AAB38",
".@	c #6DA755",
"+@	c #7BAC38",
"@@	c #72A236",
"#@	c #638B2F",
"$@	c #709B34",
"%@	c #4F7025",
"&@	c #6E9933",
"*@	c #517327",
"=@	c #61882D",
"-@	c #547A29",
";@	c #334F1A",
">@	c #709E34",
",@	c #79AC39",
"'@	c #75A536",
")@	c #496F23",
"!@	c #77A736",
"~@	c #5C832B",
"{@	c #537727",
"]@	c #3F5B1B",
"^@	c #415E1E",
"/@	c #67912F",
"(@	c #79AC3A",
"_@	c #79AB3A",
":@	c #79AB3B",
"<@	c #89B43F",
"[@	c #6F9B32",
"}@	c #74A337",
"|@	c #7DA93C",
"1@	c #679130",
"2@	c #77A83B",
"3@	c #658E31",
"4@	c #7BA339",
"5@	c #75A636",
"6@	c #79AC38",
"7@	c #79AA3B",
"8@	c #74A338",
"9@	c #5E882D",
"0@	c #78AA38",
"a@	c #71A137",
"b@	c #628B2F",
"c@	c #7CAE39",
"d@	c #74AA48",
"e@	c #6E9A36",
"f@	c #4E6F25",
"g@	c #7BAD3B",
"h@	c #71A84F",
"i@	c #78AB41",
"j@	c #6C9735",
"k@	c #507327",
"l@	c #73A238",
"m@	c #5F872D",
"n@	c #7AAB3B",
"o@	c #54792A",
"p@	c #6F9D34",
"q@	c #79AC3C",
"r@	c #78AC3F",
"s@	c #73A94B",
"t@	c #496E24",
"u@	c #5D862C",
"v@	c #76A539",
"w@	c #5B822D",
"x@	c #3B5C1E",
"y@	c #527628",
"z@	c #405B1E",
"A@	c #374D17",
"B@	c #3E5B1B",
"C@	c #405D1E",
"D@	c #66912F",
"E@	c #78AB38",
"F@	c #76AA45",
"G@	c #76AA46",
"H@	c #7AAB3A",
"I@	c #79AA3A",
"J@	c #79AB39",
"K@	c #78AB39",
"L@	c #7AAC37",
"M@	c #77AB3B",
"N@	c #76AA40",
"O@	c #76AA3D",
"P@	c #6EA653",
"Q@	c #6FA74F",
"R@	c #77AB3A",
"S@	c #79AA39",
"T@	c #75AA41",
"U@	c #6CA656",
"V@	c #72A84A",
"W@	c #79AA38",
"X@	c #71A84B",
"Y@	c #78AB3A",
"Z@	c #78AA39",
"`@	c #78A938",
" #	c #79AB38",
".#	c #79AB37",
"+#	c #77AA38",
"@#	c #78A937",
"    . + + + + + + + + @ # $ $ $ $ $ $ $ $ $ % & & & & & & & & & & & & & * = = = = = = - - - - - - - - - - - - - - - - - - - = = ",
"    ; ; > > + + + + + @ , $ $ $ $ $ $ $ $ $ % % & & & & & & & & & & & & # = = = = = - - - - - - - - - - - - - - - - - - - - = = ",
"; ; ; ' ) ! ' ; ~ ~ ~ , , , , , , , , , , , # # # # # # # # # # @ @ @ # # # { { . . . . . . . . . . . . . . . . . . . . ] ] - - ",
"; ; ; ^ / ( ; ; ~ ~ ~ ~ , , , , , , , , , @ # # # # # # # # # # @ @ @ @ # # { { . . . . . . . . . . . . . . . . . . . . ] ] - - ",
"+ _ + ; : ; + + _ _ _ _ _ _ _ _ _ _ + + + + { < < < < < < < < < + + + + + + + + + +                             [       . . - - ",
"+ _ + + ; + + + _ _ _ } | 1 2 3 4 5 6 7 8 + < < < < < < < < > < + + + + + + + + + +                           9 0 [     . . - - ",
"+ _ + + + + + + _ _ a b c d e f g h i j k l m < < < < < < n o > + + + + + + + + + +                           9 0 [     . . - - ",
"+ _ + + + + + + _ p q r s t u v w x y z A B C D < < < < > E F G + + + + + + + + + +                           9 0 [     . . - - ",
"+ + + + + + + + _ H I J K L M N O P Q R S T U V < < < { W X > < + + + + + + + + + + + + + +     + +     + + + Y ! > + + { { - - ",
"+ + + + + + + _ Z `  ...+.@.#.$.%.&.*.=.-.;.>.,.'.< < G ) ).G < + + + + + + + + + + + + + +     + +     + + + + > + + + { { - - ",
"+ + + + + + !.~.{.].^./.(._.:.<.[.}.|.1.2.3.4.5.6.< < > 7.n < < + + + + + + + + + + + + + +     + +     + + + + + + + + { { - - ",
"+ + + + + + 8.9.0.a.b.c.d.e.f.g.h.i.j.k.l.m.n.o.p.< < G E G < < + + + + + + + + + + + + + +     + +     + + + + + + + + { . G - ",
"; ; ; ; ; ; q.r.s.t.u.v.w.x.y.z.A.B.C.D.E.F.G.H.I.+ + + > + + + + + + + + + + + + + + + + +             + + + + + + + + ; . . J.",
"; ; ; ; ; ; K.L.M.N.O.P.Q.R.S.S.Q.T.U.V.W.X.Y.Z.`.+ + + + + + + + + + + + + + + + + + + + +             + + + + + + + + ; ; J.J.",
" + + + + + + +.+++@+#+$+%+&+*+=+-+;+>+,+'+)+!+~+{++ + + + + + + + + + + + + + + + + + + + +             + + + + + + + + ; ;  + +",
" + + + + + + +]+^+/+n.(+_+:+<+[+}+|+1+2+3+4+5+6++ + + + + + + + + + + + + + + + + + + + + +     [       + + + + + + + + ; ;  + +",
" + + + + + + + +7+8+9+0+a+b+c+d+e+f+g+h+i+j+k+_ + + + + + + + + + + + + + + + + + + + + + +   l+0 [     + + + + + + + + ; ;  + +",
" + + + + + + + + + + +; _ _ _ _ _ _ _ _ _ _ + + + + + + + + + + + + + + + + + + + + + + + +   m+n+[     + + + + + + + + ; ; ;  +",
"~ ~ ~ ~ ~ ~ ~ ~ ~ ~ ~ ~ _ _ _ _ _ _ _ _ _ _ + + + + + + + + + + + + + + + + + + + + + + + + ; : o+; + + + + + + + + + + + ; ~ ; ",
"~ ~ ~ ~ ~ ~ ~ ~ ~ ~ ~ ~ _ _ _ _ _ _ _ _ _ _ + + + + + + + + + + + + + + + + + + + + + + + + > ) p++ + + + + + + + + + + + + ~ ; ",
"~ ~ ~ ~ ~ ~ ~ ~ ~ ~ ~ ~ _ _ _ _ _ _ _ _ _ _ + + + + + + + + + + + + + + + + + + + + + + + + ; q+r++ + + + + + + + + + + + + ~ ; ",
"~ ~ ~ ~ ~ ~ ~ ~ ~ ~ ~ ~ _ _ _ _ _ _ _ _ _ _ + + + + + + + + + + + + + + + + + + + + + + + + + ; + + + + + + + + + + + + + + ~ ; ",
"s+s+~ ~ ~ ~ ~ ~ ~ ~ ~ ~ ~ ~ ~ ~ ~ ~ ~ ~ ~ ~ + + + + + + + + + + t+t+t+t+t+t+t+t+t+t+t+t+t+t+t+t+t+t+t+t+< < < < m m m m @ @ + ; ",
"s+s+~ ~ ~ ~ ~ ~ ~ ~ ~ ~ ~ ~ ~ ~ ~ ~ ~ ~ ~ ~ + + + + + + + + + + t+t+t+t+t+t+t+t+t+t+t+t+t+t+t+t+t+t+t+t+< < < < m m m m @ @ + + ",
"u+s+~ ~ ~ ~ ~ ~ ~ ~ ~ ~ ~ ~ ~ ~ ~ ~ ~ ~ ~ ~ + + + + + + + + + + t+t+t+t+t+t+t+t+t+t+t+t+t+t+t+t+t+t+t+t+< < < < m m m m m m + + ",
"u+s+v+~ ~ ~ ~ ~ ~ w+w+~ ~ ~ ~ ~ ~ ~ ~ ~ ~ ~ + + + + + + + + + + t+t+t+t+t+t+t+t+t+t+t+t+t+t+t+t+t+t+t+t+< < < < m m m m m m + + ",
"u+s+v+~ ~ ~ ~ ~ x+y+z+w+~ ~ ~ ~ ~ ~ ~ ~ ~ ~ + + + + + + + + + + t+t+t+t+t+t+t+t+t+t+t+t+t+t+t+t+t+t+t+t+< < < < m m m m m m + + ",
"u+s+v+~ ~ ~ ~ A+B+y+C+~ ~ ~ ~ ~ ~ ~ ~ ~ ~ ~ + + + + + + + + + + D t+t+t+t+t+t+t+t+t+t+t+t+t+t+t+t+t+t+t+< < < < m m m m m m + + ",
"u+s+v+~ ~ ~ v+: D+E+~ ~ ~ ~ ~ ~ ~ ~ ~ ~ ~ ~ > + + + + + _ _ _ !.F+F+F+F+F+F+F+F+F+F+t+t+G+H+1 2 3 4 5 6 7 I+< < m m m m m m + + ",
"u+u+v+~ ~ ~ v+D+D+v+~ ~ ~ ~ ~ ~ ~ ~ ~ ~ ~ w+! Y + + + + _ _ _ _ F+F+F+F+F+F+F+F+F+F+t+J+b c d e f g h i j k K+m m m m m m m + + ",
"u+s+v+~ ~ ~ v+L+D+v+~ ~ ~ ~ ~ ~ ~ ~ ~ ~ ~ w+B+Y + + + + _ _ _ _ F+F+F+F+F+F+F+F+F+F+M+N+r s t u v w x y z A B C '.m m m m m + + ",
"s+s+~ ~ ~ ~ A+O+P+Q+~ ~ ~ ~ ~ ~ ~ ~ ~ ~ ~ w+R+S+; + + + _ _ _ _ F+F+F+F+F+F+F+F+F+F+T+I J K L M N O P Q R S T U U+m m m m m + + ",
"v+~ ~ ~ ~ ~ w+) V+~ ~ ~ ~ ~ ~ ~ ~ ~ ~ ~ ~ v+W+X+_ _ _ _ _ _ _ _ F+F+F+F+F+F+F+F+Y+Z+`  ...+.@.#.$.%.&.*.=.-.;.>.`+ @F+F+F+F+_ _ ",
"~ ~ ~ ~ ~ ~ w+.@E+~ ~ ~ ~ ~ ~ ~ ~ ~ ~ ~ ~ ~ ~ _ _ _ _ _ _ _ _ _ F+F+F+F+F+F+F++@@@{.].^./.(._.:.<.[.}.|.1.2.3.4.5.#@F+F+F+F+_ _ ",
"~ ~ ~ ~ ~ ~ w+B+w+~ ~ ~ ~ ~ ~ ~ ~ ~ ~ ~ ~ ~ _ _ _ _ _ _ _ _ _ _ F+F+F+F+F+F+F+$@9.0.a.b.c.d.e.f.g.h.i.j.k.l.m.n.o.%@F+F+F+F+_ _ ",
"~ ~ ~ ~ ~ ~ ~ w+~ ~ ~ ~ ~ ~ ~ ~ ~ ~ ~ ~ ~ ~ _ _ _ _ _ _ _ _ _ _ F+F+F+F+F+F+F+&@r.s.t.u.v.w.x.y.z.A.B.C.D.E.F.G.H.*@F+F+F+F+_ _ ",
"~ ~ ~ ~ ~ ~ ~ ~ ~ ~ ~ ~ ~ ~ ~ ~ ~ ~ ~ ~ ~ ~ _ _ _ _ _ _ _ _ _ _ F+F+F+F+F+F+F+8 L.M.N.O.P.Q.R.S.S.Q.T.U.V.W.X.Y.Z.=@F+F+F+F+_ _ ",
"~ ~ ~ ~ ~ ~ ~ ~ ~ ~ ~ ~ ~ ~ ~ ~ ~ ~ ~ ~ ~ ~ _ _ _ _ _ _ _ _ _ _ F+F+F+F+F+F+F+F+-@++@+#+$+%+&+*+=+-+;+>+,+'+)+!+;@>@F+F+F+F+_ _ ",
"~ ~ ,@,@,@,@,@,@,@,@,@,@~ ~ ~ ~ ~ ~ ~ ~ ~ ~ _ _ _ _ _ _ + + _ _ F+F+F+F+F+F+F+F+'@)@/+n.(+_+:+<+[+}+|+1+2+3+4+5+6+F+F+F+F+F+_ _ ",
"~ ~ ,@,@,@,@,@,@,@,@,@,@~ ~ ~ ~ ~ ~ ~ ~ ~ ~ _ _ _ _ _ _ + + _ _ F+F+F+F+F+F+F+F+F+!@~@9+0+{@b+c+d+e+f+g+h+]@^@/@Y+F+F+F+F+F+_ _ ",
"~ ~ ,@,@,@,@,@,@,@,@,@,@~ ~ ~ ~ ~ ~ ~ ~ ~ ~ _ _ _ _ _ _ + + _ _ F+F+F+F+F+F+F+F+F+F+F+F+F+F+F+F+F+F+F+F+F+F+F+F+F+F+F+F+F+F+_ _ ",
"~ ~ ,@,@,@(@(@(@(@(@(@(@~ ~ ~ ~ ~ ~ ~ ~ ~ ~ _ _ _ _ _ _ + + _ _ F+F+F+F+F+F+F+F+F+F+F+F+F+F+F+F+F+F+F+F+F+F+F+F+F+F+F+F+F+F+_ _ ",
",@,@(@(@_@_@_@:@s+s+s+s+(@,@,@,@,@,@~ ~ ~ ~ _ _ _ _ _ _ _ _ _ _ F+F+F+F+F+F+F+F+F+F+F+F+F+F+F+F+F+F+F+F+F+F+F+F+F+F+F+F+F+F+_ _ ",
",@,@(@(@:@:@:@:@u+u+u+s+_@<@1 2 3 4 5 6 [@}@_ _ _ _ _ _ _ _ _ _ F+F+F+F+F+F+F+F+F+F+F+F+F+F+F+F+F+F+F+F+F+F+F+F+F+F+F+F+F+F+_ _ ",
",@,@_@_@:@:@:@:@u+u+u+|@b c d e f g h i j k 1@,@_ _ _ _ _ _ _ _ F+F+F+F+F+F+F+F+F+F+F+F+F+F+F+F+F+F+F+F+F+F+F+F+F+F+F+F+F+F+_ _ ",
",@,@_@_@:@:@:@:@u+u+2@q r s t u v w x y z A B 3@} _ _ _ _ _ _ _ F+F+F+F+F+F+F+F+F+F+F+F+F+F+F+F+F+F+F+F+F+F+F+F+F+F+F+F+F+F+_ _ ",
",@,@_@_@:@:@:@:@:@:@4@I J K L M N O P Q R S T U 5@6@_ _ _ _ _ _ F+F+F+F+F+F+F+F+F+F+F+F+F+F+F+F+F+F+F+F+t+t+t+t+F+F+F+F+F+F+_ _ ",
",@,@_@_@:@:@:@:@7@8@`  ...+.@.#.$.%.&.*.=.-.;.>.9@0@_ _ _ _ _ _ F+F+F+F+F+F+F+F+F+F+F+F+F+F+F+F+F+F+F+F+t+t+t+t+!.!.F+F+F+F+_ _ ",
",@,@_@_@:@:@:@7@a@{.].^./.(._.:.<.[.}.|.1.2.3.4.5.b@6@6@_ _ _ _ F+F+F+F+F+F+F+F+F+F+!.!.F+F+F+F+F+F+F+F+t+t+t+c@: d@!.F+F+F+_ _ ",
",@,@_@_@:@:@:@e@9.0.a.b.c.d.e.f.g.h.i.j.k.l.m.n.o.f@6@6@_ _ _ _ F+F+F+F+F+F+F+F+F+~ : d@!.F+F+F+F+F+F+F+t+t+t+g@h@i@F+F+F+F+_ _ ",
",@,@_@_@:@:@:@j@r.s.t.u.v.w.x.y.z.A.B.C.D.E.F.G.H.k@6@6@_ _ _ _ F+F+F+F+F+F+F+F+F+V+O+: !.F+F+F+F+F+F+F+t+t+; h@i@!.F+F+F+F+_ _ ",
"(@(@_@_@:@:@:@l@L.M.N.O.P.Q.R.S.S.Q.T.U.V.W.X.Y.Z.m@6@6@_ _ _ _ F+F+F+F+F+F+F+F+~ O+O+s+F+F+F+F+F+F+F+F+t+c@Y h@~ F+F+F+F+F+_ _ ",
"_@:@n@n@n@n@n@n@o@++@+#+$+%+&+*+=+-+;+>+,+'+)+!+;@p@6@6@6@6@6@Y+F+F+F+F+F+F+F+F+s+O+q@F+F+F+F+F+F+F+F+F+F+r@s@s+t+t+F+F+Y+Y+!.!.",
":@:@n@n@n@n@n@n@8@t@/+n.(+_+:+<+[+}+|+1+2+3+4+5+u@6@6@6@6@6@6@Y+'.F+F+F+F+F+F+~ d@: !.F+F+F+F+F+F+F+F+F+F+~ r@F+t+t+F+F+Y+Y+!.!.",
":@:@n@n@n@n@n@n@n@v@w@9+x@y@z@c+d+e+f+g+A@B@C@D@E@6@6@6@6@6@6@Y+'.F+F+F+F+F+!.F@G@~ F+F+F+F+F+F+F+F+F+F+F+F+F+F+t+t+F+F+Y+Y+!.!.",
":@:@n@n@n@n@n@n@n@n@n@H@_@,@,@,@,@,@E@E@E@E@6@6@6@6@6@6@6@6@6@6@'.F+F+F+F+F+F+q@q@F+F+F+F+F+F+F+F+F+F+F+F+F+F+F+t+t+F+F+Y+Y+!.!.",
":@:@:@:@I@I@I@I@I@I@I@_@_@J@K@E@E@E@E@E@E@E@6@6@6@6@6@6@6@6@6@6@L@L@L@L@F+F+F+F+F+F+L@L@L@L@F+F+F+F+F+F+F+F+F+F+F+F+F+F+F+F+!.!.",
":@:@:@:@I@I@I@I@I@I@I@I@J@J@E@E@E@E@E@E@E@E@6@6@6@6@6@6@6@6@6@6@L@L@L@L@F+F+F+F+F+F+L@L@L@L@F+F+F+F+F+F+F+F+F+F+F+F+F+F+F+F+!.!.",
":@:@I@I@I@I@I@I@I@I@I@I@K@K@E@E@E@M@N@E@E@E@6@6@6@6@6@6@6@6@6@6@L@L@L@L@F+F+F+F+F+F+L@L@L@L@F+F+F+F+F+F+F+F+F+F+F+F+F+F+F+F+!.!.",
":@:@I@I@I@I@I@I@I@I@I@I@K@K@E@E@O@P@Q@R@E@E@6@6@6@6@6@6@6@6@6@6@L@L@L@L@F+F+F+F+F+F+L@L@L@L@F+F+F+F+F+F+F+F+F+F+F+F+F+F+F+F+!.!.",
"_@_@I@I@S@S@S@S@I@I@I@I@K@E@E@T@U@V@M@E@E@E@6@6@6@6@6@6@6@6@6@6@L@L@L@L@L@L@F+F+F+F+L@L@L@L@F+F+F+F+F+F+F+F+F+F+F+F+F+F+F+F+!.!.",
"K@S@S@S@S@W@W@S@S@I@S@S@E@E@K@X@T@Y@E@E@E@E@6@6@6@6@6@6@6@6@6@6@L@L@L@L@L@L@F+F+F+F+L@L@L@L@F+F+F+F+F+F+F+F+F+F+F+F+F+F+F+F+F+F+",
"Z@0@0@`@`@`@`@`@W@S@S@W@ #.#.# #.#.#.#.#.#.#6@6@6@6@6@6@6@6@6@6@L@L@L@L@L@L@L@L@L@L@L@L@L@L@L@L@L@L@L@L@L@L@L@L@L@L@L@L@L@L@L@Y+",
"+#+#@#@#@#@#@#@#W@W@W@W@.#.#.#.#.#.#.#.#.#.#6@6@6@6@6@6@6@6@6@6@L@L@L@L@L@L@L@L@L@L@L@L@L@L@L@L@L@L@L@L@L@L@L@L@L@L@L@L@L@L@L@L@"};
