/* XPM */
static char * floor_xpm[] = {
"64 64 291 2",
"  	c #7CAF3A",
". 	c #7BAF3A",
"+ 	c #7BAE39",
"@ 	c #7AAE39",
"# 	c #7AAF39",
"$ 	c #79AF3A",
"% 	c #79AF39",
"& 	c #79AF38",
"* 	c #7AB038",
"= 	c #7AB039",
"- 	c #7AB03A",
"; 	c #7BAE3A",
"> 	c #7AAE3A",
", 	c #7AAD3A",
"' 	c #7BAF39",
") 	c #7BB03A",
"! 	c #7AAD39",
"~ 	c #7BAF38",
"{ 	c #7BAE38",
"] 	c #7AAF3A",
"^ 	c #7BAF3B",
"/ 	c #7BAE3B",
"( 	c #7AAC3B",
"_ 	c #7CAE38",
": 	c #7AAE38",
"< 	c #7AAC3C",
"[ 	c #7AAD3B",
"} 	c #7BAD39",
"| 	c #7BAD38",
"1 	c #7CAC38",
"2 	c #93BA43",
"3 	c #A4C948",
"4 	c #A6D146",
"5 	c #A0D040",
"6 	c #97C73A",
"7 	c #8EC037",
"8 	c #7FAE33",
"9 	c #6C962F",
"0 	c #709D33",
"a 	c #80A83A",
"b 	c #A7C848",
"c 	c #AFDC46",
"d 	c #A9D840",
"e 	c #A1D73D",
"f 	c #9AD03A",
"g 	c #93C937",
"h 	c #89C234",
"i 	c #80B931",
"j 	c #76AB2E",
"k 	c #68972A",
"l 	c #5E832C",
"m 	c #79AD38",
"n 	c #77A636",
"o 	c #9EBE41",
"p 	c #ABD843",
"q 	c #B4E84B",
"r 	c #A0D43E",
"s 	c #97CE39",
"t 	c #92C837",
"u 	c #8BC134",
"v 	c #82BB33",
"w 	c #78B330",
"x 	c #6FA92D",
"y 	c #629A28",
"z 	c #5A8727",
"A 	c #587D2C",
"B 	c #7AAC38",
"C 	c #7C9E38",
"D 	c #9ECC3E",
"E 	c #9ACC3A",
"F 	c #94CB39",
"G 	c #90C737",
"H 	c #8EC236",
"I 	c #8ABC34",
"J 	c #82B933",
"K 	c #7DB531",
"L 	c #72AC2E",
"M 	c #67A02B",
"N 	c #5B9528",
"O 	c #568925",
"P 	c #4C7624",
"Q 	c #73A234",
"R 	c #7AAB38",
"S 	c #729F35",
"T 	c #81B03A",
"U 	c #90C538",
"V 	c #8CC435",
"W 	c #88C033",
"X 	c #85BD33",
"Y 	c #83BA34",
"Z 	c #7FB432",
"` 	c #77B031",
" .	c #7AB133",
"..	c #6AA32C",
"+.	c #5F9828",
"@.	c #569126",
"#.	c #508523",
"$.	c #4A7721",
"%.	c #4F7327",
"&.	c #79A938",
"*.	c #7BAB38",
"=.	c #6F9E35",
"-.	c #8DC742",
";.	c #76B733",
">.	c #75B431",
",.	c #76B331",
"'.	c #79B431",
").	c #7AB431",
"!.	c #80B937",
"~.	c #7BB335",
"{.	c #6DA42E",
"].	c #679E2C",
"^.	c #5F9529",
"/.	c #64A22D",
"(.	c #579527",
"_.	c #4A8121",
":.	c #44741E",
"<.	c #3B5A1E",
"[.	c #527329",
"}.	c #678C31",
"|.	c #649E32",
"1.	c #6BA931",
"2.	c #67A82C",
"3.	c #66A82C",
"4.	c #67A62C",
"5.	c #69A52D",
"6.	c #6CA82E",
"7.	c #72AD32",
"8.	c #69A32E",
"9.	c #629D2A",
"0.	c #5E9528",
"a.	c #578D26",
"b.	c #569026",
"c.	c #4C8421",
"d.	c #46781F",
"e.	c #3E6A1D",
"f.	c #35571A",
"g.	c #3C551D",
"h.	c #64892F",
"i.	c #518728",
"j.	c #569528",
"k.	c #5B9B28",
"l.	c #5C9B28",
"m.	c #5A9B28",
"n.	c #5B9628",
"o.	c #5C9528",
"p.	c #5C9628",
"q.	c #5A9327",
"r.	c #5D9828",
"s.	c #599426",
"t.	c #4B7F23",
"u.	c #487E21",
"v.	c #42731E",
"w.	c #3E6B1C",
"x.	c #39611B",
"y.	c #335219",
"z.	c #3D5720",
"A.	c #6F9C34",
"B.	c #487423",
"C.	c #4B8523",
"D.	c #4E8A24",
"E.	c #4F8B24",
"F.	c #4F8A24",
"G.	c #4F8724",
"H.	c #4E8523",
"I.	c #4C8223",
"J.	c #4B8222",
"K.	c #41751E",
"L.	c #3F6F1D",
"M.	c #3D681C",
"N.	c #38621A",
"O.	c #345A19",
"P.	c #324E19",
"Q.	c #4F6E26",
"R.	c #466824",
"S.	c #43751F",
"T.	c #467A20",
"U.	c #467C21",
"V.	c #467B21",
"W.	c #467A21",
"X.	c #457920",
"Y.	c #447820",
"Z.	c #43761E",
"`.	c #41741D",
" +	c #40701D",
".+	c #3D6B1C",
"++	c #3A641C",
"@+	c #385D1A",
"#+	c #345719",
"$+	c #315118",
"%+	c #2E4918",
"&+	c #679130",
"*+	c #79AC39",
"=+	c #709D34",
"-+	c #3D611F",
";+	c #3C691D",
">+	c #3F6A1E",
",+	c #3E691D",
"'+	c #3D691D",
")+	c #3D6B1D",
"!+	c #3C6B1B",
"~+	c #3C691B",
"{+	c #3C641B",
"]+	c #385B19",
"^+	c #345619",
"/+	c #335117",
"(+	c #324C16",
"_+	c #2F4717",
":+	c #4B6C24",
"<+	c #73A135",
"[+	c #496A24",
"}+	c #38551E",
"|+	c #37571C",
"1+	c #415E20",
"2+	c #384E1A",
"3+	c #37521A",
"4+	c #385619",
"5+	c #375517",
"6+	c #375117",
"7+	c #364A17",
"8+	c #324514",
"9+	c #324A16",
"0+	c #314918",
"a+	c #587B29",
"b+	c #79AB38",
"c+	c #79AC3A",
"d+	c #79AB3A",
"e+	c #79AB3B",
"f+	c #89B43F",
"g+	c #9EC546",
"h+	c #6F9B32",
"i+	c #74A337",
"j+	c #7DA93C",
"k+	c #A2C546",
"l+	c #AEDB46",
"m+	c #69982B",
"n+	c #77A83B",
"o+	c #9ABC40",
"p+	c #5A8827",
"q+	c #658E31",
"r+	c #7AAC39",
"s+	c #7BA339",
"t+	c #517B26",
"u+	c #75A636",
"v+	c #79AC38",
"w+	c #79AA3B",
"x+	c #74A338",
"y+	c #80B03A",
"z+	c #5E882D",
"A+	c #78AA38",
"B+	c #71A137",
"C+	c #8CC642",
"D+	c #3C5B1E",
"E+	c #628B2F",
"F+	c #6E9A36",
"G+	c #4E6F25",
"H+	c #6C9735",
"I+	c #507327",
"J+	c #73A238",
"K+	c #497523",
"L+	c #5F872D",
"M+	c #7AAB3B",
"N+	c #54792A",
"O+	c #334F1A",
"P+	c #6F9D34",
"Q+	c #496E24",
"R+	c #5D862C",
"S+	c #7AAD38",
"T+	c #76A539",
"U+	c #5B822D",
"V+	c #3C5A1F",
"W+	c #3B5C1E",
"X+	c #527628",
"Y+	c #405B1E",
"Z+	c #374D17",
"`+	c #3E5B1B",
" @	c #405D1E",
".@	c #66912F",
"+@	c #78AB38",
"@@	c #7AAB3A",
"#@	c #79AA3A",
"$@	c #79AB39",
"%@	c #78AB39",
"&@	c #7AAC37",
"*@	c #79AA39",
"=@	c #79AA38",
"-@	c #78AA39",
";@	c #78A938",
">@	c #79AB37",
",@	c #77AA38",
"'@	c #78A937",
"    . + + + + + + + + @ # $ $ $ $ $ $ $ $ $ % & & & & & & & & & & & & & * = = = = = = - - - - - - - - - - - - - - - - - - - = = ",
"    ; ; + + + + + + + @ > $ $ $ $ $ $ $ $ $ % % & & & & & & & & & & & & # = = = = = - - - - - - - - - - - - - - - - - - - - = = ",
"; ; ; ; ; ; ; ; , , , > > > > > > > > > > > # # # # # # # # # # @ @ @ # # # ' ' . . . . . . . . . . . . . . . . . . . . ) ) - - ",
"; ; ; ; ; ; ; ; , , , , > > > > > > > > > @ # # # # # # # # # # @ @ @ @ # # ' ' . . . . . . . . . . . . . . . . . . . . ) ) - - ",
"+ ! + + + + + + ! ! ! ! ! ! ! ! ! ! + + + + ' ~ ~ ~ ~ ~ ~ ~ ~ ~ + + + + + + + + + +                                     . . - - ",
"+ ! + + + + + + ! ! ! ! ! ! ! ! ! ! + + + + ~ ~ ~ ~ ~ ~ ~ ~ ~ ~ + + + + + + + + + +                                     . . - - ",
"+ ! + + + + + + ! ! ! ! ! ! ! ! ! ! + + + + ~ ~ ~ ~ ~ ~ ~ ~ ~ ~ + + + + + + + + + +                                     . . - - ",
"+ ! + + + + + + ! ! ! ! ! ! ! ! ! ! + + + + ~ ~ ~ ~ ~ ~ ~ ~ ~ ~ + + + + + + + + + +                                     . . - - ",
"+ + + + + + + + ! ! ! ! ! ! ; ; ! ! ! ! ! @ ~ ~ ~ ~ ~ ~ ~ ~ ~ ~ + + + + + + + + + + + + + +     + +     + + + + + + + + ' ' - - ",
"+ + + + + + + + ! ! ! ! ! + ; ; + ! ! ! ! @ { ~ ~ ~ ~ ~ ~ ~ ~ ~ + + + + + + + + + + + + + +     + +     + + + + + + + + ' ' - - ",
"+ + + + + + + + ! ! ! ! ! + ; ; + ! ! ! ! @ { ~ ~ ~ ~ ~ ~ ~ ~ ~ + + + + + + + + + + + + + +     + +     + + + + + + + + ' ' - - ",
"+ + + + + + + + ! ! ! ! ! ! ; ; ! ! ! ! ! ! { ~ ~ ~ ~ ~ ~ ~ ~ ~ + + + + + + + + + + + + + +     + +     + + + + + + + + ' . ] - ",
"; ; ; ; ; ; ; ; ; ; ; ; ! ! + + ! ! ! ! ! ! + + + + + + + + + + + + + + + + + + + + + + + +             + + + + + + + + ; . . ^ ",
"; ; ; ; ; ; ; ; ; ; ; ; ! ! + + ! ! ! ! ! ! + + + + + + + + + + + + + + + + + + + + + + + +             + + + + + + + + ; ; ^ ^ ",
"/ / / / / / / / / / / ; ! ! ! ! ! ! ! ! ! ! + + + + + + + + + + + + + + + + + + + + + + + +             + + + + + + + + ; ; / / ",
"/ / / / / / / / / / / ; , ! ! ! ! ! ! ! ! ! + + + + + + + + + + + + + + + + + + + + + + + +             + + + + + + + + ; ; / / ",
"/ / / / / / / / / / / ; , ! ! ! ! ! ! ! ! ! + + + + + + + + + + + + + + + + + + + + + + + +             + + + + + + + + ; ; / / ",
"/ / / / / / / / / / / ; ! ! ! ! ! ! ! ! ! ! + + + + + + + + + + + + + + + + + + + + + + + +             + + + + + + + + ; ; ; / ",
", , , , , , , , , , , , ! ! ! ! ! ! ! ! ! ! + + + + + + + + + + + + + + + + + + + + + + + + + + + + + + + + + + + + + + + ; , ; ",
", , , , , , , , , , , , ! ! ! ! ! ! ! ! ! ! + + + + + + + + + + + + + + + + + + + + + + + + + + + + + + + + + + + + + + + + , ; ",
", , , , , , , , , , , , ! ! ! ! ! ! ! ! ! ! + + + + + + + + + + + + + + + + + + + + + + + + + + + + + + + + + + + + + + + + , ; ",
", , , , , , , , , , , , ! ! ! ! ! ! ! ! ! ! + + + + + + + + + + + + + + + + + + + + + + + + + + + + + + + + + + + + + + + + , ; ",
"( ( , , , , , , , , , , , , , , , , , , , , + + + + + + + + + + _ _ _ _ _ _ _ _ _ _ _ _ _ _ _ _ _ _ _ _ ~ ~ ~ ~ : : : : @ @ + ; ",
"( ( , , , , , , , , , , , , , , , , , , , , + + + + + + + + + + _ _ _ _ _ _ _ _ _ _ _ _ _ _ _ _ _ _ _ _ ~ ~ ~ ~ : : : : @ @ + + ",
"< ( , , , , , , , , , , , , , , , , , , , , + + + + + + + + + + _ _ _ _ _ _ _ _ _ _ _ _ _ _ _ _ _ _ _ _ ~ ~ ~ ~ : : : : : : + + ",
"< ( [ , , , , , , , , , , , , , , , , , , , + + + + + + + + + + _ _ _ _ _ _ _ _ _ _ _ _ _ _ _ _ _ _ _ _ ~ ~ ~ ~ : : : : : : + + ",
"< ( [ , , , , , , , , , , , , , , , , , , , + + + + + + + + + + _ _ _ _ _ _ _ _ _ _ _ _ _ _ _ _ _ _ _ _ ~ ~ ~ ~ : : : : : : + + ",
"< ( [ , , , , , , , , , , , , , , , , , , , + + + + + + + + + + { _ _ _ _ _ _ _ _ _ _ _ _ _ _ _ _ _ _ _ ~ ~ ~ ~ : : : : : : + + ",
"< ( [ , , , , , , , , , , , , , , , , , , , + + + + + + ! ! ! } | | | | | | | | | | _ _ 1 2 3 4 5 6 7 8 9 0 ~ ~ : : : : : : + + ",
"< < [ , , , , , , , , , , , , , , , , , , , + + + + + + ! ! ! ! | | | | | | | | | | _ a b c d e f g h i j k l m : : : : : : + + ",
"< ( [ , , , , , , , , , , , , , , , , , , , + + + + + + ! ! ! ! | | | | | | | | | | n o p q r s t u v w x y z A B : : : : : + + ",
"( ( , , , , , , , , , , , , , , , , , , , , + + + + + + ! ! ! ! | | | | | | | | | | C D E F G H I J K L M N O P Q : : : : : + + ",
"[ , , , , , , , , , , , , , , , , , , , , , ! ! ! ! ! ! ! ! ! ! | | | | | | | | R S T U V W X Y Z `  ...+.@.#.$.%.&.| | | | ! ! ",
", , , , , , , , , , , , , , , , , , , , , , ! ! ! ! ! ! ! ! ! ! | | | | | | | *.=.-.;.>.,.'.).!.~.{.].^./.(._.:.<.[.| | | | ! ! ",
", , , , , , , , , , , , , , , , , , , , , , ! ! ! ! ! ! ! ! ! ! | | | | | | | }.|.1.2.3.4.5.6.7.8.9.0.a.b.c.d.e.f.g.| | | | ! ! ",
", , , , , , , , , , , , , , , , , , , , , , ! ! ! ! ! ! ! ! ! ! | | | | | | | h.i.j.k.l.m.n.o.p.q.r.s.t.u.v.w.x.y.z.| | | | ! ! ",
", , , , , , , , , , , , , , , , , , , , , , ! ! ! ! ! ! ! ! ! ! | | | | | | | A.B.C.D.E.F.G.H.I.I.G.J.K.L.M.N.O.P.Q.| | | | ! ! ",
", , , , , , , , , , , , , , , , , , , , , , ! ! ! ! ! ! ! ! ! ! | | | | | | | | R.S.T.U.V.W.X.Y.Z.`. +.+++@+#+$+%+&+| | | | ! ! ",
", , *+*+*+*+*+*+*+*+*+*+, , , , , , , , , , ! ! ! ! ! ! + + ! ! | | | | | | | | =+-+;+e.>+,+'+)+!+~+{+]+^+/+(+_+:+| | | | | ! ! ",
", , *+*+*+*+*+*+*+*+*+*+, , , , , , , , , , ! ! ! ! ! ! + + ! ! | | | | | | | | | <+[+}+|+1+2+3+4+5+6+7+8+9+0+a+b+| | | | | ! ! ",
", , *+*+*+*+*+*+*+*+*+*+, , , , , , , , , , ! ! ! ! ! ! + + ! ! | | | | | | | | | | | | | | | | | | | | | | | | | | | | | | ! ! ",
", , *+*+*+c+c+c+c+c+c+c+, , , , , , , , , , ! ! ! ! ! ! + + ! ! | | | | | | | | | | | | | | | | | | | | | | | | | | | | | | ! ! ",
"*+*+c+c+d+d+d+e+( ( ( ( c+*+*+*+*+*+, , , , ! ! ! ! ! ! ! ! ! ! | | | | | | | | | | | | | | | | | | | | | | | | | | | | | | ! ! ",
"*+*+c+c+e+e+e+e+< < < ( d+f+g+4 5 6 7 8 h+i+! ! ! ! ! ! ! ! ! ! | | | | | | | | | | | | | | | | | | | | | | | | | | | | | | ! ! ",
"*+*+d+d+e+e+e+e+< < < j+k+l+d e f g h i j m+&+*+! ! ! ! ! ! ! ! | | | | | | | | | | | | | | | | | | | | | | | | | | | | | | ! ! ",
"*+*+d+d+e+e+e+e+< < n+o+p q r s t u v w x y p+q+r+! ! ! ! ! ! ! | | | | | | | | | | | | | | | | | | | | | | | | | | | | | | ! ! ",
"*+*+d+d+e+e+e+e+e+e+s+D E F G H I J K L M N O t+u+v+! ! ! ! ! ! | | | | | | | | | | | | | | | | | | | | _ _ _ _ | | | | | | ! ! ",
"*+*+d+d+e+e+e+e+w+x+y+U V W X Y Z `  ...+.@.#.$.z+A+! ! ! ! ! ! | | | | | | | | | | | | | | | | | | | | _ _ _ _ | | | | | | ! ! ",
"*+*+d+d+e+e+e+w+B+C+;.>.,.'.).!.~.{.].^./.(._.:.D+E+v+v+! ! ! ! | | | | | | | | | | | | | | | | | | | | _ _ _ _ | | | | | | ! ! ",
"*+*+d+d+e+e+e+F+|.1.2.3.4.5.6.7.8.9.0.a.b.c.d.e.f.G+v+v+! ! ! ! | | | | | | | | | | | | | | | | | | | | _ _ _ _ | | | | | | ! ! ",
"*+*+d+d+e+e+e+H+i.j.k.l.m.n.o.p.q.r.s.t.u.v.w.x.y.I+v+v+! ! ! ! | | | | | | | | | | | | | | | | | | | | _ _ _ _ | | | | | | ! ! ",
"c+c+d+d+e+e+e+J+K+C.D.E.F.G.H.I.I.G.J.K.L.M.N.O.P.L+v+v+! ! ! ! | | | | | | | | | | | | | | | | | | | | _ _ _ _ | | | | | | ! ! ",
"d+e+M+M+M+M+M+M+N+S.T.U.V.W.X.Y.Z.`. +.+++@+#+$+O+P+v+v+v+v+v+B | | | | | | | | | | | | | | | | | | | | | | | | _ _ | | B B } } ",
"e+e+M+M+M+M+M+M+x+Q+;+e.>+,+'+)+!+~+{+]+^+/+(+0+R+v+v+v+v+v+v+B S+| | | | | | | | | | | | | | | | | | | | | | | _ _ | | B B } } ",
"e+e+M+M+M+M+M+M+M+T+U+V+W+X+Y+3+4+5+6+7+Z+`+ @.@+@v+v+v+v+v+v+B S+| | | | | | | | | | | | | | | | | | | | | | | _ _ | | B B } } ",
"e+e+M+M+M+M+M+M+M+M+M+@@d+*+*+*+*+*++@+@+@+@v+v+v+v+v+v+v+v+v+v+S+| | | | | | | | | | | | | | | | | | | | | | | _ _ | | B B } } ",
"e+e+e+e+#@#@#@#@#@#@#@d+d+$@%@+@+@+@+@+@+@+@v+v+v+v+v+v+v+v+v+v+&@&@&@&@| | | | | | &@&@&@&@| | | | | | | | | | | | | | | | } } ",
"e+e+e+e+#@#@#@#@#@#@#@#@$@$@+@+@+@+@+@+@+@+@v+v+v+v+v+v+v+v+v+v+&@&@&@&@| | | | | | &@&@&@&@| | | | | | | | | | | | | | | | } } ",
"e+e+#@#@#@#@#@#@#@#@#@#@%@%@+@+@+@+@+@+@+@+@v+v+v+v+v+v+v+v+v+v+&@&@&@&@| | | | | | &@&@&@&@| | | | | | | | | | | | | | | | } } ",
"e+e+#@#@#@#@#@#@#@#@#@#@%@%@+@+@+@+@+@+@+@+@v+v+v+v+v+v+v+v+v+v+&@&@&@&@| | | | | | &@&@&@&@| | | | | | | | | | | | | | | | } } ",
"d+d+#@#@*@*@*@*@#@#@#@#@%@+@+@+@+@+@+@+@+@+@v+v+v+v+v+v+v+v+v+v+&@&@&@&@&@&@| | | | &@&@&@&@| | | | | | | | | | | | | | | | } } ",
"%@*@*@*@*@=@=@*@*@#@*@*@+@+@+@+@+@+@+@+@+@+@v+v+v+v+v+v+v+v+v+v+&@&@&@&@&@&@| | | | &@&@&@&@| | | | | | | | | | | | | | | | | | ",
"-@A+A+;@;@;@;@;@=@*@*@=@b+>@>@>@>@>@>@>@>@>@v+v+v+v+v+v+v+v+v+v+&@&@&@&@&@&@&@&@&@&@&@&@&@&@&@&@&@&@&@&@&@&@&@&@&@&@&@&@&@&@&@B ",
",@,@'@'@'@'@'@'@=@=@=@=@>@>@>@>@>@>@>@>@>@>@v+v+v+v+v+v+v+v+v+v+&@&@&@&@&@&@&@&@&@&@&@&@&@&@&@&@&@&@&@&@&@&@&@&@&@&@&@&@&@&@&@&@"};
