/* XPM */
static char * paw_xpm[] = {
"64 64 243 2",
"  	c #7CAF3A",
". 	c #7BAF3A",
"+ 	c #7BAE39",
"@ 	c #7AAE39",
"# 	c #7AAF39",
"$ 	c #79AF3A",
"% 	c #79AF39",
"& 	c #79AF38",
"* 	c #7AB038",
"= 	c #7AB039",
"- 	c #7AB03A",
"; 	c #7BAE3A",
"> 	c #7AAE3A",
", 	c #7AAD3A",
"' 	c #7BAF39",
") 	c #7BB03A",
"! 	c #7AAD39",
"~ 	c #7BAF38",
"{ 	c #7BAE38",
"] 	c #7AAF3A",
"^ 	c #7BAF3B",
"/ 	c #7BAE3B",
"( 	c #80B04A",
"_ 	c #7BAD3C",
": 	c #83B14F",
"< 	c #7EAF45",
"[ 	c #7DAE41",
"} 	c #7EAF41",
"| 	c #7BAD3D",
"1 	c #8FB767",
"2 	c #A2C286",
"3 	c #7CAE3E",
"4 	c #80B049",
"5 	c #A6C48C",
"6 	c #C7D9BA",
"7 	c #BED3AE",
"8 	c #85B255",
"9 	c #7CAE3C",
"0 	c #7CAE3F",
"a 	c #A0C184",
"b 	c #EEF3EA",
"c 	c #FEFEFE",
"d 	c #EAF0E5",
"e 	c #AEC997",
"f 	c #CEDDC3",
"g 	c #E9EFE5",
"h 	c #C7C7C7",
"i 	c #D8D8D7",
"j 	c #DDE7D6",
"k 	c #7EAF43",
"l 	c #7AAC3B",
"m 	c #7FB048",
"n 	c #ECF1E8",
"o 	c #C5C5C5",
"p 	c #C8C8C8",
"q 	c #EDF2E9",
"r 	c #B7CEA4",
"s 	c #F5F8F3",
"t 	c #C4C4C4",
"u 	c #E0E9DA",
"v 	c #7CAE38",
"w 	c #7AAE38",
"x 	c #81B04C",
"y 	c #F0F3EE",
"z 	c #C8C8C7",
"A 	c #BFBFBF",
"B 	c #BFD3AF",
"C 	c #CCDCC1",
"D 	c #C9CAC9",
"E 	c #84B253",
"F 	c #7AAC3C",
"G 	c #ACC19B",
"H 	c #DBE6D3",
"I 	c #ACC895",
"J 	c #D0DFC6",
"K 	c #C5C8C3",
"L 	c #D0D0D0",
"M 	c #D8D8D8",
"N 	c #CBDBBF",
"O 	c #7AAD3B",
"P 	c #C3D6B4",
"Q 	c #BFD4B0",
"R 	c #CEDDC2",
"S 	c #D2E0C8",
"T 	c #E4ECDF",
"U 	c #BCD2AC",
"V 	c #96BB74",
"W 	c #E6EDE1",
"X 	c #CDD1CA",
"Y 	c #DCE3D6",
"Z 	c #A5C48B",
"` 	c #98BC77",
" .	c #97BC75",
"..	c #FBFCFA",
"+.	c #C0C0C0",
"@.	c #C0C7BC",
"#.	c #BCC7B4",
"$.	c #BDD2AC",
"%.	c #A7C58E",
"&.	c #D1DFC7",
"*.	c #E2EADC",
"=.	c #EEF3EB",
"-.	c #E8EEE3",
";.	c #88B458",
">.	c #B9D0A7",
",.	c #C9C9C9",
"'.	c #CACACA",
").	c #C6C6C6",
"!.	c #C2C2C2",
"~.	c #C0C1C0",
"{.	c #B2CC9E",
"].	c #B1CB9D",
"^.	c #F7F8F6",
"/.	c #C0C1BF",
"(.	c #D9E4D0",
"_.	c #89B55A",
":.	c #9DBF7F",
"<.	c #EDEEEC",
"[.	c #C3C3C3",
"}.	c #C6C7C5",
"|.	c #C2D5B3",
"1.	c #C1C1C1",
"2.	c #CBCBCB",
"3.	c #D1D1D1",
"4.	c #D7D7D7",
"5.	c #ABC792",
"6.	c #7BAD39",
"7.	c #7BAD38",
"8.	c #7CAF38",
"9.	c #7EAF46",
"0.	c #C2D6B4",
"a.	c #DFE0DF",
"b.	c #BDC0BB",
"c.	c #9ABD79",
"d.	c #E1EADB",
"e.	c #E5ECDF",
"f.	c #8FB865",
"g.	c #B6CEA4",
"h.	c #C7CAC5",
"i.	c #D2D8CE",
"j.	c #AEC998",
"k.	c #C7D5BE",
"l.	c #CFD6CA",
"m.	c #E7EEE2",
"n.	c #8BB65E",
"o.	c #DCE7D5",
"p.	c #CDCDCD",
"q.	c #D4E1CB",
"r.	c #BAD0A9",
"s.	c #CFDDC4",
"t.	c #AAC692",
"u.	c #A3C288",
"v.	c #A2C287",
"w.	c #BEBEBE",
"x.	c #CCCCCC",
"y.	c #B9BEB6",
"z.	c #E4E9E0",
"A.	c #EDF2EA",
"B.	c #9ABD7A",
"C.	c #A1C185",
"D.	c #81B04B",
"E.	c #81B049",
"F.	c #7CAD3B",
"G.	c #84B14F",
"H.	c #7FAF44",
"I.	c #7FAF40",
"J.	c #E8EAE7",
"K.	c #C0D4B1",
"L.	c #C2C5C1",
"M.	c #91B86B",
"N.	c #8FB766",
"O.	c #A2C285",
"P.	c #7DAE3D",
"Q.	c #C8D9BA",
"R.	c #BFD3AE",
"S.	c #86B254",
"T.	c #7DAE3B",
"U.	c #95BA71",
"V.	c #EFF4EC",
"W.	c #D5D9D2",
"X.	c #A1C183",
"Y.	c #DDE7D5",
"Z.	c #80B042",
"`.	c #7EAF3D",
" +	c #80B047",
".+	c #82B04B",
"++	c #CCDCC0",
"@+	c #85B252",
"#+	c #D1DFC6",
"$+	c #CCDBBF",
"%+	c #7EAE40",
"&+	c #79AC39",
"*+	c #C0D4AF",
"=+	c #BDD2AB",
"-+	c #97BB73",
";+	c #A6C48B",
">+	c #99BC76",
",+	c #97BC74",
"'+	c #C0C7BB",
")+	c #A8C58E",
"!+	c #88B357",
"~+	c #B3CC9E",
"{+	c #B2CB9C",
"]+	c #89B459",
"^+	c #79AC3A",
"/+	c #9EBF7E",
"(+	c #79AB3A",
"_+	c #79AB3B",
":+	c #8FB765",
"<+	c #B7CEA3",
"[+	c #D3D8CE",
"}+	c #C8D5BE",
"|+	c #8BB55E",
"1+	c #D4E1CA",
"2+	c #BAD0A8",
"3+	c #CFDDC3",
"4+	c #AAC691",
"5+	c #A3C287",
"6+	c #A3C286",
"7+	c #9BBD7A",
"8+	c #A1C184",
"9+	c #79AC3B",
"0+	c #79AC38",
"a+	c #C1D4B1",
"b+	c #92B86A",
"c+	c #7AAB3B",
"d+	c #78AB38",
"e+	c #7AAC38",
"f+	c #7AAD38",
"g+	c #7AAB3A",
"h+	c #79AA3A",
"i+	c #79AB39",
"j+	c #78AB39",
"k+	c #7AAC37",
"l+	c #79AA39",
"m+	c #79AA38",
"n+	c #78AA39",
"o+	c #78AA38",
"p+	c #78A938",
"q+	c #79AB38",
"r+	c #79AB37",
"s+	c #77AA38",
"t+	c #78A937",
"    . + + + + + + + + @ # $ $ $ $ $ $ $ $ $ % & & & & & & & & & & & & & * = = = = = = - - - - - - - - - - - - - - - - - - - = = ",
"    ; ; + + + + + + + @ > $ $ $ $ $ $ $ $ $ % % & & & & & & & & & & & & # = = = = = - - - - - - - - - - - - - - - - - - - - = = ",
"; ; ; ; ; ; ; ; , , , > > > > > > > > > > > # # # # # # # # # # @ @ @ # # # ' ' . . . . . . . . . . . . . . . . . . . . ) ) - - ",
"; ; ; ; ; ; ; ; , , , , > > > > > > > > > @ # # # # # # # # # # @ @ @ @ # # ' ' . . . . . . . . . . . . . . . . . . . . ) ) - - ",
"+ ! + + + + + + ! ! ! ! ! ! ! ! ! ! + + + + ' ~ ~ ~ ~ ~ ~ ~ ~ ~ + + + + + + + + + +                                     . . - - ",
"+ ! + + + + + + ! ! ! ! ! ! ! ! ! ! + + + + ~ ~ ~ ~ ~ ~ ~ ~ ~ ~ + + + + + + + + + +                                     . . - - ",
"+ ! + + + + + + ! ! ! ! ! ! ! ! ! ! + + + + ~ ~ ~ ~ ~ ~ ~ ~ ~ ~ + + + + + + + + + +                                     . . - - ",
"+ ! + + + + + + ! ! ! ! ! ! ! ! ! ! + + + + ~ ~ ~ ~ ~ ~ ~ ~ ~ ~ + + + + + + + + + +                                     . . - - ",
"+ + + + + + + + ! ! ! ! ! ! ; ; ! ! ! ! ! @ ~ ~ ~ ~ ~ ~ ~ ~ ~ ~ + + + + + + + + + + + + + +     + +     + + + + + + + + ' ' - - ",
"+ + + + + + + + ! ! ! ! ! + ; ; + ! ! ! ! @ { ~ ~ ~ ~ ~ ~ ~ ~ ~ + + + + + + + + + + + + + +     + +     + + + + + + + + ' ' - - ",
"+ + + + + + + + ! ! ! ! ! + ; ; + ! ! ! ! @ { ~ ~ ~ ~ ~ ~ ~ ~ ~ + + + + + + + + + + + + + +     + +     + + + + + + + + ' ' - - ",
"+ + + + + + + + ! ! ! ! ! ! ; ; ! ! ! ! ! ! { ~ ~ ~ ~ ~ ~ ~ ~ ~ + + + + + + + + + + + + + +     + +     + + + + + + + + ' . ] - ",
"; ; ; ; ; ; ; ; ; ; ; ; ! ! + + ! ! ! ! ! ! + + + + + + + + + + + + + + + + + + + + + + + +             + + + + + + + + ; . . ^ ",
"; ; ; ; ; ; ; ; ; ; ; ; ! ! + + ! ! ! ! ! ! + + + + + + + + + + + + + + + + + + + + + + + +             + + + + + + + + ; ; ^ ^ ",
"/ / / / / / / / / / / ; ! ! ! ! ! ! ! ! ! ! + + + + + + + + + + + + + + + + + + + + + + + +             + + + + + + + + ; ; / / ",
"/ / / / / / / / / / / ; , ! ! ! ! ! ! ! ! ! + + + + + + + + + + + + + + + + + + + + + + + +             + + + + + + + + ; ; / / ",
"/ / / / / / / / / / / ; , ! ! ! ! ! ! ! ! ! + + + + + + + + + + + + + + + + + + + + + + + +             + + + + + + + + ; ; / / ",
"/ / / / / / / / / / / ; ! ! ! ! ! ! ! ! ! ! + + + + + + + + + + + + + + + + + + + + + + + +             + + + + + + + + ; ; ; / ",
", , , , , , , , , , , , ! ! ! ! ! ! ! ! ! ! + + + + + + + + + + + + + + + + + + + + + + + + + + + + + + + + + + + + + + + ; , ; ",
", , , , , , , ( , , , , _ ! _ : < ! ! ! ! [ } + + + + + + + + + + + + + + + + + + + + + + + + + + + + + + + + + + + + + + + , ; ",
", , , , , , , | , , , | 1 2 3 4 5 6 7 8 ! _ 9 + + + + + + + + + + + + + + + + + + + + + + + + + + + + + + + + + + + + + + + , ; ",
", , , , , , , , | 0 a b c d e f g h i j k 3 } + + + + + + + + + + + + + + + + + + + + + + + + + + + + + + + + + + + + + + + , ; ",
"l l , , , , , , | m n o p q r s h o t u | | } + + + + + + + + + v v v v v v v v v v v v v v v v v v v v ~ ~ ~ ~ w w w w @ @ + ; ",
"l l , , , , , , , x y z A B C D t h t d E m + + + + + + + + + + v v v v v v v v v v v v v v v v v v v v ~ ~ ~ ~ w w w w @ @ + + ",
"F l , , , , , , , ( B G H I J K L h M N m [ 9 9 + + + + + + + + v v v v v v v v v v v v v v v v v v v v ~ ~ ~ ~ w w w w w w + + ",
"F l O , , , , [ P Q R S T U V W X Y n Z ` E + + + + + + + + + + v v v v v v v v v v v v v v v v v v v v ~ ~ ~ ~ w w w w w w + + ",
"F l O , , , ,  ...+.o h o @.#.s $.%.&.*.=.-.;.9 + + + + + + + + v v v v v v v v v v v v v v v v v v v v ~ ~ ~ ~ w w w w w w + + ",
"F l O , , , , >.,.h o '.).h !.~.{.].^.t )./.(._.+ + + + + + + + { v v v v v v v v v v v v v v v v v v v ~ ~ ~ ~ w w w w w w + + ",
"F l O , , , , :.<.[.p p o ).o }.>.|.1.2.t 3.4.5.+ + + + ! ! ! 6.7.7.7.7.7.7.7.7.7.7.v v v v v v 7.{ v 8.~ ~ ~ ~ w w w w w w + + ",
"F F O , , , , 9.0.a.t ).,.,.'.b.c.d./.!.).A e.f.+ + + + ! ! ! ! 7.7.7.7.7.7.7.7.7.7.v v v v v v 7.{ v 8.~ ~ ~ ~ w w w w w w + + ",
"F l O , , , , , 0 g.h.).o p p i.a ` j.k.l.m.n.+ + + + + ! ! ! ! 7.7.7.7.7.7.7.7.7.7.v v v v v v 7.{ v 8.~ ~ ~ ~ w w w w w w + + ",
"l l , , , , , , , , o.p.t ,.p q.r.j s.t.u.v.9 + + + + + ! ! ! ! 7.7.7.7.7.7.7.7.7.7.v v v v v v 7.{ v 8.~ ~ ~ { { w w w w w + + ",
"O , , , , , , , , , $.w.x.,.y.N z.[.w.A.B.m C.D.! ! ! ! ! ! ! ! 7.E.7.7.7.7.F.7.F.G.H.7.7.7.v I.I.v v v v v v { { 7.7.7.7.7.! ! ",
", , , , , , , , | , v.J.o A K.C.L.x.~.d M.0 8 _ ! ! ! ! ! ! ! ! 7.F.7.7.7.F.N.O.P.E.5 Q.R.S.v T.T.v v v v v v v 7.7.7.7.7.7.! ! ",
", , , , , , , , | , | 5 q n U.c.V.W.V.j.x | ! ! ! ! ! ! ! ! ! ! 7.7.F.P.X.b c d e f g h i Y.Z.`.I.v v v v v v v 7.7.7.7.7.7.! ! ",
", , , , , , , , , , , , , , , , , , , , , , ! ! ! ! ! ! ! ! ! ! 7.7.F. +n o p q r s h o t u T.T.I.v v v v v v v 7.7.7.7.7.7.! ! ",
", , , , , , , , , , , , , , , , , , , , , , ! ! ! ! ! ! ! ! ! ! 7.7.7..+y z A B ++D t h t d @+ +v v 7.7.v v v v 7.7.7.7.7.7.! ! ",
", , , , , , , , , , , , , , , , , , , , , , ! ! ! ! ! ! ! ! ! ! 7.7.7.E.B G H I #+K L h M $+ +%+T.T.7.7.v v v v 7.7.7.7.7.7.! ! ",
", , &+&+&+&+&+&+&+&+&+&+, , , , , , , , , , ! ! ! ! ! ! + + ! ! 7.%+P *+R S e.=+-+W X Y n ;+>+@+7.7.7.7.7.7.7.7.7.7.7.7.7.7.! ! ",
", , &+&+&+&+&+&+&+&+&+&+, , , , , , , , , , ! ! ! ! ! ! + + ! ! 7.,+..+.o h o '+#.s $.)+#+*.=.-.!+F.7.7.7.7.7.7.7.7.7.7.7.7.! ! ",
", , &+&+&+&+&+&+&+&+&+&+, , , , , , , , , , ! ! ! ! ! ! + + ! ! 7.>.,.h o '.).h !.~.~+{+^.t )./.(.]+7.7.7.7.7.7.7.7.7.7.7.7.! ! ",
", , &+&+&+^+^+^+^+^+^+^+, , , , , , , , , , ! ! ! ! ! ! + + ! ! 7./+<.[.p p o ).o }.>.|.1.2.t 3.4.5.7.7.7.7.7.7.7.7.7.7.7.7.! ! ",
"&+&+^+^+(+(+(+_+l l l l ^+&+&+&+&+&+, , , , ! ! ! ! ! ! ! ! ! ! 7.H.P a.t ).,.,.'.b.c.d./.!.).A e.:+7.7.7.7.7.7.7.7.7.7.7.7.! ! ",
"&+&+^+^+_+_+_+_+F F F l ^+&+&+&+&+&+, , , , ! ! ! ! ! ! ! ! ! ! 7.7.P.<+h.).o p p [+X.>+e }+l.m.|+7.7.7.7.7.7.7.7.7.7.7.7.7.! ! ",
"&+&+(+(+_+_+_+_+F F F l ^+^+&+&+&+&+, , , , ! ! ! ! ! ! ! ! ! ! 7.7.7.7.Y.p.t ,.p 1+2+Y.3+4+5+6+F.7.7.7.7.7.7.7.7.7.7.7.7.7.! ! ",
"&+&+(+(+_+_+_+_+F F F l ^+^+&+&+&+&+, , , , ! ! ! ! ! ! ! ! ! ! 7.7.7.7.$.w.x.,.y.$+z.[.w.A.7+ +8+.+7.7.7.7.7.7.7.7.7.7.7.7.! ! ",
"&+&+(+(+_+_+_+_+_+_+9+9+^+^+&+&+&+&+&+&+&+&+&+&+0+0+! ! ! ! ! ! 7.7.F.7.6+J.o A a+8+L.x.~.d b+P.S.F.7.7.v v v v 7.7.7.7.7.7.! ! ",
"&+&+(+(+_+_+_+_+_+_+9+9+^+^+&+&+&+&+&+&+&+&+&+&+0+0+! ! ! ! ! ! 7.7.F.7.F.5 q n U.c.V.W.V.e .+F.7.7.7.7.v v v v 7.7.7.7.7.7.! ! ",
"&+&+(+(+_+_+_+_+_+_+_+_+^+^+&+&+&+&+&+&+&+&+0+0+0+0+0+0+! ! ! ! 7.7.7.7.7.7.7.7.7.7.7.7.7.7.7.7.7.7.7.7.v v v v 7.7.7.7.7.7.! ! ",
"&+&+(+(+_+_+_+_+_+_+_+_+^+^+&+&+&+&+&+&+&+&+0+0+0+0+0+0+! ! ! ! 7.7.7.7.7.7.7.7.7.7.7.7.7.7.7.7.7.7.7.7.v v v v 7.7.7.7.7.7.! ! ",
"&+&+(+(+_+_+_+_+_+_+_+_+^+^+&+&+&+&+&+&+&+&+0+0+0+0+0+0+! ! ! ! 7.7.7.7.7.7.7.7.7.7.7.7.7.7.7.7.7.7.7.7.v v v v 7.7.7.7.7.7.! ! ",
"^+^+(+(+_+_+_+_+_+_+_+_+^+^+&+&+&+&+&+&+&+&+0+0+0+0+0+0+! ! ! ! 7.7.7.7.7.7.7.7.7.7.7.7.7.7.7.7.7.7.7.7.v v v v 7.7.7.7.7.7.! ! ",
"(+_+c+c+c+c+c+c+c+c+c+c+^+^+&+&+&+&+d+d+d+d+0+0+0+0+0+0+0+0+0+e+7.7.7.7.7.7.7.7.7.7.7.7.7.7.7.7.7.7.7.7.7.7.7.7.v v 7.7.e+e+6.6.",
"_+_+c+c+c+c+c+c+c+c+c+c+^+^+&+&+&+&+d+d+d+d+0+0+0+0+0+0+0+0+0+e+f+7.7.7.7.7.7.7.7.7.7.7.7.7.7.7.7.7.7.7.7.7.7.7.v v 7.7.e+e+6.6.",
"_+_+c+c+c+c+c+c+c+c+c+c+^+^+&+&+&+&+d+d+d+d+0+0+0+0+0+0+0+0+0+e+f+7.7.7.7.7.7.7.7.7.7.7.7.7.7.7.7.7.7.7.7.7.7.7.v v 7.7.e+e+6.6.",
"_+_+c+c+c+c+c+c+c+c+c+g+(+&+&+&+&+&+d+d+d+d+0+0+0+0+0+0+0+0+0+0+f+7.7.7.7.7.7.7.7.7.7.7.7.7.7.7.7.7.7.7.7.7.7.7.v v 7.7.e+e+6.6.",
"_+_+_+_+h+h+h+h+h+h+h+(+(+i+j+d+d+d+d+d+d+d+0+0+0+0+0+0+0+0+0+0+k+k+k+k+7.7.7.7.7.7.k+k+k+k+7.7.7.7.7.7.7.7.7.7.7.7.7.7.7.7.6.6.",
"_+_+_+_+h+h+h+h+h+h+h+h+i+i+d+d+d+d+d+d+d+d+0+0+0+0+0+0+0+0+0+0+k+k+k+k+7.7.7.7.7.7.k+k+k+k+7.7.7.7.7.7.7.7.7.7.7.7.7.7.7.7.6.6.",
"_+_+h+h+h+h+h+h+h+h+h+h+j+j+d+d+d+d+d+d+d+d+0+0+0+0+0+0+0+0+0+0+k+k+k+k+7.7.7.7.7.7.k+k+k+k+7.7.7.7.7.7.7.7.7.7.7.7.7.7.7.7.6.6.",
"_+_+h+h+h+h+h+h+h+h+h+h+j+j+d+d+d+d+d+d+d+d+0+0+0+0+0+0+0+0+0+0+k+k+k+k+7.7.7.7.7.7.k+k+k+k+7.7.7.7.7.7.7.7.7.7.7.7.7.7.7.7.6.6.",
"(+(+h+h+l+l+l+l+h+h+h+h+j+d+d+d+d+d+d+d+d+d+0+0+0+0+0+0+0+0+0+0+k+k+k+k+k+k+7.7.7.7.k+k+k+k+7.7.7.7.7.7.7.7.7.7.7.7.7.7.7.7.6.6.",
"j+l+l+l+l+m+m+l+l+h+l+l+d+d+d+d+d+d+d+d+d+d+0+0+0+0+0+0+0+0+0+0+k+k+k+k+k+k+7.7.7.7.k+k+k+k+7.7.7.7.7.7.7.7.7.7.7.7.7.7.7.7.7.7.",
"n+o+o+p+p+p+p+p+m+l+l+m+q+r+r+r+r+r+r+r+r+r+0+0+0+0+0+0+0+0+0+0+k+k+k+k+k+k+k+k+k+k+k+k+k+k+k+k+k+k+k+k+k+k+k+k+k+k+k+k+k+k+k+e+",
"s+s+t+t+t+t+t+t+m+m+m+m+r+r+r+r+r+r+r+r+r+r+0+0+0+0+0+0+0+0+0+0+k+k+k+k+k+k+k+k+k+k+k+k+k+k+k+k+k+k+k+k+k+k+k+k+k+k+k+k+k+k+k+k+"};
