/* XPM */
static char *_2f3bac052b04c08fe6776bb91cd541bqB6Hn2Bh6q14gZ0m[] = {
/* columns rows colors chars-per-pixel */
"64 64 225 2 ",
"   c None",
".  c #8C5731",
"X  c #9E6932",
"o  c #996532",
"O  c #A36D2E",
"+  c #AC6E2D",
"@  c #A5712D",
"#  c #AB742B",
"$  c #AB7627",
"%  c #B37D26",
"&  c #BB7E25",
"*  c #B2732D",
"=  c #B37A29",
"-  c #A16C32",
";  c #A57135",
":  c #AB7332",
">  c #A67438",
",  c #AA7738",
"<  c #AD7A39",
"1  c #B57E36",
"2  c #B97F35",
"3  c #B27F3B",
"4  c #AB7C48",
"5  c #A77E5B",
"6  c #BD891A",
"7  c #B68225",
"8  c #BB8223",
"9  c #BD8A22",
"0  c #BA862C",
"q  c #BA8433",
"w  c #B4833C",
"e  c #BA863B",
"r  c #BC8A3D",
"t  c #B78534",
"y  c #C48C1E",
"u  c #CA941B",
"i  c #CC991C",
"p  c #C5921D",
"a  c #D39D17",
"s  c #D29D1B",
"d  c #D6A315",
"f  c #D9A516",
"g  c #DDA913",
"h  c #D3A11D",
"j  c #DBA91C",
"k  c #DBA70E",
"l  c #E6B30D",
"z  c #E9B50B",
"x  c #EFBB0A",
"c  c #F1BD0F",
"v  c #F2BF06",
"b  c #E1AD13",
"n  c #E3AD1C",
"m  c #E5B314",
"M  c #EBBA14",
"N  c #E3B11D",
"B  c #EDBD1D",
"V  c #E9B716",
"C  c #F0BE16",
"Z  c #E2AF0E",
"A  c #C18A20",
"S  c #C38A2E",
"D  c #C59321",
"F  c #CA9622",
"G  c #CC9A22",
"H  c #CA982A",
"J  c #D09D22",
"K  c #C18C3A",
"L  c #C6913E",
"P  c #C69635",
"I  c #D19E31",
"U  c #D5A522",
"Y  c #DCAB22",
"T  c #D5A42C",
"R  c #D8A529",
"E  c #D9AA2B",
"W  c #DFB026",
"Q  c #D9AC35",
"!  c #D6A636",
"~  c #E4B524",
"^  c #ECBD24",
"/  c #E3B42B",
"(  c #EBBE2C",
")  c #E5B829",
"_  c #E5BA36",
"`  c #F4C105",
"'  c #FFCC01",
"]  c #F5C30D",
"[  c #F9C60A",
"{  c #FDCC0A",
"}  c #F9C605",
"|  c #FFD00E",
" . c #F5C414",
".. c #FACA14",
"X. c #F3C41C",
"o. c #F7C81A",
"O. c #F9CB1C",
"+. c #F8C713",
"@. c #FFD113",
"#. c #FFD31E",
"$. c #EEC22B",
"%. c #EFC126",
"&. c #F3C524",
"*. c #F6C924",
"=. c #F2C52B",
"-. c #F5C92C",
";. c #F9CC27",
":. c #FDD32B",
">. c #FFD82E",
",. c #FED323",
"<. c #EDC233",
"1. c #ECC33C",
"2. c #F4CA34",
"3. c #F9CE33",
"4. c #F0C73C",
"5. c #F4CC3C",
"6. c #F1C633",
"7. c #FCD434",
"8. c #FFD934",
"9. c #F7D03C",
"0. c #FBD43A",
"q. c #FFD93E",
"w. c #BB8C41",
"e. c #B48549",
"r. c #BF9143",
"t. c #B78B52",
"y. c #B9945A",
"u. c #B28C64",
"i. c #C49542",
"p. c #C79945",
"a. c #CB9B43",
"s. c #C79B4C",
"d. c #C8984B",
"f. c #D2A346",
"g. c #DAAD44",
"h. c #D0A549",
"j. c #D6AD4D",
"k. c #D7AC48",
"l. c #DCB445",
"z. c #DDB44E",
"x. c #CDA256",
"c. c #D2AB57",
"v. c #DBB757",
"b. c #CFA046",
"n. c #E2BA49",
"m. c #E3BB51",
"M. c #E3BC5A",
"N. c #C69D70",
"B. c #CBA567",
"V. c #DBBC64",
"C. c #D9B969",
"Z. c #D7BA73",
"A. c #CFAE6F",
"S. c #E0BE64",
"D. c #EDC443",
"F. c #EBC44B",
"G. c #EFC949",
"H. c #F3CD43",
"J. c #F2CD4C",
"K. c #FAD444",
"L. c #FEDB45",
"P. c #FFDC4C",
"I. c #F7D249",
"U. c #EBC556",
"Y. c #EECA57",
"T. c #EBCA5A",
"R. c #F1CE56",
"E. c #F5D353",
"W. c #FFDD54",
"Q. c #F5D55C",
"!. c #FEDE5C",
"~. c #F9D654",
"^. c #EFD05F",
"/. c #FFE053",
"(. c #FFE25C",
"). c #FFE04E",
"_. c #DDC27C",
"`. c #E6C463",
"'. c #FCDE62",
"]. c #FADE6B",
"[. c #F4D766",
"{. c #E4C575",
"}. c #F1D773",
"|. c #F4DC7B",
" X c #F8DE78",
".X c #FFE162",
"XX c #FFE366",
"oX c #FFE265",
"OX c #FFE364",
"+X c #FFE369",
"@X c #FFE469",
"#X c #FFE46C",
"$X c #FEE672",
"%X c #FFE875",
"&X c #FFEA7B",
"*X c #FAE57E",
"=X c #B79786",
"-X c #BFA18A",
";X c #CCAD87",
":X c #D4B589",
">X c #D2B38B",
",X c #D9C38D",
"<X c #DDC994",
"1X c #ECD788",
"2X c #E4CD95",
"3X c #F0D584",
"4X c #FFEC83",
"5X c #FFEE8B",
"6X c #F6E288",
"7X c #FFF08F",
"8X c #FAEA95",
"9X c #FFF193",
"0X c #FFF39C",
"qX c #DDC7A1",
"wX c #EBD5A5",
"eX c #F5EAA9",
"rX c #FFF5A4",
"tX c #FFF6AB",
"yX c #FFF8AC",
"uX c #FFF9B3",
"iX c #FFFBBC",
"pX c #FAF2B5",
"aX c #F4EBB1",
"sX c #FFFDC4",
"dX c #FFFFCC",
/* pixels */
"                                                                                                                                ",
"                                                                                                                                ",
"                                                                                                                                ",
"                                                                                                                                ",
"                                                                                                                                ",
"                                                                                                                                ",
"                                                                                                                                ",
"                                                                                                                                ",
"                                                                                                                                ",
"                                                                                                                                ",
"                          |.J.V m B B ^ ^ ^ ~ ~ Y U l.{.                                                                        ",
"                    |.&.V $.2.K.L.P.P.0.0.P.0.P.P.q.-.<._ k.Z.                                                                  ",
"                ].x ^ 4.P.P.W.(..X(...C O.[ 2.o.2.XXOX(.P.:.<.z.C.                                                              ",
"              ] ~ H.W.W.!..X.X.X.X-.( 2.<.-.B 4...[ <.(.(.@XOX>._ V.Z.        #X.X#X                                            ",
"          W.m D.W.W.!.(..X.X.XoXoXK.*.9.X.-.2.9.J.'.+.] %.E.&X&X/.#.n.<.{ l j W ~ ~ N m v L.                                    ",
"        7.N J.!.W..X.X.X.XoXoXoXXXoX=.[ =.]  .X.} 9.-.XX+.] X.Q.5X/.' f T J.'.!.!.!.!.!.J.<.M +. X                              ",
"      q.j ~.!.!..X.X.X.X.X.XoX/.(.oX@X!.H.~.E.4.H. .X.X.X.@X*.[ n ` G E.'.!.!.!.!.!.!.!.W.W.W.4.^ X.                            ",
"    #Xm J.!.!..XoX.X.XoXoXoXP.8.Y.@X@X#X$X%X$X%X%X$X+X&.&.X.X.! } H !.'.!.!.(.oX+X+X+XoX.X.X(.W.P.5.M J.                        ",
"    ` _ !.!..XoX.XoXoXoX@XL.' @.(.#X#X%X%X%X%X&X&X&X4X&X%X$.S z J !.!.!.!.oX#X#X@X@X+X+XoX@X+XoX.XW.P.$.V                       ",
"  !.h !.!.!.oXoX.XoXoXoX7.' ' ' ' >.@X%X%X$X%X&X&X&X4X&X4Xp.9 z n.!.!.!.+X#X#X#X#X@X@X@X+X@X@X@X@X@X(.P.9.m                     ",
"  } Q '.!..XoXoXoXoXoX,.[ ] ' ' ' ' ' L.%X%X&X&X&X4X4X4Xx.X b U !.!.!.K.O.0.oX#X#X#X@X@X@X#X#X#X@X@X@X@XW.9.m                   ",
"  l G.!.!.oXoX+X+X@XK./ n.l.T M ' ' ' ' { (.&X&X4X4X4X}.X 2 ` Q !.!.&. .H.G...#X#X#X#X#X#X#X#X#X#X@X@X#X@X(.0.m                 ",
"  d !.!.!.+X.XW.(.@XR.].@X@X].m.T M ' ' ' ' @.OX&X4X4X1 q S l G.W.!.H...2.3.[ (.[.2.O.,.7.L./..X#X#X@XK.] [ 7.8.m               ",
"R.h '.!.!.oX*.%.' O.W.@X#X#X#X$X#Xm.R c ' ' ' ' @.OX&XK 1 % g W.W.].[ 6.!.] $.7.$X[.g.M ' ' ' q.P.XX#X+.oX-.2.W.7.j             ",
"M.g ~.!.!.9. .W.*.&.4.oX#X#X#X$X%X%X].m.R c ' ' ' ' X., - T f W.W.[.-.[ 6.&.O.Q.%X$X$X! ' ' ' (.#X$X#X[ -.J.C +.L.=.l.          ",
"C.z D.!.!.*.&.X.<.c  .5.#X$X$X%X%X%X&X&X$Xz.R ] ' ' s > a.0 g W.P.Q. .!.J.' <.#X%X%X%Xm.c ' ' P.%X%X$XX.X.3.-.o.I.P.~ {.        ",
":X` T !.!.=.-.X.3. .' O.P.$X%X&X%X&X&X&X4X4X Xz.Y ] J a., t g P.P.}.H.+.=.B 0.%X&X&X%X[.N ' ' 8.%X%X%X~.=.X.I.D.X.K.0.E         ",
">Xi d ~.!.~.5.=.] .X&.+.-.(.%X%X%X&X&X&X4X4X4X4X Xz.! ; e k.Z D.P.8X[ '.D.} E.&X&X&X&X%XT ' ' | %X&X&X&X4.=.*.2...!.OX( V.      ",
"  @ v T !.W.].E. .*.J.( B =.!.%X&X&X4X4X4X4X4X5X5X9Xs.i.f.; m _ P.^.8XO.5.B L.&X&X&X&X&Xg.' ' ' #X&X&X&X%XH.X.9.G.X.!.0.Q       ",
"  X F l _ W.W.8X$.X.2.L.$.c  .-.$X4X4X4X4X4X5X5X9X9X{.b.- j./ / L.uX&.-.G.} ~.&X&X&X&X&Xm.c ' ' (.&X&X4X&X[.=.-.5.7.].XX_ C.    ",
"  X 2 i g D.W.W.|.J.J.+.'.7.X.] +.5.&X4X4X4X5X5X9X9X1X- z.j.7 j L.5XX.].2.B :.4X4X4X4X4X[.N ' ' L.4X&X4X4X4X4.&.K.^ O.4X>.j.    ",
"  4 2 X j b _ P.P.5X|.6.J.[ *XK.X.[ +.E.9X0XrXuXiXdXaXm.a.; U.g 4.!.pX} [.[ 5.&X4X4X4X4X*XR ' ' #.&X4X4X4X4X$XX.2.9.J.~.P.l.    ",
"    2 X L 9 l W I.P.XX8XJ.H.H.+.].*.7.5XdXdXdXdXdXdXdXx.< R.p.u ) L.|.2.!.6...&X5X4X4X4X4Xk.' ' ' &X4X5X5X5X5X&.+.E.[ &X#X_ Z.  ",
"    :XX L - Q d g _ L.L.].rXR.}.X.8X1.^ Q.dXdXdXdXdXdXZ.Q.w.w F.d 9. X6X..<.O.+X5X5X5X5X5XU.c ' ' XX5X5X5X5X5X$X} oXE.2.5XO.c.  ",
"      4 L - f.; _ f j / 2.q.P.4XR.tXdXdXdXdXdXdXdXiXrX$Xw w.U.< F ~ P.G.H.I.C L.5X5X5X5X5X}.N ' ' /.5X9X7X7X7X5XX.-.+.].9X,.C.  ",
"        x.- f.; m.> D.D f j ~ ( 2.7.8.q.P./.L.8.:.B j G p.U., r k.a 3.G.iXX.'.J.5X5X5X5X5X5XR ' ' >.4X%XL.&X9X5X4.&.H.X.9X>.V.  ",
"          e.f.; m.> Y.> U.= Q D s i i i i i p 9 8 % 8 # I ; i.j.; D Y L.sX`.O.sX0X9X9X9X9X9Xk.' ' { 7.O.Q.9X9X9X4.H.o. X*X8.V.  ",
"            2X; m.> Y.> U.> z.; f.- L ; q O + X = - 8 O y i.f.- K L y ( %XsXF.uXsXrX9X9X9X0X`.c ' ' 0.9X0X0X0X0X].4X[ 0XrX>.v.<X",
"              b f.> Y.> U.> z.; f.- L - 2 X + X = - 8 O y t X i.K X t u -.0XdXdXdXdXtX0X0X0X|.N ' :.5X0X0X0X0X0X0X0X&.rXiX@.C.qX",
"              s u e j.< U.> z.; f.- L - 2 X + X = - 8 O y @ b.e X e 1 # i :.uXdXdXdXdXiXrXrX0XR { &X0XrXrXrXrXrXrXrX*XuXiX{ _.  ",
"              # v P < r p.w.k.> f.- L - 2 X + X = - K w.{.eXpX> K , X * % G :.uXdXdXdXdXdXuXrXk.+X0XrXrXrXrXrXrXrXrXiXdX5X] 2X  ",
"              , a f L r w i.w.h.P P J 0 I 0 ! I 1.Q.$X&X&X@X(.4.: - * - X % D ;.uXdXdXdXdXdXdXeXtXrXrXyXtXtXyXyXuXsXdXdX#._ :X  ",
"              e.: l U k.w i.w.h.r.j.r.! H J i s h U U U U G D 9 # * - - * O $ D *.rXdXdXdXdXdXdXdXdXsXsXiXsXsXdXdXdXdX4X{ Z.:X  ",
"              N.: q z T n.a.w.h.r.j.r.h.r p.3 K 1 q = = @ # @ = @ O - * O O & # 9 N (.sXdXdXdXdXdXdXdXdXdXdXdXdXdXdXrX{ E <X    ",
"                : 2 0 l U J.k.h.r.j.r.h.r p.3 r < 2 ; : - + O = @ 8 # X @ & O # y % F O.9XsXdXdXdXdXdXdXdXdXdXdXdX9X{ V <X>X    ",
"                t.2 3 r g j _ I.l.z.r.h.r p.3 r < 2 ; : - + O = @ 8 # & & X = y O % y 7 j ..@XuXdXdXdXdXdXdXdXuXL.' b ,X;X      ",
"                  w < r w T g Y 4.L.F.M.r.p.3 r < 2 ; : - + O = @ 0 r S.r.8 A X 9 u O A 7 $ F M @.8.(.&X%X/.| ' x P ,Xu.        ",
"                    < r w i.r E g Y ( 0.q.!.`.j.B.B.t.s.t.B.B._.1X4X).X.h 7 O y y X u a O u A : t D h f g d G s.A.B.5           ",
"                    :Xr w i.w.h.i.Q h d Y ~ $.3.7.8.q.P.L.8.:.X.N J 9 % $ y % u O a u O f a O g i < r e.t.y.y.4 . =X            ",
"                        w.i.w.h.r.j.r.f.S H D i u u i i p 9 8 7 % 8 # y = u % a 9 u @ b u @ z a @ d y O 6 $ o .                 ",
"                          B.w.h.r.j.r.h.r p.3 r < 2 : # O + O = @ 8 # y = u % a 0 3X  C.0 x p @ k 6 O 6 @ o u.                  ",
"                              c.r.j.r.h.r p.3 r < 2 ; : - + O = @ 8 # y = u 7 `.            Z.`.p.e c.y.-X                      ",
"                                  {.i.h.r p.3 r < 2 ; : - + O = @ 8 # y t {.                                                    ",
"                                      wXA.x.w r < 2 ; : - + O = : s.B.                                                          ",
"                                                    >X>X>X                                                                      ",
"                                                                                                                                ",
"                                                                                                                                ",
"                                                                                                                                ",
"                                                                                                                                ",
"                                                                                                                                ",
"                                                                                                                                ",
"                                                                                                                                ",
"                                                                                                                                ",
"                                                                                                                                "
};
