/* XPM */
static char *_5c3e046773745ceb40864b6633fcdcfgQKt0YMvVhbCnozv[] = {
/* columns rows colors chars-per-pixel */
"64 64 241 2 ",
"   c None",
".  c #000D36",
"X  c #03153C",
"o  c #061848",
"O  c #051B55",
"+  c #0B2651",
"@  c #031D68",
"#  c #092368",
"$  c #163B65",
"%  c #0A2877",
"&  c #0F3577",
"*  c #173C7B",
"=  c #142A72",
"-  c #174474",
";  c #234E79",
":  c #606D77",
">  c #092987",
",  c #123988",
"<  c #0A2C97",
"1  c #103991",
"2  c #233D8E",
"3  c #0932B1",
"4  c #154A89",
"5  c #1D5385",
"6  c #174A98",
"7  c #154A9D",
"8  c #254686",
"9  c #245688",
"0  c #295A9C",
"q  c #355195",
"w  c #2A649A",
"e  c #306593",
"r  c #1550B1",
"t  c #2558A7",
"y  c #2B56B7",
"u  c #3352A8",
"i  c #1C62B1",
"p  c #2766A9",
"a  c #3675AA",
"s  c #346BB4",
"d  c #2B73B8",
"f  c #377AB8",
"g  c #2C6CAD",
"h  c #465797",
"j  c #4E5B92",
"k  c #4A6796",
"l  c #576898",
"z  c #5B7696",
"x  c #586C8D",
"c  c #617696",
"v  c #437CA9",
"b  c #5172AA",
"n  c #657CA9",
"m  c #0C3BCB",
"M  c #1B6DCA",
"N  c #277ACA",
"B  c #3171CB",
"V  c #1757F6",
"C  c #2F74E8",
"Z  c #2158DC",
"A  c #5179CB",
"S  c #4064E6",
"D  c #3C81BF",
"F  c #5B829B",
"G  c #5A8BA8",
"H  c #5B91AB",
"J  c #4889B8",
"K  c #598AB8",
"L  c #5898BA",
"P  c #488AB2",
"I  c #7697AA",
"U  c #638DB5",
"Y  c #6B92B5",
"T  c #6697B7",
"R  c #7D9DBB",
"E  c #7498B6",
"W  c #698EAB",
"Q  c #57A2BC",
"!  c #69A2BC",
"~  c #7BA4B8",
"^  c #3B85C6",
"/  c #3996D7",
"(  c #338CD0",
")  c #3AA3DD",
"_  c #3696ED",
"`  c #36ABF8",
"'  c #4998C8",
"]  c #599AC5",
"[  c #4595D4",
"{  c #4B8BCC",
"}  c #659AC4",
"|  c #779DC1",
" . c #4DA4CB",
".. c #5AA6C9",
"X. c #46A8D8",
"o. c #56A8D7",
"O. c #59B7DC",
"+. c #52B4D6",
"@. c #6BA6C3",
"#. c #6AA8CC",
"$. c #7CA2C4",
"%. c #73ABCB",
"&. c #78AAC9",
"*. c #68ADD5",
"=. c #74ADD1",
"-. c #6AB4D7",
";. c #75B4D5",
":. c #7BB5D5",
">. c #77BADC",
",. c #5299E9",
"<. c #4C94EA",
"1. c #6C92EF",
"2. c #57ABEA",
"3. c #55BBE6",
"4. c #54AEEF",
"5. c #69B9E4",
"6. c #78BAE6",
"7. c #66B6F7",
"8. c #72B0F9",
"9. c #39C6F3",
"0. c #6BC2DE",
"q. c #5BC5E4",
"w. c #4EC7F6",
"e. c #66C7E4",
"r. c #79C7E8",
"t. c #78D4E7",
"y. c #6CC6FA",
"u. c #7BDAFA",
"i. c #6ACFF3",
"p. c #5EC0DE",
"a. c #859BB5",
"s. c #86A3BB",
"d. c #87A6BB",
"f. c #91B1BD",
"g. c #8AB1BF",
"h. c #8DAAC4",
"j. c #85A8C5",
"k. c #93ACC6",
"l. c #89B4C8",
"z. c #9CB5CC",
"x. c #96B7CA",
"c. c #87BAD7",
"v. c #94B5D2",
"b. c #9CBBD4",
"n. c #96BDD7",
"m. c #A7BBC9",
"M. c #A3BDD4",
"N. c #AABED3",
"B. c #A2BFD8",
"V. c #B1BCC7",
"C. c #82BDE2",
"Z. c #88B2FC",
"A. c #87C3DE",
"S. c #9AC3D8",
"D. c #9FC4CE",
"F. c #A5C4D5",
"G. c #AAC1D5",
"H. c #ACC4DA",
"J. c #A7C8DA",
"K. c #B4C5D6",
"L. c #B3C6D9",
"P. c #B4CADC",
"I. c #BBCCDB",
"U. c #B6C9D6",
"Y. c #BCD2DC",
"T. c #ABCAD4",
"R. c #88C8E7",
"E. c #96CBE7",
"W. c #88D4ED",
"Q. c #98D4EC",
"!. c #88C8F9",
"~. c #8DD3FA",
"^. c #87DAF9",
"/. c #99DBF7",
"(. c #AACAE4",
"). c #B4CDE3",
"_. c #BACEE1",
"`. c #A4D6ED",
"'. c #BDD2E3",
"]. c #B8D7E9",
"[. c #ACDBF4",
"{. c #A5DAF5",
"}. c #B3DCF3",
"|. c #A0CFFB",
" X c #8BE8FB",
".X c #94E3FB",
"XX c #9BE4FB",
"oX c #9BEBFB",
"OX c #96E6F8",
"+X c #99F5FD",
"@X c #81F4FE",
"#X c #A4E4FB",
"$X c #A9E7FA",
"%X c #BAEEFB",
"&X c #B7E5F7",
"*X c #A3F4FD",
"=X c #ABF6FD",
"-X c #A5FAFD",
";X c #ADFAFE",
":X c #B4F5FC",
">X c #BCF6FD",
",X c #B5F8FE",
"<X c #BBF9FE",
"1X c #ABE1EE",
"2X c #C0CEDC",
"3X c #C3D1DE",
"4X c #C4D4E3",
"5X c #CAD7E3",
"6X c #CCDAE6",
"7X c #C6D9EA",
"8X c #CCDDEB",
"9X c #C4D9E7",
"0X c #D2DDE7",
"qX c #D2DDE9",
"wX c #C5DEF2",
"eX c #CCE1EC",
"rX c #D5E2EC",
"tX c #DBE5ED",
"yX c #DAE5EB",
"uX c #CEE3F2",
"iX c #C5EBFA",
"pX c #CAE9F8",
"aX c #D3E5F2",
"sX c #DAE9F4",
"dX c #D8EBF7",
"fX c #C3F9FE",
"gX c #CCF9FE",
"hX c #C5F4FD",
"jX c #D4F2FB",
"kX c #DBF4FC",
"lX c #D4FAFE",
"zX c #DBFAFF",
"xX c #E1EDF4",
"cX c #E1EEF8",
"vX c #E2F4FC",
"bX c #E3FBFF",
"nX c #ECFBFE",
"mX c #E8F4FB",
"MX c #F3FCFF",
"NX c #F9FEFF",
"BX c #E1E9EF",
/* pixels */
"                                                                                                                                ",
"                                                                                                                                ",
"                                                                                                                                ",
"                                                                                                                                ",
"                                                        W.R.`.1X1XQ.R.W.                                                        ",
"                                                t.t.-X;X<XfXlXzXzXgXfX<X;X-X Xe.                                                ",
"                                            `.%X-X-X>XfX<X>XfXlXlXgXfX>X:X=X-X+X+Xi.                                            ",
"                                        R.oXZ.#X%X:X/..XfXfXgXgXlXlXfXfX,X=X*X*X+X+X@X9.                                        ",
"                                      w.=X#XXX/.!.~.^..X>XlXgXgXlXlXlXgXfX,X=X*XXX.X.X X9.                                      ",
"                                    9.^.$X/.XX!.~.oXoX+X>XgXgXlXlXlXlXgXfX>X,X=XoX.X~./.|.` (                                   ",
"                                  ` ^./.~..XXX^..X*X*X+XgXlXlXlXlXlXzXlXgXfX<X:X*XoX.X8.1.~.w.5.                                ",
"                                w.y.!.~.~.oX*X*X+X=X=X*XlXzXzXzXzXzXzXzXlXgXfX<X=X+XoX8.1.1.S V 2.                              ",
"                              w.` 7.1.8..X.X=X<X=X;X<X,XlXzXbXzXzXbXzXlXlXlXgX>X:X=X X7.8.1.A m V o.                            ",
"                            3._ <.6.!.!.^.*X>X,X+X=XfXlXzXbXbXnXbXbXbXnXzXlXgXfX<X=X Xy.7.,.A r 3 C                             ",
"                          o.Z y y 6.~..X#X>X,X,X*X;XlXzXbXnXnXnXnXnXnXlXzXbXlXlX,X+X+X^.7.4.<.y < 3 <.                          ",
"                          C < 1 ( !.#X$X>XfXfX;X<XlXzXnXnXnXnXnXnXMXnXbXlXbXzX,X*X+X Xu.7.4.<.B < > m                           ",
"                        ,.3 , d / !.#X/.:XfXfXfXgXlXzXbXnXMXMXMXMXMXMXMXbXbXlX>X;X+X Xu.y.4.,.B 3 > < C                         ",
"                        Z > 0 d / !.~.~.$X>XgX<XfXgXzXbXbXMXMXMXMXMXMXMXnXbXzXfX,X-X Xu.y.4.,.M r > % 3                         ",
"                      { < = p f [ 2.7.^.XX:X:X,XfXgXlXbXnXMXMXMXMXMXMXMXMXnXzXgX<X-X+Xu.y.7.<.M r < # % B                       ",
"                      B % # 7 ^ [ / 4.y.#X#X$X,XfXgXlXbXnXMXMXMXMXMXMXMXMXMXbXlX>X-X+Xu.y.7./ N i 1 # @ r                       ",
"                      r # # 1 d / / 2.y.XX#X#X,X>XgXlXbXnXMXMXMXMXNXNXNXMXMXbXlXfX-XoX^.y.4./ N i 7 % O >                       ",
"                      > O = 6 s ^ [ 6.r.{.{.#X%X>XfXlXzXbXnXMXMXNXNXNXNXNXMXbXlXfX=XXX^.y.2.[ N i 7 % O @ B                     ",
"                    B # O 8 g p d ^ -.C.Q.{.[.&X%XfXgXlXzXbXnXMXNXNXNXNXNXMXlXhX>X$X/.W.5.2.[ N i 7 % O O y                     ",
"                    A O o - p p d J ..:.C.`.[.{.&X%XhXgXlXzXbXnXNXnXnXbXnXbX%X&X&X$XE.r.5.o.[ d i 7 % O O 7                     ",
"                    s O o * 0 p a J } =.c.E.E.Q.`.[.&XiXhXlXnXNXbXzXzXkXkXpXjXiX&X/.E.r.5.o.^ d t 6 % O o ,                     ",
"                    t o o # , w a J ] #.c.E.E.E.Q.`.}.&XiXjXkXvXbXbXkXpXiX&X].}.&XQ.Q.r.*. .^ g t 4 % O o &                     ",
"                    0 o o # 4 e a v ] #.c.c.C.E.Q.`.}.}.iXpXkXnXMXnXvXpXpXiX}.&X[.Q.R.5.o.' D p 7 4 # o X %                     ",
"                    0 + + $ 9 9 w v K #.;.;.c.R.E.`.}.&X&XiXnXnXnXnXnXvXkXjXpX}.[.Q.A.-.o.' f t 6 , # o . #                     ",
"                    6 O + - 5 9 w v K ] #.*.>.C.E.`.[.}.&XkXvXmXnXmXvXkXjXpXiX[.Q.W.r.>...J f t 4 & # . . &                     ",
"                    , O + $ 9 9 w a J ] ..-.>.R.E.`.`.[.&XkXkXvXvXvXkXjXjXiX&X1XE.W.5.*...J P p 6 4 - o X 1                     ",
"                      & $ $ 5 w a a K ] o.-.>.r.R.W.Q.{.&XjXjXjXjXjXjXpXiX&X&X{.E.r.5...] L P g w 9 - $ + t                     ",
"                      4 - - 5 w g v K #.*.O.O.O.5.r.r.W./.$X%X%X%X%X%X&X$X#X/.W.W.r.-.#.] J f a g 9 ; $ 8 a                     ",
"                      > & & 4 p d f { ' o.X.X.X.X.3.3.e.e.W.OXOXoXoXoX#XXX/.W.t.r.r.>.#...] J v a e ; * 2                       ",
"                      2 * - 4 1 r i N / / / / ) ) X.3.q.e.e.t.t.e.t. XOX/.Q.W.r.r.6.;.=.#.] L P v e 9 0 s                       ",
"                        2 8 5 1 r i M N ) X.X.X.3.3.q.q.q.e.t.t.W.W.W.u.Q.W.r.r.r.c.:.;.%.@.L J P k h q J                       ",
"                        u 8 0 2 t i M ( ( +.3.+.O.q.e.e.e.r.r.r.E.R.Q.W.W.W.R.r.A.>.:.;.%.@.L K G k h q                         ",
"                          q k q u y d ^ ( ( ) 3.q.O.p.e.e.e.e.e.r.R.E.R.R.R.R.R.n.c.c.&.@.@.L H z k h n                         ",
"                          b h k h u s A { / / X.-.-.>.0.p.p.p.e.0.r.A.R.R.C.6.>.c.l.&.%.@.! T G z l h                           ",
"                            l l k h u v { ' ' o.=.;.:.>.>.>.>.>.>.>.A.C.>.>.*.*.;.:.%.@.! T H c l l s.                          ",
"                  '.P.T.P.Y.z.j l k h b K ] ] ..=.=.-.-.O.-.-.;.;.;.>.O.o.o.o.+.+. ...L L H F z l } J.D.F.J.                    ",
"                rXeXdXdXdXcXcXz.j l j l b U U @.%.%.%.=.=.=.-.-.-.;.;.o.o. .X. . .' J P v k l x Y kXvXdX&X/.A.m.                ",
"                Y.eXmXdXdXdXcXvXh.l x x l b T ! @.@.%.&.j.&.=.=.;.#.*.o.' ' .. .' J P v k k k n sXcXxXvXvXvX}.F.z.              ",
"              F.'.sXxXsXsXsXsXsXxXk.x : x c H T E ! @.@.%.%.%.#.#..... .' ' Q Q L G b l l l W aXaXaXsXsXdXdXdXdXJ.D.            ",
"            S.8XrXsXaXaXaXsXsXsXrXtXH.c : z z F H H H H L L L ....Q L ] L L H G E h.M.k.I j.8X8XeXaXaXsXsXsXuXpXdXJ.            ",
"          I S.8XrXrXrXrXrXrXtXrXqX6X0X4XW n k.F k z R k.P.b.T T U ~ E I I R R k.).).).).'.'.9XuXaXuXaXaXaXaXuXuXuXuXg.          ",
"        I S.J.'.6X6X6XqXrXrXqXqX5X2XK.V.V.a.U.6XI.m.6X7X'._._.H.L.7X9X9XuXwX].).(.(.)._.9X4X6XuXuXaXaXeXeXeX7X].].).c.          ",
"        ~ c.n.P.I.4X4X4X5X0X0X6X4XU.V.V.I.3X4X8X6X6X4X_._._.'.9X8X8X8XaXsXaXaX7X'.'.7X6X9X3X3XrXaX8X8X7X7X9X).).).G.x.I         ",
"        I %.j.v.H.I.4X3X3X3X4X4X3XI.K.K.I.I.I.4X4X9X6X9X'.'._.P.I.4X6XsXxXxXtXtXtXrX0X0XqX0X0XrXrXqX6X4XP.P.S.S.b.z.b.c.        ",
"        $.&.&.l.b.L.3X3X2XI.U.I.U.G.N.K.H.H.G.H.H.H.H.F.B.b.B.M.H.I.6XtXtXtXxXBXyXyX0XqX6X6X0X0X0X6X4X2XU.K.P.L.F.I.F.~         ",
"        G T &.j.l.l.5X4XU.N.N.M.N.M.M.N.N.b.B.b.v.b.B.H.F.B.B.B.'.4X6X9X9XeXrXtXrXqX0X6X6X5X4X5X5X3XI.U.U.K.I.I.P.4XY.l.        ",
"          #.%.j.h.h.M.L.M.z.z.h.k.h.h.k.v.v.v.v.v.v.v.v.v.B.H.L.6X4X9X'.'.'.5X9X9X9X4X5X6X6X2XI.2X2XI.I.L.K.P.I.P.D.l.          ",
"            I ~ h.h.k.z.z.k.h.R R R j.| | $.$.| $.$.$.j.j.v.b.b.B.B.M.b._.6X4X4X6XqX6X6X6X6X4XI.I.I.I.U.H.M.H.I.H.l.            ",
"              f.~ l.h.d.d.s.R R E R j.j.$.U K K K Y E $.$.| $.| | | | z.H.P.P.I.'.6X6X5X3X4X3XI.P.U.U.G.G.M.L.I.L.D.            ",
"                  d.~ s.s.s.s.s.s.h.z.M.M.$.U K U U U G K U U Y E Y Y E E h.z.M.K.I.I.I.U.H.G.N.G.H.H.F.G.K.I.5XJ.              ",
"                    g.~ d.j.l.l.k.m.2XU.z.R Y Y Y Y Y Y E E E Y Y Y Y I E j.v.F.N.N.N.B.S.(.n.n.B.P._.H.9XF.Y.J.eX              ",
"                        J.    J.l.x.F.l.~ d.d.s.d.d.d.s.d.d.k.h.h.k.z.k.F.Y.'.9X).H.(._.4X_.S.c.l.F.n.l.x.~ E                   ",
"                                  S.J.  f.d.E f.m.m.x.z.m.V.m.Y.4XP.4X'.'.4X5X4X6X6X9X'.l.H F z F                               ",
"                                                l.l.l.l.x.l.l.v.x.s.z.F.l.rXtX0XP.J.x.W                                         ",
"                                                                        d.l.b.l.T                                               ",
"                                                                                                                                ",
"                                                                                                                                ",
"                                                                                                                                ",
"                                                                                                                                ",
"                                                                                                                                "
};
