/* XPM */
static char *result[] = {
/* columns rows colors chars-per-pixel */
"64 64 75 1 ",
"  c #A91B2A",
". c #A91B2B",
"X c #AC1B2B",
"o c #AE1B2B",
"O c #AB1C2B",
"+ c #AC1C2B",
"@ c #AD1C2B",
"# c #AE1C2B",
"$ c #AB1C2C",
"% c #AC1C2C",
"& c #AD1C2C",
"* c #AE1C2C",
"= c #AF1C2C",
"- c #AF1C2D",
"; c #B01C2C",
": c #B01C2D",
"> c #B11C2D",
", c #B21C2D",
"< c #B31C2D",
"1 c #B31D2D",
"2 c #B41D2D",
"3 c #B51D2D",
"4 c #B61D2D",
"5 c #B71D2D",
"6 c #B81D2E",
"7 c #B91D2E",
"8 c #BA1D2E",
"9 c #BB1D2E",
"0 c #B81E2E",
"q c #BA1E2F",
"w c #BB1E2F",
"e c #BC1E2E",
"r c #BD1E2F",
"t c #BE1E30",
"y c #BE1F30",
"u c #BF1F30",
"i c #C01E30",
"p c #C11E30",
"a c #C01F30",
"s c #C11F30",
"d c #C11F31",
"f c #C21E30",
"g c #C31E30",
"h c #C31F30",
"j c #C31F31",
"k c #C41E30",
"l c #C41F30",
"z c #C41F31",
"x c #C51F31",
"c c #C61F31",
"v c #C71F31",
"b c #C51F32",
"n c #C61F32",
"m c #C71F32",
"M c #C81F32",
"N c #C91F32",
"B c #C91F33",
"V c #CA1F32",
"C c #C62031",
"Z c #C72032",
"A c #C82031",
"S c #C82032",
"D c #C92032",
"F c #C92033",
"G c #CA2032",
"H c #CB2032",
"J c #CA2033",
"K c #CB2033",
"L c #CB2133",
"P c #CC2032",
"I c #CC2033",
"U c #CD2033",
"Y c #CD2133",
"T c #CE2033",
"R c #CE2133",
/* pixels */
"================================================================",
"================================================================",
"====*******************************************************&====",
"====icxxxxxxxxxxxxxxxxxxxxxxxxxxxxxxxxxxxxxxxxxxxxxxxxxxxxct====",
"==*7TNMMMMMMMMMMMMMMMMMMMMMMMMMMMMMMMMMMMMMMMMMMMMMMMMMMMMVT2*==",
"==&wKpppppppppppppppppppppppppppppppppppppppppppppppppppppfI4*==",
"==&wKfffffffffffffffffffffffffffffffffffffffffffffffffffffgI4*==",
"==&wKffffffkgffffffffffppppppppffffffffffffffffggggggggfffgI4*==",
"==&wKffffzKUYbffffffffgmNMMMMNMlffffffffffffffnYYYYYYYYKffgI4*==",
"==&wKfffpNxXaKpfffffffGAxxxxxxvKgfffffffffffffKr->>>>>,DxpgI4*==",
"==&wKfffpvGtSBpffffffgI4&****&:YgfffffffffffffKw%*****=SxpgI4*==",
"==&wKfffffvIDffffffffgI4*====*>YgfffffffffffffKw&=====;SxpgI4*==",
"==&wKfffffpppffffffffgI4*====*>YgfffffffffffffKw&=====;SxpgI4*==",
"==&wKffffffffffffffffgI4*====*>YgfffffffffffffKw&=====;SxpgI4*==",
"==&wKffffffffffffffffgI2+@@@@+-YgfffffffffffffKw&=====;SxpgI4*==",
"==&wKfffffffffffffpffgKzaaaaaadYfffffffffffffpMKmMMMMMMIjfgI4*==",
"==&wKffffgGIPPPPPPDfffkGKKKKKKHxpffffffffffffffxcccccccjffgI4*==",
"==&wKfffpFC7888888SvpffpppppppppffffffffffffffffpppppppfffgI4*==",
"==&wKfffpKuO&&&&&%jNpfffffffffffffffffffffffffffffffffffffgI4*==",
"==&wKfffpKa@=====*zNpffffffffffpppppppffffffffffffffffffffgI4*==",
"==&wKfffpKa@=====*zNpffffffffffvNMMMMMzffffffgffffffffffffgI4*==",
"==&wKfffpKa+*****&zNpffffffffpMDxxxxxcIjfffhGUUMffffffffffgI4*==",
"==&wKfffpKs=>>>>>:xNpfffffffffKw%****=SxffpMm26YgfffffffffgI4*==",
"==&wKffffbYYYYYYYYKzffffffffffKw&====;SxffpMm26YgfffffffffgI4*==",
"==&wKfffffggggggggffffffffffffKw&====;SxfffhGUUMffffffffffgI4*==",
"==&wKffffffffffpppppppffffffffKw&====;SxfffffgffffffffffffgI4*==",
"==&wKffffffffffccccccczfffffffKq$&&&&*SxffffffffffffffffffgI4*==",
"==&wKfffffffffNGmMMMMMPxfffffpKj788889KzffffpppppppppfffffgI4*==",
"==&wKffffffffgI4*====*zNpffffpxKPPPPPPMfffffvNMMMMMNvfffffgI4*==",
"==&wKffffffffgI4*====*zNpfffffffffffffpfffpmHxxxxxxxHmpfffgI4*==",
"==&wKffffffffgI4*====*zNpfffffffffffffffffpKa+*****+aKpfffgI4*==",
"==&wKffffffffgI4*====*zNpfffffffffffffffffpKa@=====@aKpfffgI4*==",
"==&wKffffffffgI4*====*zNpfffffffffffffffffpKa@=====@aKpfffgI4*==",
"==&wKffffffffgI4*====*zNpfffffffffffffffffpKa@=====@aKpfffgI4*==",
"==&wKfffffffffNGmMMMMMPxffffffffffffffffffpKu+*****+uKpfffgI4*==",
"==&wKffffffffffccccccczfffffffffffffffffffpJz3555553zJpfffgI4*==",
"==&wKfffffffffffppppppffffffggggggggfffffffkIUUUUUUUIkffffgI4*==",
"==&wKffppppffffffffffffffffMYYYYYYYYnffffffffgggggggffffffgI4*==",
"==&wKfpxKKcpffffffffffffffgI6:>>>>-rKfffffffffffffffffffffgI4*==",
"==&wKpfYsaLzffffffffffffffgI4&****%wKfffffffffffgggfffffffgI4*==",
"==&wKpgYoXSxffffffffffffffgI4*====&wKffffffffffMYYYGffffffgI4*==",
"==&wKfgKcxIjffffffffffffffgI4*====&wKfffffffffgU5*,RgfffffgI4*==",
"==&wKfflNMzfffffffffffffffgI4*====&wKffffffffffIe36YgfffffgI4*==",
"==&wKfffppffffffffffffffffgI4&****%wKfffffffffpcIUUMffffffgI4*==",
"==&wKffffffffpppppppppfffffGAxxxxxxDMpfffffffffffgffffffffgI4*==",
"==&wKffffffflMNMMMMMNmgffffgmNMMMMNvffffffffffffffffffffffgI4*==",
"==&wKffffffgKvxxxxxxxAGfffffppppppppffffffffffffffffffffffgI4*==",
"==&wKffffffgY:&*****&4IgfffffffffffffffffffffffffffpffffffgI4*==",
"==&wKffffffgY>*=====*4IgffffffffffffffffpxKPPPPPPPPMffffffgI4*==",
"==&wKffffffgY>*=====*4IgffffffffffffffffpKj78888889KzfffffgI4*==",
"==&wKffffffgY>*=====*4IgfffffffffffffffffKq$&&&&&&*SxfffffgI4*==",
"==&wKffffffgY:&*****&4IgfffffffffffffffffKw&======;SxfffffgI4*==",
"==&wKffffffgY<:>>>>>:6IgfffffffffffffffffKw&======;SxfffffgI4*==",
"==&wKfffffffGYYYYYYYYYMffffppppffffffffffKw&======;SxfffffgI4*==",
"==&wKffffffffgggggggggffffgGKKDffffffffffKqO@@@@@@#SxfffffgI4*==",
"==&wKfffffffffffffffffffffJZuuDBpffffffffJZuaaaaaasLzfffffgI4*==",
"==&wKfffffffffffffffffffffK0. yIpffffffffgGKKKKKKKKcpfffffgI4*==",
"==&wKffffffffffffffffffffpKj77CFpfffffffffppppppppppffffffgI4*==",
"==&wKffffffffffffffffffffpzHPPGgffffffffffffffffffffffffffgI4*==",
"==&wIgggggggggggggggggggggffffffggggggggggggggggggggggggggkU4*==",
"==*2IUUUUUUUUUUUUUUUUUUUUUUIIIIUUUUUUUUUUUUUUUUUUUUUUUUUUUUG,===",
"===*1555555555555555555555555555555555555555555555555555555,====",
"====********************************************************====",
"================================================================"
};
