/* XPM */
static char *_f80d35448b2459c8b78b34528233fe6IT85hG0TSZaoA4J2[] = {
/* columns rows colors chars-per-pixel */
"64 64 205 2 ",
"   c None",
".  c #280F05",
"X  c #2D1306",
"o  c #2C1909",
"O  c #2A1407",
"+  c #331407",
"@  c #3A1707",
"#  c #331A09",
"$  c #3C1B09",
"%  c #3D1708",
"&  c #3B1810",
"*  c #1B2A09",
"=  c #34250C",
"-  c #3C2B0F",
";  c #3A250C",
":  c #22350B",
">  c #263A0C",
",  c #293F0D",
"<  c #3A2C11",
"1  c #273713",
"2  c #3D3412",
"3  c #431C09",
"4  c #4A1E0A",
"5  c #4B220C",
"6  c #41240C",
"7  c #412012",
"8  c #473612",
"9  c #44380F",
"0  c #2B440D",
"q  c #2F490D",
"w  c #314D0E",
"e  c #35540F",
"r  c #37590E",
"t  c #395B0F",
"y  c #38570F",
"u  c #2E4413",
"i  c #304613",
"p  c #324C12",
"a  c #364C1A",
"s  c #365311",
"d  c #395612",
"f  c #3B5C11",
"g  c #3B551A",
"h  c #3E5B1A",
"j  c #3D630F",
"k  c #3E6211",
"l  c #3F6911",
"z  c #384B20",
"x  c #3E5720",
"c  c #484516",
"v  c #415D1D",
"b  c #545719",
"n  c #534A16",
"m  c #416A0F",
"M  c #41670F",
"N  c #416513",
"B  c #446B13",
"V  c #496E16",
"C  c #43641A",
"Z  c #466A1B",
"A  c #496D1D",
"S  c #56651A",
"D  c #467112",
"F  c #4A7414",
"G  c #4D7B14",
"H  c #4B731B",
"J  c #4E7A1A",
"K  c #517E15",
"L  c #53751D",
"P  c #537C1C",
"I  c #5C7C1D",
"U  c #5C751A",
"Y  c #60791A",
"T  c #425B24",
"R  c #466422",
"E  c #486624",
"W  c #476920",
"Q  c #4B6B23",
"!  c #4B6729",
"~  c #506F2E",
"^  c #4D7123",
"/  c #4F7820",
"(  c #517523",
")  c #547C22",
"_  c #52742C",
"`  c #587E27",
"'  c #597633",
"]  c #616C22",
"[  c #697722",
"{  c #627E21",
"}  c #667822",
"|  c #4F8012",
" . c #538415",
".. c #568A15",
"X. c #598D16",
"o. c #55831A",
"O. c #5A851C",
"+. c #578B19",
"@. c #5B8C1A",
"#. c #5C9217",
"$. c #5E921A",
"%. c #5F9918",
"&. c #628B1E",
"*. c #69871F",
"=. c #63941D",
"-. c #649B1C",
";. c #69991E",
":. c #66A01B",
">. c #69A61C",
",. c #6EAC1F",
"<. c #71AE1F",
"1. c #5B8521",
"2. c #5D8B22",
"3. c #588126",
"4. c #5F9121",
"5. c #618624",
"6. c #638C21",
"7. c #688727",
"8. c #639422",
"9. c #6A9223",
"0. c #659B21",
"q. c #6A9D23",
"w. c #759430",
"e. c #6AA322",
"r. c #6EA925",
"t. c #6FA32B",
"y. c #73A424",
"u. c #73AC23",
"i. c #7AAD26",
"p. c #74AB2C",
"a. c #7AAC28",
"s. c #79A525",
"d. c #75B223",
"f. c #7AB525",
"g. c #7BB925",
"h. c #79B32A",
"j. c #7DB82B",
"k. c #7EBA30",
"l. c #729147",
"z. c #88B92E",
"x. c #86B135",
"c. c #82BB31",
"v. c #8DBB34",
"b. c #8DB63B",
"n. c #8EB83A",
"m. c #8AB733",
"M. c #91BE36",
"N. c #92BC3B",
"B. c #91B73E",
"V. c #85A928",
"C. c #85C12B",
"Z. c #89C32D",
"A. c #8CC333",
"S. c #8CC833",
"D. c #93C334",
"F. c #96CB35",
"G. c #9ACE34",
"H. c #96C23A",
"J. c #9AC53C",
"K. c #9DCB3C",
"L. c #97C93A",
"P. c #9CD13B",
"I. c #94C42C",
"U. c #A1CC3E",
"Y. c #A3D33D",
"T. c #A9DA3C",
"R. c #A3D637",
"E. c #97BF41",
"W. c #90B645",
"Q. c #9CC542",
"!. c #9DCA41",
"~. c #9FC64E",
"^. c #9DD045",
"/. c #A3CC43",
"(. c #A5CE4B",
"). c #A9CF4E",
"_. c #A4D244",
"`. c #A9D544",
"'. c #ACD845",
"]. c #A6D14A",
"[. c #AAD549",
"{. c #AFD849",
"}. c #B0DA4B",
"|. c #AACD55",
" X c #A7C559",
".X c #ABD250",
"XX c #B7DD54",
"oX c #B9DF55",
"OX c #BADF5B",
"+X c #B3D45A",
"@X c #BED870",
"#X c #BFE263",
"$X c #C8E76B",
"%X c #C4E567",
"&X c #CDE976",
"*X c #BBD08E",
"=X c #D5ED85",
"-X c #D9EF95",
";X c #DEF199",
":X c #E2F3A3",
">X c #E5F4AB",
",X c #EAF6B9",
"<X c #E9F6B4",
"1X c #F1F9C6",
"2X c #EAF6C0",
/* pixels */
"                                                                                                                                ",
"                                                                                                                                ",
"                                                                                                                                ",
"                                                                                                                                ",
"                          ,X>X                                                                                                  ",
"                        =X'./.[.'.OX%XXXXX#X$X;X:X:X2X:X    1X1X                                                                ",
"                      %X/.!.!.!.J.K.A.!._.H.K.].H.!.).`.+X].Q.K.{.XX%XOX&X=X-X>X;X,X;X<X<X1X                                    ",
"                  ,X}.!.!./.H.K.D.J./.M./.U.E.H.B.N.M.Q.J.M.n.b.N.m.M.K.J.(.H.Q.!.!.K.U.Y./._.#XOXoX$X&X&X=X&X@X X              ",
"                #XOX[.{.`.oX`..XQ.H.!.Q.b.M.!.!.N.N.m.K.M.W.*Xn.n.B.x.M.v.M.N.b.v.M.x.v.H.Q.H.H.M.U.H.{.Q.J.'._. XJ.            ",
"                A.u.d.d.Z.d.c.C.!.]._.[._.Q.[._.[.|.~.).).Q.|.(.H.!.Q.v.N.B.v.J.!.x.M.J.N.m.K.Q.N.J.D.H.b.J.K.|.` H.            ",
"                u.0...X.r.>.q.0.r.c.:.p.r.S.f.g.,.C.S.L.S.^.P.P.!.].[.P.[.[._.[.+XQ.Q.(.N.(.B.v.H.U.H.M.N.!. X( G D.            ",
"                >.=.@.0.O.k N H B J 1.2.t.q.p.t.2.4.e.e.e.r.d.h.j.e.u.$.>.u.g.g.Z.L.A.C._.`._.]./.`._./._.+X^ N D v.            ",
"                :.@.8.N > q y w y d e q q w w f w f f f N H P e...$.-.-.%.%.:.+.+.-.<.:.-.f.>.u.>.<.d.g.G.w.f t l K.            ",
"                f.8.P 0 y j B D F F B N F j V B t f f k e q 0 +.=.#.G  . .F | @.@. .X...X.-.-.e.X. .%.$.f.F k f B H.            ",
"                r.4.s y D F F G G M F  .K M F  .D Z l.j N s w 8.+...+. .X. .G  .X.@...F X...X.-.G ..-.$.a.N N k F               ",
"                d.0.w y B G B .. . .+. .| K G F  .@.o. . .G f 0. .F ..#..... .#. . .$.@.X. .G .. .K G ..d.L k t F               ",
"                r.8.s r B G F |  . .G F K G ..@. . . . .F M f $. .@.....#.O.F ..#.B  .%.G G  .G  .K  .@.d.Z k f F Q.            ",
"                k.e.f f F G o. .G G G G %.G #.G  .X.@. .F N e 8.+...$. .X.+.@. .K G  . .K  .X.#.F  .G  .y.L B f B _.            ",
"                -.2.e y F B #.F ..D G F G ..G K ..G  .F  .N y @.$. . .G  .K  .F K  .X.F ..D K  . . .+.+.h.C f N k I.            ",
"                0.1.d k B D G G G N  .( H  .o.G F K B  .m k q 8.^ K K F +.N G X.K K X.X.#.K G F  ... . .g.A f f J               ",
"                j.2.s q F F G  .=.B o.$.P G  .B V D 7.X.D k s 2.1.K G  . .G  .B K  .+.F F V X.D  .G  .$.:.5.N f G K.            ",
"                h.6.q 0 G G G F F ) @.F D  .G 1.1.#. .F G N f 1.8. .G F  . . .o. .G ..G O.+. .G .. .K $.$.6.k f F A.            ",
"                c.8.s e k F F F F  .k F  .B B  .F  .X.B D y y ) o.F D G f  .D B D F  .F F  .X. . .F B D y.N e f D v.            ",
"                -.O.w e f D r F K ..B F F B B B F G G D B B u 1.+. .G K L B F G B F F B F  . . . . .@.o.i.V N B k v.            ",
"                p.O.w f k N N F F B B F  .B y Z B B r B B y v ) P B N G G F B G F G B G K G G j F G X.+.u.C N f B K.            ",
"                q.o.0 q N D k t F F G k F k D B N B Z B B f e H H F B t N F  .D G G F F V k D K F B F o.y.N k y D               ",
"                $.L p w y N k G B F F B k B N B B B F N t f p ) ..B f B k B B N B F F F B f F G P F F K -.1.s f G L.            ",
"                p.) u u ! F B t B B N B k V B k D k B B e y , H J N f F B f B k k N B B G F B F E B G P $.1.' k F L.            ",
"                8.) p , Q k B f N N F B B N N N B k f N v f 0 L H N f B A f B B k j N B F D B B P P B D -.5.f k D ].            ",
"                0.A 0 0 d w k f h f f d t w N k f w d f d s , H B N s B B B B B B B f k D B j N F B D F $.L f B G G.            ",
"                e.3.> : 0 0 w w f e w s y f f y y e f k s w 0 A f B B B F k N N B  .N k B B N N B N j F =.G k D  .G.            ",
"                e.P C E E v h a a u p p 0 0 0 a 0 0 w q 0 0 > A H N B f B k B k N s h N N G N N f N B F =.o.N B @.              ",
"                a.F N H Z Z H C H W ) ^ W ) ~ _ Q R T R g a u Z C Z ^ _ A Z V Z A H Z J H L C N N V B F q.&.t k .._.            ",
"                y.B Z B f B B k N N B V N f Z Z H R A C C / Q * : : : > 1 : > p p f f C C Z H P H H H H 0.F D B F `.            ",
"                y.B N f f k f N f E C N N B N N N A N N C A ( > > 0 0 > 0 0 0 > 0 , , 0 : , > > > : > p @.O.j G  .`.            ",
"                i.k f f f B k N y f f f f f s f w N f N N h A 1 0 p p w p p w q e w e e > w p > 0 0 : p @.9.k B F z.            ",
"                q.B k k f d V f s N w k f d f f f y d d f N A 1 0 e e f d f e y q s y y d y y f f e 0 s 6.&.B j F Y.            ",
"                z.L N B k s k f f N N f d E f s f f s g N N C , , d y f f f k k k f f y N f d N f y e p 1.6.F D  .Z.            ",
"                i.L f k k f N k s f f f B ! f f v k f k k N Z : 0 p r f f f k f e k k N h N s N h 0 q d 8.o.F M G P.            ",
"                i.F N f s s f e f f k f N N k f g f h d N f H : 0 e f f d f f f f f y f f f w N f e e s 8.o.B t ..P.            ",
"                $.B N f f N f f N f d e p N f p f f h f f h C : 0 y e s p f B s N h f s k f f f N k y d 2.8.l D J T.            ",
"                +.B N f k N N y N d f f g f h y f d d p s N C : 0 0 s p g f y f f v f N s N f f B N p s 8.5.D F G T.            ",
"                @.f k f e f y k f N y f E d N f k f s f s g C : > w s v k e e f h g y f f d f f f Z , s 8.6.G B X.R.            ",
"                =.k k f k k s k f f N k d f f f k y f w f C C : , 0 p T f f y f d s y f e f e B k y e s 0.o.B F X.D.            ",
"                ;.C B N f N f v B f y f f f f f f f w w s C Z : i q s N s k y y f f f N y Q f f f e q h 1.6.D F  .Y.            ",
"                s.F f k k k f d k f f e f f f y k k y d f h ^ > 0 0 d C f p s d y f f f f a k B k q s h 2.6.F B  .T.            ",
"                y.f N f y B N f B f f f d s f y f y s f s s ~ > > w p s f f f s f f f d f f f k N f w p 8.O.K B $.}.            ",
"                =.B B f f N f e s f f f d f y h e y s f f s W > 0 q s s f f w f d w f y f 0 f f B k q s 2.9.F D +.!.            ",
"                +.N B f k f f N f s N k e k q f s d d f f g W : 0 q s e y f p h w s f N N s s w k e w a 2.P B G ..Y.            ",
"                a.f f V N k k N f f f s f f N r f f y y k N Q > 0 0 s s f s f N k k f f f f k N A d q p 1.9.B G  .K.            ",
"                z.V p F N f N y e f f f f f f f f f k k s C C : , q e s f f y s f C w f d N f k ' p w p 1.9.D D  .G.            ",
"                s.B N B B d y N N B f y N y s f s d d f E C h : > u g v f 0 e e e g e f s w y r s d > g O.=.k N G D.            ",
"                s.B B s k k N f k B f f N f w k f s r e f C C * * : z u 0 q q 0 e w q w e e w q e 0 > Q P &.k F | V.            ",
"          @ @ 8 9.o.o.B B L H F k k B B k ' N k y f k f d f B C W E ~ E E R x g p i u u 0 0 , 0 , u Q H P &.N B G               ",
"      + X . . o b Y I &.V S 6.O.F B o.8.F V B B N ^ B N N C N C Z N k Z C Z Z Z H W A 3.` ^ ` E _ A B N G 9.B @.S 3             ",
"              3 ; # - n = = ] c ] 7.b *.U { &.&.5.1.9.&.I P 2.1.H L F N N V A H H C H ` Q V C N N V H D &.6.F [ # + @ 3         ",
"                                5 5 $ 6 # X < = - 9 o = 2 b ] c { 7.S { &.O.1.7.L 1.O.9.2.P L F F B G B @.&.U ; X X + % 4       ",
"                                                        3 $ + + # o . o c c 2 < 2 2 [ b b S 7.I &.&.O.=.s.b # X X X + % 4       ",
"                                                                                3 $ $ + X O = O = - # 8 9 + X X + + 3 5         ",
"                                                                                                        & 7                     ",
"                                                                                                                                ",
"                                                                                                                                ",
"                                                                                                                                ",
"                                                                                                                                "
};
